<?xml version="1.0" standalone="no"?>
<!DOCTYPE svg PUBLIC "-//W3C//DTD SVG 20010904//EN"
 "http://www.w3.org/TR/2001/REC-SVG-20010904/DTD/svg10.dtd">
<svg version="1.0" xmlns="http://www.w3.org/2000/svg"
 width="1000.000000pt" height="1000.000000pt" viewBox="0 0 1000.000000 1000.000000"
 preserveAspectRatio="xMidYMid meet">
<metadata>
Created by potrace 1.11, written by Peter Selinger 2001-2013
</metadata>
<g transform="translate(0.000000,1000.000000) scale(0.100000,-0.100000)"
fill="#000000" stroke="none">
<path d="M7558 8995 c-2 -2 -30 -6 -63 -9 -101 -10 -208 -24 -246 -32 -13 -2
-40 -7 -59 -10 -19 -3 -43 -7 -52 -10 -10 -3 -28 -7 -40 -10 -184 -34 -507
-132 -693 -209 -380 -157 -703 -376 -939 -635 -41 -45 -153 -192 -194 -256 -6
-10 -15 -26 -19 -34 -4 -8 -13 -21 -20 -28 -7 -7 -13 -20 -13 -28 0 -8 -4 -14
-10 -14 -5 0 -10 -6 -10 -14 0 -7 -8 -24 -18 -37 -11 -13 -30 -44 -44 -69 -14
-25 -43 -74 -65 -110 -21 -36 -42 -72 -46 -80 -4 -8 -15 -27 -25 -42 -19 -29
-104 -173 -132 -222 -16 -28 -69 -120 -91 -156 -4 -8 -30 -53 -56 -99 -27 -46
-60 -104 -75 -130 -15 -25 -35 -61 -44 -79 -15 -29 -21 -33 -49 -29 -18 3 -38
8 -44 11 -6 4 -11 3 -11 -3 0 -7 -8 -7 -22 -2 -38 13 -350 3 -408 -14 -8 -2
-31 -7 -50 -10 -19 -3 -53 -11 -75 -16 -22 -6 -48 -13 -57 -15 -10 -2 -26 -6
-35 -8 -21 -5 -148 -52 -178 -66 -77 -35 -136 -60 -141 -59 -4 0 -10 -3 -13
-8 -3 -5 -37 -27 -76 -48 -38 -21 -72 -41 -75 -44 -3 -3 -32 -24 -64 -45 -33
-21 -64 -42 -70 -47 -113 -90 -200 -162 -236 -196 -24 -24 -48 -43 -52 -43 -5
0 -8 -6 -8 -14 0 -8 -9 -18 -20 -21 -11 -3 -20 -9 -20 -13 0 -4 -34 -43 -76
-87 -42 -44 -95 -104 -117 -132 -21 -29 -43 -53 -48 -53 -5 0 -9 -6 -9 -14 0
-8 -4 -16 -8 -18 -19 -8 -52 -69 -52 -96 0 -28 2 -30 34 -27 18 2 60 11 92 20
33 9 70 18 84 21 14 2 48 9 75 14 161 31 428 29 605 -5 19 -4 44 -8 55 -9 11
-1 25 -4 30 -7 6 -4 27 -9 47 -13 48 -9 200 -58 264 -85 l51 -22 -32 -63 c-93
-181 -53 -337 125 -485 l57 -48 -36 -39 c-52 -58 -81 -93 -81 -100 0 -3 -13
-24 -28 -47 -60 -87 -102 -157 -96 -157 4 0 0 -8 -8 -17 -47 -56 -181 -374
-203 -483 -2 -8 -4 -15 -5 -15 -2 0 -6 -16 -14 -55 -3 -14 -9 -38 -13 -55 -4
-16 -7 -32 -8 -35 -19 -89 -26 -305 -13 -383 18 -101 20 -111 40 -161 49 -125
126 -216 230 -269 35 -17 70 -34 78 -35 8 -2 26 -7 40 -10 32 -8 228 -7 260 1
14 4 34 9 45 11 11 2 47 14 80 25 33 12 65 23 70 24 13 4 142 68 175 88 35 20
184 121 190 128 3 3 28 24 55 46 64 50 236 222 302 300 76 92 163 210 163 223
0 7 4 12 9 12 5 0 16 18 24 39 9 22 21 42 26 46 6 3 30 -7 53 -23 130 -87 259
-115 365 -80 32 11 60 24 61 29 2 5 9 9 16 9 7 0 43 30 80 67 l67 67 40 -44
c22 -25 50 -58 62 -74 12 -15 34 -42 48 -60 33 -40 154 -225 154 -236 0 -5 3
-12 8 -16 11 -12 66 -130 98 -214 34 -87 70 -213 84 -295 3 -16 8 -37 10 -46
3 -8 7 -51 10 -95 7 -121 14 -144 42 -144 19 0 83 66 83 86 0 8 4 14 8 14 5 0
16 15 25 33 9 17 28 52 43 77 54 92 134 250 127 250 -5 0 -2 4 5 9 7 4 14 14
15 22 2 8 5 19 9 24 4 6 20 44 36 85 16 41 33 84 37 95 5 11 9 22 10 25 1 3 4
12 8 20 8 22 48 158 52 178 2 9 4 17 5 17 2 0 3 5 15 60 15 73 35 202 40 267
3 39 8 74 10 79 3 4 -1 10 -7 12 -7 3 -8 6 -3 6 14 1 6 233 -11 312 -2 13 -7
39 -10 58 -6 37 -7 41 -28 126 -16 65 -54 171 -91 250 -12 28 -22 52 -21 55 0
3 -9 19 -22 37 -26 36 -26 37 -9 55 11 12 102 120 120 143 4 6 21 26 38 45 17
19 57 67 89 107 32 39 61 69 64 66 3 -4 6 -1 6 5 0 8 194 251 255 319 5 6 21
26 35 44 14 18 34 43 46 56 11 12 29 34 40 49 10 15 26 34 35 43 72 74 267
350 299 423 5 13 14 30 19 38 18 31 61 122 61 131 0 5 9 28 19 52 35 77 95
276 117 387 46 236 59 390 58 665 -1 194 -6 289 -19 405 -3 25 -7 68 -10 95
-2 28 -5 51 -6 53 -3 4 -5 16 -13 77 -4 32 -10 68 -13 80 -10 47 -15 71 -18
90 -2 11 -6 31 -10 45 -3 14 -8 34 -9 45 -6 36 -37 149 -62 224 -50 149 -87
210 -142 233 -23 10 -315 21 -324 13z"/>
<path d="M2899 2589 c-18 -27 -40 -56 -46 -64 -7 -7 -13 -18 -13 -23 0 -6 -4
-12 -8 -14 -5 -1 -23 -25 -42 -53 -19 -27 -38 -54 -42 -60 -22 -28 -75 -104
-92 -130 -11 -16 -24 -35 -30 -41 -6 -6 -38 -51 -71 -99 -33 -48 -71 -102 -85
-120 -14 -18 -31 -41 -38 -51 -7 -11 -35 -50 -62 -89 -28 -38 -69 -97 -92
-130 -72 -104 -83 -119 -93 -131 -5 -6 -16 -20 -23 -30 -71 -106 -297 -420
-304 -422 -4 -2 -8 -9 -8 -15 0 -6 -8 -19 -17 -29 -20 -23 -12 -40 32 -68 l30
-19 55 80 c30 44 62 89 70 99 8 11 25 34 38 52 13 18 40 56 60 85 20 28 44 61
52 73 8 12 21 28 28 36 6 7 12 17 12 22 0 6 3 12 8 14 4 2 21 23 37 48 17 25
34 50 38 55 4 6 25 35 47 65 22 30 43 60 48 65 4 6 27 37 50 70 23 33 56 80
73 105 17 25 46 65 63 90 17 24 35 49 39 55 4 5 25 35 47 65 22 30 43 60 47
65 4 6 28 39 52 75 25 36 48 67 51 70 3 3 37 50 75 105 38 55 81 116 97 135
15 19 28 40 28 46 0 6 -17 23 -38 37 l-38 25 -35 -49z"/>
<path d="M3069 2127 c-24 -34 -47 -63 -51 -65 -4 -2 -8 -8 -8 -13 0 -6 -15
-30 -32 -53 -18 -24 -40 -54 -48 -66 -8 -12 -29 -41 -46 -64 -17 -22 -50 -68
-73 -101 -116 -165 -148 -212 -174 -249 -32 -47 -36 -52 -117 -164 -33 -45
-60 -86 -60 -90 0 -9 63 -52 76 -52 5 0 32 32 59 72 28 39 68 97 90 129 63 90
178 253 187 264 10 12 97 134 118 166 8 12 45 64 83 116 37 52 67 98 67 103 0
6 4 10 8 10 7 0 42 52 42 63 0 2 -18 16 -39 30 l-39 26 -43 -62z"/>
</g>
</svg>
