<svg viewBox="0 0 512 512" xmlns="http://www.w3.org/2000/svg">
  <style>
    .asteroideA{fill:#D49E6C}.asteroideB{fill:#B68052}.asteroideC{fill:#9D693C}
  </style>
  <path class="asteroideA" d="M362.3 462.1c-2 .2-4 .3-6.1.5 2.1-.2 4.1-.3 6.1-.5zM474.5 239.8c-10.9-8.3-25.4-23.5-42.1-41.1-6.6-7-13.7-14.4-21.2-22.1-2.3-2.4-5.8-3.1-8.8-1.8-10.8 4.5-28.3-.1-42.8-11.2-19.7-15.1-25.8-34.5-20.2-43.9 2.1-3.5 1.2-7.9-1.9-10.4-14-10.9-27.3-20.2-40.5-28.3 6.2 3.8 12.3 7.9 18.6 12.2-55.8-6.3-168.7 11.5-179.8 97.9-3.5 27.3 3.5 60.3 19.3 93.7 1.8-.3 3.6-.6 5.5-.9 24.6-2.9 45.9 5.8 47.6 19.5 1.3 10.7-9.7 21.2-26.2 26.7 42.8 59.8 112.3 113.4 198.2 129.9-5.9.9-11.8 1.6-17.9 2.1 52.9-4.6 100.1-23.3 123.3-62.3 14.6-24.5 56.8-108.5-11.1-160zm-267-15.1c-34.5-9.1-58.3-32.2-53.2-51.5s37.2-27.5 71.7-18.4 58.3 32.2 53.2 51.5c-5.2 19.3-37.2 27.6-71.7 18.4zm85.8 167.8c-26.6-1-47.6-14.7-47.1-30.5.6-15.9 22.6-27.9 49.2-26.9s47.6 14.7 47.1 30.5c-.6 15.9-22.6 27.9-49.2 26.9zm110.8-111.1c-4.2 10.8-22 13.8-39.8 6.9-17.8-7-28.7-21.3-24.5-32.1s22-13.8 39.8-6.9 28.7 21.3 24.5 32.1zm43.5 93.9c-13.5 12.9-30.6 16.9-38.1 9-7.6-7.9-2.8-24.8 10.7-37.7s30.6-16.9 38.1-9c7.6 8 2.8 24.8-10.7 37.7z"/>
  <path class="asteroideB" d="M182 330.1c16.5-5.5 27.5-16.1 26.2-26.7-1.6-13.7-22.9-22.4-47.6-19.5-1.9.2-3.7.5-5.5.9-15.8-33.4-22.8-66.3-19.3-93.7 11.1-86.4 124-104.2 179.8-97.9-6.2-4.3-12.4-8.4-18.6-12.2-84.1-51.8-150.6-31.7-204.6-5.3C9.5 116.4-13.5 225.9 7.1 308.4c21.6 86.6 120.8 112.7 216.7 138l15 4c30.6 8.1 64.2 12.9 96.8 12.9 1.9 0 3.8 0 5.7-.1 1.7 0 3.4-.1 5.2-.1 1.2 0 2.4-.1 3.6-.1.5 0 .9 0 1.4-.1l4.5-.3h.3c2-.1 4-.3 6.1-.5h.1c6-.5 12-1.2 17.9-2.1-86-16.5-155.5-70.1-198.4-129.9zm-35.8-246c9.6-4 25.7-5.6 36.8-.8 4.1 1.8 5.9 6.5 4.2 10.5s-6.4 5.9-10.5 4.2c-6.2-2.7-18-1.8-24.3.9-1 .4-2 .6-3.1.6-3.1 0-6.1-1.9-7.4-4.9-1.7-4.1.2-8.8 4.3-10.5zm-123.4 63c6.7-13.5 15.1-25.9 25-37.1 12-3.8 24.5-5.2 35.8-6.4 12.9-1.4 25-2.8 33.8-7 4-1.9 8.8-.3 10.7 3.7s.3 8.8-3.7 10.7c-11.2 5.4-24.7 7-39 8.5-24 2.7-48.7 5.4-62.6 27.6zm92.7 121.6c-.4 4.4-4.3 7.6-8.6 7.4-6.1-.5-9.1 1.1-11 2.6-1.5 1.1-3.2 1.7-4.9 1.7-2.4 0-4.8-1.1-6.4-3.1-2.7-3.5-2-8.5 1.5-11.2 6-4.6 13.2-6.5 22-5.8 4.4.2 7.7 4 7.4 8.4zm-58.9-72.6c3.1-22.1 15.6-38.6 27.9-36.9s19.7 21.1 16.6 43.2-15.6 38.6-27.9 36.9c-12.3-1.8-19.8-21.1-16.6-43.2zm62.2 149.3c-.4 4.1-3.9 7.2-7.9 7.2h-.9c-14.2-1.5-26.7-9.3-34.3-21.4-7.2-11.4-8.8-25-4.5-37.4 1.5-4.2 6.1-6.4 10.2-4.9 4.2 1.5 6.3 6 4.9 10.2-2.7 7.7-1.7 16.2 2.9 23.5 5 7.9 13.2 13.1 22.5 14 4.4.5 7.6 4.5 7.1 8.8zm.3-31.3c-1.5-12.7 14.3-25.1 36.1-29.3 7.2 15.2 16.2 30.4 26.8 45.3-4.7 1.6-9.9 2.8-15.4 3.5-24.6 2.9-45.9-5.8-47.5-19.5zm130.3 138.7c-5.3-5.8-9.7-12-13.9-17.9-7.7-11-14.4-20.5-25.7-25.7-14.5-6.7-34.4-15.8-37.8-35.5-.7-4.4 2.2-8.5 6.5-9.2 4.5-.7 8.5 2.2 9.2 6.5 2 11.4 16.8 18.2 28.7 23.7 15.2 7 23.8 19.2 32.1 31 10.2 14.4 19.8 28 41.5 34.4.1 0 .2.1.4.2-13.9-1.8-27.7-4.3-41-7.5z"/>
  <ellipse class="asteroideB" transform="rotate(-87.851 294.364 363.794)" cx="294.4" cy="363.8" rx="28.7" ry="48.2"/>
  <ellipse class="asteroideB" transform="rotate(-68.6 371.984 268.745)" cx="372" cy="268.7" rx="20.9" ry="34.5"/>
  <ellipse class="asteroideB" transform="rotate(-133.749 433.876 360.992)" cx="433.9" cy="361" rx="19.9" ry="33.8"/>
  <ellipse class="asteroideC" transform="rotate(8.054 78.852 199.303)" cx="78.8" cy="199.2" rx="22.5" ry="40.4"/>
  <path class="asteroideC" d="M149.3 99.5c1 0 2.1-.2 3.1-.6 6.4-2.6 18.1-3.5 24.3-.9 4.1 1.8 8.8-.1 10.5-4.2 1.8-4.1-.1-8.8-4.2-10.5-11.1-4.8-27.2-3.2-36.8.8-4.1 1.7-6 6.4-4.3 10.4 1.3 3.2 4.2 5 7.4 5zM111.7 336.7c-9.3-1-17.5-6.1-22.5-14-4.6-7.3-5.6-15.8-2.9-23.5 1.5-4.2-.7-8.7-4.9-10.2-4.1-1.5-8.7.7-10.2 4.9-4.4 12.3-2.7 25.9 4.5 37.4 7.6 12.1 20.2 19.9 34.3 21.4h.9c4 0 7.5-3.1 7.9-7.2.5-4.4-2.7-8.4-7.1-8.8zM86.2 266c-3.5 2.7-4.2 7.7-1.5 11.2 1.6 2.1 3.9 3.1 6.4 3.1 1.7 0 3.4-.5 4.9-1.7 1.9-1.5 4.9-3.1 11-2.6 4.3.3 8.2-3 8.6-7.4.3-4.4-3-8.2-7.4-8.6-8.9-.6-16 1.4-22 6zM155.2 284.8c-21.8 4.1-37.6 16.6-36.1 29.3 1.6 13.7 22.9 22.4 47.6 19.5 5.5-.7 10.7-1.9 15.4-3.5-10.7-14.9-19.7-30.2-26.9-45.3z"/>
  <ellipse class="asteroideB" transform="rotate(14.85 216.74 189.77)" cx="216.7" cy="189.8" rx="64.6" ry="36.1"/>
  <path class="asteroideC" d="M124.3 111c4-1.9 5.6-6.7 3.7-10.7s-6.7-5.6-10.7-3.7c-8.7 4.2-20.9 5.6-33.8 7-11.3 1.3-23.8 2.7-35.8 6.4-9.9 11.1-18.3 23.6-25 37.1 13.9-22.2 38.6-24.9 62.6-27.6 14.3-1.6 27.8-3.1 39-8.5zM248.6 425.7c-8.3-11.8-16.9-24-32.1-31-11.9-5.5-26.7-12.3-28.7-23.7-.7-4.3-4.8-7.2-9.2-6.5-4.4.8-7.3 4.9-6.5 9.2 3.4 19.7 23.3 28.8 37.8 35.5 11.3 5.2 18 14.7 25.7 25.7 4.1 5.9 8.5 12 13.9 17.9 13.4 3.1 27.1 5.7 41.1 7.4-.1 0-.2-.1-.4-.2-21.9-6.3-31.5-19.9-41.6-34.3z"/>
</svg>
