<?xml version="1.0" encoding="UTF-8"?>
<svg viewBox="0 0 504.1 504.1" xmlns="http://www.w3.org/2000/svg">
<style>.blackHoleA{fill:#141160;}.blackHoleB{fill:#241B7A;}.blackHoleC{fill:#33248E;}.blackHoleD{fill:#432DA0;}.blackHoleE{fill:#814FC1;}.blackHoleF{fill:#14A2F2;}.blackHoleG{fill:#F4EBC1;}</style>
<circle class="blackHoleA" cx="252.1" cy="252.1" r="252.1"/>
<path class="blackHoleB" d="m430.3 430.3c-98.4 98.4-258 98.4-356.5 0-98.4-98.4-98.4-258 0-356.5"/>
<circle class="blackHoleB" cx="252.1" cy="252.1" r="215.7"/>
<path class="blackHoleC" d="m252.1 467.8c-119.2 0-215.7-96.6-215.8-215.7 0-119.1 96.6-215.7 215.7-215.7"/>
<circle class="blackHoleC" cx="252.1" cy="252.1" r="178.4"/>
<path class="blackHoleD" d="m125.9 378.2c-69.7-69.7-69.7-182.6 0-252.3s182.7-69.7 252.3 0"/>
<circle class="blackHoleD" cx="252.1" cy="252.1" r="133.8"/>
<path d="m252.1 385.9c-73.9 0-133.8-59.9-133.8-133.8s59.9-133.8 133.8-133.8" fill="#583CAF"/>
<path d="m82.6 464.3s-4.9-4.8-14.1-13.9c-8.9-9.2-21.4-24-34.2-44.8-12-21.2-24.3-48.9-30.2-83-5.9-33.8-6.5-74.2 6-115.7 3.2-10.3 6.4-20.9 11.2-31.1 4-10.6 9.9-20.5 15.6-30.7 12.3-19.8 27.2-39.4 45.8-56.1 3.9-4 9.3-8.1 14.7-12.2l8-6.1 8.3-5.2c5.5-3.5 11.1-7 17.2-9.7 6-2.9 11.9-6.1 18.3-8.2 25-10 52.6-14.9 80.6-14.7 56.1 0.5 114.2 23.5 155.5 67.7 42 43.5 59.1 111.5 42.2 171.2-8.3 29.9-25 57.2-46.5 79.1-10.2 10-24.6 20.6-38.3 27.4-14 7.2-29.3 11.6-44.7 14-30.9 4.9-62.8-1.2-89.7-15.3-13.4-7.3-25.6-16.5-36.2-27l-7.1-8c-2.3-2.8-4.9-6.5-7.2-9.7-4.3-6.6-7.9-13.2-10.8-20.2-11.7-28-12.3-59.6-2.3-86.7 4.9-13.6 12.3-26.1 21.3-36.7l7.2-7.6 0.4-0.5 1-1 0.9-0.7 1.7-1.5 3.4-2.9c2.9-2.2 6.2-4.6 9.2-6.6 3.1-1.7 6.1-3.6 9.2-5.1 25.3-12.3 54.6-12.6 78.6-2.7 12 4.9 22.7 12.3 31.3 21.1l0.8 0.8 0.4 0.4s1.9 2.1 1.2 1.4l1.2 1.6 2.4 3.2c1.6 2.2 3.2 3.9 4.8 6.6 1.6 3 3.2 5.9 4.6 8.9l2.2 4.5c0.6 1.5 0.9 3 1.3 4.4 7.2 23.3 2.9 48.1-9.4 65.9-3.2 4.3-6.9 8.2-10.3 12.1-0.4 0.4 0.5-0.4-1 1l-0.3 0.3-0.7 0.5-1.4 1-2.7 2c-1.8 1.4-3.4 2.7-6.2 4-2.5 1.2-5 2.5-7.5 3.7s-4.9 1.5-7.3 2.2c-4.8 1.6-9.7 1.7-14.5 2-19.5 0.5-36.3-9.2-46.5-22-1.1-1.5-2.2-2.8-3.2-4.4-0.9-1.9-1.9-3.8-2.8-5.7-2.1-3.7-2.3-7.5-3.4-11.1-0.4-3.7-0.7-7.3-0.5-10.8 0.6-3.4 0.5-6.9 1.8-10 3.7-12.5 12.5-22.1 21.1-26.2 9.4-4.6 18-4.2 24.5-2.7 12.9 4 16.7 10.8 17 10.3-0.1 0.5-5-5.7-17.4-8.1-6.1-0.7-14.3 0.1-21.4 4.7-1.8 0.8-3.6 2.6-5.4 4.3l-1.4 1.3c0 0.1-0.6 0.9-0.9 1.2-0.7 1-1.4 2-2.1 3-2.9 4-5 8.9-6 14.2-0.9 2.6-0.4 5.5-0.7 8.2 0.1 2.8 0.7 5.7 1.2 8.5 1.2 2.6 1.6 5.9 3.3 8.1l2.1 3.6c1 1.3 2.3 2.6 3.5 4 8.6 8.7 22.3 15.6 36.6 13.8 3.5-0.5 7.1-0.8 10.5-2.3 1.6-0.7 3.6-1 5-1.9s2.8-1.7 4.3-2.5c2.5-1 7.4-6.1 9.1-7.5 2.2-3.2 4.8-6.3 6.9-9.6 8-13.8 9.8-31.7 3.8-47.5-0.3-1-0.6-2.1-1-3l-1.5-2.4c-0.9-1.6-1.8-3.3-2.7-4.9-1.1-1.8-3.3-3.9-4.9-5.9l-2.6-3-1.3-1.5c-0.9-1 0.8 0.9 0.5 0.6l-0.3-0.3-0.7-0.5c-6.8-6.1-14.8-10.8-23.5-13.8-17.4-6.1-37.9-4.9-54.8 4.3-2.1 1.1-4.1 2.5-6.1 3.7l-5.2 4-3.3 3.1-1.6 1.5-0.8 0.8c-0.3 0.2 0.9-0.8 0.3-0.2l-0.3 0.4-5 5.8c-6.2 8.1-11.1 17.3-14.2 27.2-6.1 19.7-5.4 42 3.5 61.4 2.1 4.8 4.9 9.5 7.8 13.7 1.6 1.9 2.6 3.6 4.5 5.8l6 6.4c8.2 7.7 17.4 14.2 27.4 19.4 20.2 9.7 43.6 13.8 66.2 10.1 11.2-1.9 22.4-5 32.6-10.5 10.5-5.6 18.3-11.1 27.8-20.2 16.6-17.2 29.2-38.4 35.5-61.5 13.4-46.2 1.2-98.6-32-133.5-16.1-17.1-36.5-32-58.1-41.8-21.8-10-45.3-15.4-68.8-16.3-46.9-1.9-92.7 14.9-125.7 42.6-34.1 28.8-57.4 65.5-70.6 102.4-3.5 9.2-5.5 18.6-8.1 27.7-1.4 9.3-3.8 18.3-4.4 27.3-0.7 9-2 17.8-1.5 26.4 0 4.3 0.1 8.5 0.1 12.7s0.8 8.2 1.1 12.3c3.2 32.3 12.3 59.8 21.9 81.4 10.7 21.2 20.6 36.9 28.7 47.1 7.9 9.5 12.2 14.9 12.2 14.9z" fill="#AC79E2"/>
<path class="blackHoleE" d="m210.5 248.9c0.9-2.1 2-4.1 3.3-5.8 0.7-1 1.4-2 2.1-3 0.3-0.4 0.9-1.2 0.9-1.2l1.4-1.3c1.9-1.7 3.6-3.5 5.4-4.3 0.4-0.3 0.9-0.4 1.3-0.7 0.3-0.5 0.5-1 0.8-1.5 0.7-1 1.4-2 2.1-3 0.3-0.4 0.9-1.2 0.9-1.2l0.7-0.6c-2.7 0.6-5.5 1.4-8.5 2.8-1.1 0.5-2.2 1.1-3.3 1.8-2.4 3.7-4.5 7.8-5.9 12.4-0.7 1.8-1 3.7-1.2 5.6z"/>
<path class="blackHoleE" d="m137 59.5c-6.4 2.1-12.3 5.3-18.3 8.2-6.1 2.7-11.7 6.2-17.2 9.7l-8.3 5.2-8 6.1c-5.3 4.1-10.7 8.2-14.7 12.2l-2.4 2.4c-12.1 13.1-22.5 27.4-31.4 41.8-5.7 10.3-11.5 20.2-15.6 30.7-4.8 10.2-8 20.8-11.2 31.1-12.5 41.4-11.8 81.8-5.9 115.7 1.5 8.5 3.3 16.6 5.5 24.3-0.8-4.7-1.4-9.5-1.9-14.5-0.3-4-1-8.1-1.1-12.3 0-4.2-0.1-8.4-0.1-12.7-0.5-8.6 0.8-17.4 1.5-26.4s3-18 4.4-27.3c2.6-9 4.6-18.5 8.2-27.7 12.2-33.8 32.8-67.4 62.4-94.9 6.3-6.8 13-13.3 20.2-19.4 33-27.7 78.8-44.5 125.7-42.6 23.4 0.9 47 6.3 68.8 16.3 21.6 9.8 42 24.7 58.1 41.9 33.1 34.9 45.3 87.3 32 133.5-6.3 23.1-18.9 44.3-35.5 61.5-2.1 2-4.2 3.9-6.2 5.6-1.9 2.2-3.8 4.3-5.8 6.4-9.5 9.1-17.3 14.6-27.8 20.2-10.2 5.4-21.3 8.6-32.6 10.5-22.6 3.7-46-0.4-66.3-10.1-10-5.1-19.2-11.7-27.4-19.4l-6-6.4c-1.8-2.2-2.9-3.9-4.5-5.9-2.9-4.2-5.7-8.9-7.8-13.7-8.9-19.3-9.6-41.6-3.5-61.3 3.1-9.9 7.9-19.1 14.2-27.2l5-5.8 0.3-0.4c0.6-0.6-0.5 0.4-0.3 0.2l0.8-0.8 1.6-1.5 3.3-3.1 2.1-1.6 4.1-4.8 0.3-0.4c0.6-0.6-0.5 0.4-0.3 0.2l0.8-0.8 1.6-1.5 3.3-3.1 5.2-4c2.1-1.2 4-2.6 6.1-3.7 16.9-9.2 37.4-10.4 54.8-4.3 8.8 3 16.8 7.7 23.5 13.8l0.7 0.5 0.3 0.3c0.3 0.3-1.4-1.6-0.5-0.6l1.3 1.5 2.6 3c1.6 2 3.8 4.1 4.9 5.9 0.8 1.7 1.7 3.3 2.7 4.9l1.5 2.4c0.4 0.9 0.7 2 1 3 6 15.8 4.2 33.7-3.8 47.5-2.1 3.3-4.7 6.4-6.9 9.6-1.6 1.3-5.7 5.5-8.3 7-1.2 1.6-2.5 3.2-3.6 4.9-1.8 1.4-6.6 6.5-9.1 7.5-1.4 0.8-2.9 1.6-4.3 2.5s-3.4 1.2-5 1.9c-3.4 1.5-7 1.7-10.5 2.3-3.1 0.4-6.1 0.3-9.1-0.1 6.7 2.6 14 4.1 21.7 3.9 4.8-0.3 9.7-0.4 14.5-2 2.4-0.8 4.9-1 7.3-2.2 2.5-1.2 4.9-2.4 7.5-3.7 2.8-1.3 4.4-2.6 6.2-4l1.1-0.8c1.2-1.4 2.3-2.7 3.4-4.2 12.3-17.8 16.6-42.6 9.4-65.9-0.5-1.5-0.7-2.9-1.3-4.4l-2.2-4.5c-1.4-3-3-6-4.6-8.9-1.6-2.7-3.2-4.3-4.8-6.6l-2.5-3.1-1.2-1.6c0.7 0.7-1.3-1.4-1.2-1.4l-0.4-0.4-0.8-0.8c-8.7-8.8-19.4-16.1-31.3-21.1-24-10-53.2-9.6-78.6 2.6-3.2 1.5-6.2 3.4-9.2 5.1-3.1 2.1-6.4 4.4-9.2 6.6l-2.6 2.2-0.1 0.1c-9 10.7-16.4 23.2-21.3 36.7-10 27.1-9.4 58.7 2.3 86.7 2.9 7.1 6.5 13.6 10.8 20.2 2.3 3.2 4.9 6.9 7.2 9.7l7.1 8c10.6 10.6 22.8 19.7 36.2 27 27 14.2 58.8 20.3 89.7 15.3 15.4-2.3 30.7-6.7 44.7-13.9 11.6-5.7 23.5-14.2 33.1-22.7 18.3-20.5 32.4-45.2 39.8-71.9 17-59.7-0.2-127.7-42.2-171.2-41.4-44.1-99.4-67.2-155.5-67.7-28 0.1-55.6 5.1-80.6 15z"/>
<path d="m421.5 39.9s4.9 4.8 14.1 13.9c8.9 9.2 21.4 24 34.2 44.8 12 21.2 24.4 48.9 30.2 83 5.9 33.8 6.5 74.2-6 115.7-3.2 10.3-6.4 20.9-11.2 31.1-4 10.6-9.9 20.5-15.6 30.7-12.3 19.9-27.2 39.4-45.8 56.1-3.9 4-9.3 8.1-14.7 12.2l-8 6.1-8.3 5.2c-5.6 3.5-11.1 7-17.2 9.7-6 2.9-11.9 6.1-18.3 8.2-25 10-52.6 14.9-80.6 14.7-56.1-0.5-114.2-23.5-155.5-67.7-41.7-43.5-58.8-111.6-41.9-171.2 8.3-29.9 24.9-57.2 46.5-79.1 10.2-10 24.6-20.6 38.3-27.4 14-7.3 29.3-11.6 44.7-14 30.9-4.9 62.7 1.2 89.7 15.3 13.4 7.3 25.6 16.5 36.2 27l7.2 8c2.3 2.8 4.9 6.5 7.2 9.7 4.3 6.6 7.9 13.2 10.8 20.2 11.7 28 12.3 59.6 2.3 86.7-4.9 13.6-12.2 26-21.3 36.7l-7.1 7.6-0.5 0.5-1 1-0.9 0.7-1.7 1.5-3.4 2.9c-2.9 2.2-6.2 4.6-9.2 6.6-3.1 1.7-6.1 3.6-9.2 5.1-25.3 12.3-54.6 12.6-78.6 2.6-12-4.9-22.7-12.3-31.3-21.1l-0.8-0.8-0.4-0.4s-1.9-2.1-1.2-1.4l-1.2-1.6-2.4-3.2c-1.6-2.2-3.2-3.9-4.8-6.6-1.6-3-3.2-5.9-4.7-8.9l-2.2-4.5c-0.5-1.5-0.9-2.9-1.3-4.4-7.2-23.3-2.9-48.1 9.4-65.9 3.2-4.3 6.9-8.2 10.3-12.1 0.4-0.4-0.5 0.4 1-1l0.3-0.3 0.7-0.5 1.4-1 2.7-2c1.8-1.3 3.4-2.7 6.2-4 2.5-1.2 5-2.5 7.5-3.7s4.9-1.5 7.3-2.2c4.8-1.6 9.7-1.7 14.5-2 19.5-0.5 36.3 9.2 46.5 22 1.1 1.5 2.2 2.8 3.2 4.4 0.9 1.9 1.9 3.8 2.8 5.7 2.1 3.7 2.3 7.5 3.4 11.1 0.4 3.7 0.7 7.3 0.5 10.8-0.6 3.5-0.5 6.9-1.9 10-3.7 12.5-12.5 22.1-21.1 26.2-9.4 4.6-18 4.2-24.5 2.7-12.9-4-16.7-10.8-17-10.3 0.1-0.5 5 5.8 17.4 8.1 6.1 0.8 14.3-0.1 21.4-4.7 1.8-0.8 3.6-2.6 5.4-4.3l1.4-1.3c0-0.1 0.6-0.9 0.9-1.2 0.7-1 1.4-2 2.1-3 2.9-4 4.9-8.9 6-14.2 0.9-2.6 0.4-5.5 0.7-8.2-0.1-2.8-0.7-5.7-1.2-8.5-1.2-2.6-1.6-5.9-3.3-8l-2.1-3.6c-1-1.3-2.3-2.6-3.5-4-8.6-8.7-22.3-15.6-36.6-13.8-3.5 0.5-7.1 0.8-10.5 2.3-1.7 0.7-3.6 1-5 1.9s-2.8 1.7-4.3 2.5c-2.5 1-7.4 6.1-9.1 7.5-2.2 3.2-4.8 6.3-6.9 9.6-8 13.8-9.8 31.7-3.8 47.5 0.4 1 0.6 2 1 3l1.4 2.4c1 1.6 1.8 3.3 2.7 5 1.1 1.8 3.3 3.9 4.9 5.9l2.6 3 1.3 1.5c0.9 1-0.8-0.9-0.5-0.6l0.3 0.3 0.7 0.5c6.7 6.1 14.8 10.8 23.5 13.8 17.4 6.1 37.9 4.9 54.8-4.3 2.1-1.1 4.1-2.5 6.1-3.7l5.2-4 3.3-3.1 1.6-1.5 0.8-0.8c0.3-0.3-0.9 0.8-0.3 0.2l0.3-0.4 5-5.8c6.2-8.1 11.1-17.3 14.2-27.2 6.1-19.7 5.4-42-3.5-61.4-2.1-4.8-4.9-9.5-7.8-13.7-1.6-1.9-2.6-3.6-4.5-5.9l-6-6.4c-8.2-7.7-17.4-14.2-27.4-19.4-20.2-9.7-43.6-13.8-66.3-10.1-11.2 1.9-22.4 5-32.6 10.5-10.5 5.6-18.3 11.1-27.8 20.2-16.6 17.2-29.2 38.4-35.5 61.5-13.3 46.2-1.1 98.6 32 133.5 16.1 17.1 36.5 32 58.1 41.9 21.8 10 45.3 15.4 68.8 16.3 46.9 1.8 92.7-14.9 125.7-42.6 34.1-28.8 57.3-65.5 70.6-102.4 3.5-9.2 5.5-18.6 8.1-27.7 1.4-9.3 3.7-18.3 4.4-27.3s2-17.8 1.5-26.3c0-4.3-0.1-8.5-0.1-12.7s-0.8-8.2-1.1-12.3c-3.2-32.3-12.3-59.8-21.9-81.4-10.7-21.1-20.6-36.9-28.7-47.1-7.9-9.8-12.2-15.1-12.2-15.1z" fill="#22D0FF"/>
<path class="blackHoleF" d="m437.5 399.1c11.4-12.6 21.3-26.2 29.8-40 5.7-10.3 11.5-20.2 15.6-30.7 4.8-10.2 8-20.8 11.2-31.1 9.6-32 11.4-63.3 9-91.5-0.3 3.8-0.7 7.5-1 11.4-0.7 9-3 18-4.4 27.3-2.6 9.1-4.6 18.5-8.1 27.7-12.5 34.6-33.9 69.1-64.7 97-7.3 8.2-15.2 16-23.9 23.3-33 27.7-78.8 44.5-125.7 42.6-23.4-0.9-47-6.3-68.8-16.3-21.6-9.8-42-24.7-58.1-41.9-33.1-34.9-45.3-87.3-32-133.5 6.3-23.1 18.9-44.3 35.5-61.5 3.3-3.2 6.4-5.8 9.4-8.2 2.7-3.3 5.5-6.6 8.5-9.7 9.5-9.1 17.3-14.6 27.8-20.2 10.1-5.4 21.3-8.6 32.6-10.5 22.6-3.7 46 0.4 66.3 10.1 10 5.2 19.2 11.7 27.4 19.4l6 6.4c1.8 2.2 2.9 3.9 4.5 5.9 2.9 4.2 5.7 8.9 7.8 13.7 8.8 19.3 9.6 41.7 3.5 61.4-3.1 9.9-7.9 19.1-14.2 27.2l-5 5.8-0.3 0.4c-0.6 0.6 0.5-0.4 0.3-0.2l-0.8 0.8-1.6 1.5-3.3 3.1-5.2 4c-0.1 0.1-0.2 0.1-0.3 0.2-0.5 0.8-1 1.6-1.6 2.3l-5 5.8-0.3 0.4c-0.6 0.6 0.5-0.4 0.3-0.2l-0.8 0.8-1.6 1.5-3.3 3.1-5.2 4c-2.1 1.2-4 2.6-6.1 3.7-16.9 9.2-37.4 10.4-54.8 4.3-8.8-3-16.8-7.7-23.5-13.8l-0.7-0.5-0.3-0.3c-0.3-0.3 1.4 1.6 0.5 0.6l-1.3-1.5-1.8-2.1 0.1 0.2 1.2 1.6c-0.7-0.7 1.2 1.4 1.2 1.4l0.4 0.4 0.8 0.8c8.7 8.8 19.4 16.1 31.4 21.1 24 10 53.2 9.6 78.6-2.6 3.2-1.5 6.2-3.4 9.2-5.1 2.7-1.8 5.5-3.8 8.1-5.8 8-10 14.6-21.5 19.1-33.9 10-27.1 9.4-58.7-2.3-86.7-2.9-7.1-6.5-13.6-10.8-20.2-2.3-3.2-4.9-6.9-7.2-9.7l-7.2-8c-10.6-10.5-22.8-19.7-36.2-27-27-14.1-58.8-20.3-89.7-15.3-15.4 2.4-30.7 6.7-44.7 14-10.2 5-20.7 12.2-29.6 19.6-17.1 20-30.3 43.5-37.3 69-17 59.7 0.2 127.7 42.2 171.2 41.3 44.2 99.4 67.2 155.5 67.7 28 0.3 55.6-4.7 80.6-14.7 6.4-2.1 12.3-5.3 18.3-8.2 6.1-2.7 11.6-6.2 17.2-9.7l8.3-5.2 8-6.1c4.3-3.9 8.8-7.4 12.5-10.8z"/>
<path class="blackHoleF" d="m292.7 260l-0.7 0.6c-1.9 1.7-3.6 3.5-5.4 4.3-1.6 1-3.3 1.8-5 2.5-0.8 1.7-1.7 3.3-2.7 4.8 3.2-0.5 6.5-1.4 10-3 1.4-2.6 2.6-5.4 3.5-8.4 0.1-0.3 0.2-0.6 0.3-0.8z"/>
<path class="blackHoleF" d="m202.7 236.4c2.1-3.3 4.7-6.4 6.9-9.6 1.8-1.4 6.6-6.5 9.1-7.5 0.8-0.4 1.5-0.8 2.2-1.3 2-3.1 4.5-6 6.6-9.1 1.8-1.4 6.6-6.5 9.1-7.5 1.4-0.8 2.9-1.6 4.3-2.5 1.2-0.8 2.9-1.2 4.4-1.7-2.4-0.3-4.9-0.4-7.4-0.3-4.8 0.3-9.7 0.4-14.5 2-2.4 0.7-4.9 1-7.3 2.2-2.5 1.2-5 2.4-7.5 3.7-1.9 0.9-3.2 1.8-4.5 2.8-0.1 0.1-0.2 0.2-0.2 0.3-12.3 17.8-16.6 42.6-9.4 65.9 0.4 1.5 0.8 2.9 1.3 4.4l2.2 4.5c0.5 1 1 1.9 1.5 2.9-0.2-0.5-0.3-1-0.5-1.5-6.2-16.1-4.3-34 3.7-47.7z"/>
<ellipse class="blackHoleG" transform="matrix(-.7087 -.7055 .7055 -.7087 -101.74 549.75)" cx="62.6" cy="295.9" rx="13.2" ry="1.2"/>
<ellipse class="blackHoleG" transform="matrix(.7087 -.7055 .7055 .7087 -190.49 130.41)" cx="62.7" cy="295.9" rx="13.2" ry="1.2"/>
<ellipse class="blackHoleG" cx="456.2" cy="188.4" rx=".5" ry="5.8"/>
<ellipse class="blackHoleG" cx="456.2" cy="188.4" rx="5.8" ry=".5"/>
<ellipse class="blackHoleG" cx="137.9" cy="119.5" rx=".5" ry="5.8"/>
<ellipse class="blackHoleG" cx="137.9" cy="119.5" rx="5.8" ry=".5"/>
<ellipse class="blackHoleG" transform="matrix(-.7101 -.7041 .7041 -.7101 491.36 507.3)" cx="350.1" cy="152.5" rx="17.5" ry="1.6"/>
<ellipse class="blackHoleG" transform="matrix(.7095 -.7047 .7047 .7095 -5.7187 291.02)" cx="350.1" cy="152.4" rx="17.5" ry="1.6"/>
<ellipse class="blackHoleG" cx="308.5" cy="404.4" rx="1.6" ry="17.5"/>
<ellipse class="blackHoleG" cx="308.5" cy="404.4" rx="17.5" ry="1.6"/>
<circle class="blackHoleG" cx="57" cy="165.4" r="3"/>
<circle class="blackHoleG" cx="391.6" cy="72.2" r="3"/>
<circle class="blackHoleG" cx="355.8" cy="236.2" r="5.4"/>
<circle class="blackHoleG" cx="207.5" cy="79.9" r="5.4"/>
<circle class="blackHoleG" cx="429.1" cy="343.1" r="4.2"/>
<path class="blackHoleG" d="m142.1 434.3c0 2.3-1.9 4.2-4.2 4.2-2.4 0-4.2-1.9-4.2-4.2s1.9-4.2 4.2-4.2 4.2 1.9 4.2 4.2z"/>
<path class="blackHoleG" d="m437 270.5c0 3.5-2.9 6.4-6.4 6.4-3.6 0-6.4-2.9-6.4-6.4s2.8-6.4 6.4-6.4 6.4 2.8 6.4 6.4z"/>
<circle class="blackHoleA" cx="252.1" cy="252.1" r="14.8"/>
<path d="m252.1 237.3c8.2 0 14.8 6.6 14.8 14.8s-6.6 14.8-14.8 14.8" fill="#00000A"/>
</svg>
