<?xml version="1.0" encoding="UTF-8"?>
<svg viewBox="0 0 512 512" xmlns="http://www.w3.org/2000/svg">
<style>.comet2A{fill:#FFF294;}.comet2B{fill:#FFCF00;}.comet2C{fill:#FF9300;}.comet2D{fill:#D49E6C;}</style>
<path class="comet2A" d="m296 208c4.4 0 8 3.6 8 8h17.7c6.6-12.4 16.9-23.6 31.6-32h-109.3c-6.6 0-12 5.4-12 12s5.4 12 12 12h52z"/>
<path class="comet2A" d="m327.6 305.9v-0.1c-0.4-0.5-0.8-1-1.1-1.5-0.1-0.1-0.1-0.2-0.2-0.2-0.4-0.5-0.7-1-1-1.5-0.1-0.1-0.1-0.2-0.2-0.3-0.3-0.5-0.7-1-1-1.5-0.1-0.1-0.1-0.2-0.2-0.3-0.3-0.5-0.6-1-0.9-1.5 0 0 0-0.1-0.1-0.1l-1.5-2.7h-17.4c0 4.4-3.6 8-8 8h-52c-6.6 0-12 5.4-12 12s5.4 12 12 12h109.8c-10.2-5.9-19.2-13.2-26.2-22.3z"/>
<path class="comet2A" d="m240.8 264h-76.8c-6.6 0-12 5.4-12 12s5.4 12 12 12h92c-7.7-5.8-13.2-14.2-15.2-24z"/>
<path class="comet2A" d="m256 224h-92c-6.6 0-12 5.4-12 12s5.4 12 12 12h76.8c2-9.8 7.5-18.2 15.2-24z"/>
<path d="m319.8 293.1c-0.2-0.4-0.4-0.8-0.6-1.3-0.1-0.3-0.3-0.6-0.4-0.9-0.2-0.4-0.3-0.8-0.5-1.2-0.1-0.3-0.3-0.7-0.4-1-0.2-0.4-0.3-0.8-0.5-1.2-0.1-0.4-0.3-0.7-0.4-1.1s-0.3-0.8-0.4-1.1c-0.1-0.4-0.3-0.8-0.4-1.2s-0.2-0.7-0.4-1.1c-0.1-0.4-0.3-0.9-0.4-1.3-0.1-0.3-0.2-0.7-0.3-1-0.2-0.6-0.3-1.1-0.4-1.7-0.1-0.2-0.1-0.5-0.2-0.7l-0.6-2.4c-0.1-0.3-0.1-0.6-0.2-0.9-0.1-0.5-0.2-1.1-0.3-1.6-0.1-0.3-0.1-0.7-0.2-1l-0.3-1.5c-0.1-0.4-0.1-0.7-0.2-1.1-0.1-0.5-0.1-1-0.2-1.6 0-0.4-0.1-0.7-0.1-1.1-0.1-0.5-0.1-1.1-0.2-1.6 0-0.4-0.1-0.7-0.1-1.1 0-0.6-0.1-1.1-0.1-1.7 0-0.4 0-0.7-0.1-1.1 0-0.6-0.1-1.2-0.1-1.9v-0.9-2.9c0-13.6 3-27.4 9.7-40h-17.5c0 4.4-3.6 8-8 8h-40c-7.7 5.8-13.2 14.2-15.2 24h31.2c4.4 0 8 3.6 8 8s-3.6 8-8 8h-31.2c2 9.8 7.5 18.2 15.2 24h40c4.4 0 8 3.6 8 8h17.3c-0.4-0.8-0.8-1.5-1.2-2.3-0.1-0.1-0.2-0.3-0.3-0.5z" fill="#FFF"/>
<path class="comet2B" d="M244 328h-36c-4.4 0-8 3.6-8 8s3.6 8 8 8h208c0.5 0 0.9 0 1.3-0.1 -22.4-0.8-45-5.6-63.5-15.9H244z"/>
<path class="comet2B" d="m417.3 168.1c-0.4-0.1-0.9-0.1-1.3-0.1h-208c-4.4 0-8 3.6-8 8s3.6 8 8 8h145.4c15.8-9.1 36.8-15 63.9-15.9z"/>
<path class="comet2C" d="m168 184h8c4.4 0 8-3.6 8-8s-3.6-8-8-8h-8c-4.4 0-8 3.6-8 8s3.6 8 8 8z"/>
<path class="comet2C" d="m176 328h-8c-4.4 0-8 3.6-8 8s3.6 8 8 8h8c4.4 0 8-3.6 8-8s-3.6-8-8-8z"/>
<path class="comet2B" d="m8 248c-4.4 0-8 3.6-8 8 0-4.4 3.6-8 8-8z"/>
<path class="comet2B" d="m0 256c0 4.4 3.6 8 8 8-4.4 0-8-3.6-8-8z"/>
<path class="comet2B" d="m272 264c4.4 0 8-3.6 8-8s-3.6-8-8-8h-192c4.4 0 8 3.6 8 8s-3.6 8-8 8h192z"/>
<path class="comet2C" d="m88 224h16c4.4 0 8-3.6 8-8s-3.6-8-8-8h-16c-4.4 0-8 3.6-8 8s3.6 8 8 8z"/>
<path class="comet2B" d="m296 224c4.4 0 8-3.6 8-8s-3.6-8-8-8h-160c-4.4 0-8 3.6-8 8s3.6 8 8 8h160z"/>
<path class="comet2C" d="m104 288h-16c-4.4 0-8 3.6-8 8s3.6 8 8 8h16c4.4 0 8-3.6 8-8s-3.6-8-8-8z"/>
<path class="comet2B" d="m296 304c4.4 0 8-3.6 8-8s-3.6-8-8-8h-160c-4.4 0-8 3.6-8 8s3.6 8 8 8h160z"/>
<path class="comet2D" d="m431.9 168.4c17.6 1.6 33.8 8.4 46.9 18.9-1.7-0.1-3.4-0.3-5.2-0.3-73.5 0-99.7 45.5-99.7 88 0 32.2 12.7 54.1 31.4 68-30.7-3.1-60.4-14.4-77.8-37.1 7 9.2 15.9 16.5 26.2 22.1 18.5 10.2 41.1 15.1 63.5 15.9 2.2 0.1 4.4 0.1 6.7 0.1 48.5 0 88-39.5 88-88 0.1-45.8-35.1-83.6-80-87.6z"/>
<path class="comet2D" d="m424 168c1.2 0 2.4 0 3.5 0.1-1.1-0.1-2.3-0.1-3.5-0.1z"/>
<path class="comet2D" d="m428.1 168.1c1.1 0.1 2.3 0.1 3.4 0.2-1.2-0.1-2.3-0.1-3.4-0.2z"/>
<path class="comet2D" d="m325.2 302.6c0.3 0.5 0.7 1 1 1.5-0.3-0.5-0.6-1-1-1.5z"/>
<path class="comet2D" d="m323.8 300.4c-0.3-0.5-0.6-1-0.9-1.5 0.3 0.5 0.6 1 0.9 1.5z"/>
<path class="comet2D" d="m325 302.2c-0.3-0.5-0.7-1-1-1.5 0.4 0.5 0.7 1 1 1.5z"/>
<path class="comet2D" d="m327.6 305.8c-0.4-0.5-0.8-1-1.1-1.5 0.3 0.5 0.7 1 1.1 1.5z"/>
<path class="comet2D" d="m319.2 291.8c0.2 0.4 0.4 0.8 0.6 1.3-0.2-0.4-0.4-0.9-0.6-1.3z"/>
<path class="comet2D" d="m312.2 261.7c0 0.4 0 0.7 0.1 1.1-0.1-0.4-0.1-0.8-0.1-1.1z"/>
<path class="comet2D" d="m318.3 289.7c0.2 0.4 0.3 0.8 0.5 1.2-0.1-0.4-0.3-0.8-0.5-1.2z"/>
<path class="comet2D" d="m320.1 293.7c0.4 0.8 0.8 1.6 1.2 2.3l1.5 2.7c-0.9-1.6-1.8-3.3-2.7-5z"/>
<path class="comet2D" d="m317.9 288.7c-0.2-0.4-0.3-0.8-0.5-1.2 0.2 0.5 0.4 0.9 0.5 1.2z"/>
<path class="comet2D" d="m312 258.9v0.9c0.1-0.3 0-0.6 0-0.9z"/>
<path class="comet2D" d="m312.9 269.8c0.1 0.4 0.1 0.7 0.2 1.1-0.1-0.4-0.1-0.8-0.2-1.1z"/>
<path class="comet2D" d="m312.6 267.1c0 0.4 0.1 0.7 0.1 1.1 0-0.4-0.1-0.7-0.1-1.1z"/>
<path class="comet2D" d="m313.4 272.4c0.1 0.3 0.1 0.7 0.2 1-0.1-0.3-0.2-0.7-0.2-1z"/>
<path class="comet2D" d="m312.3 264.4c0 0.4 0.1 0.7 0.1 1.1 0-0.4 0-0.7-0.1-1.1z"/>
<path class="comet2D" d="m314.6 278.3c0.1 0.2 0.1 0.5 0.2 0.7-0.1-0.2-0.2-0.4-0.2-0.7z"/>
<path class="comet2D" d="m313.9 275.1c0.1 0.3 0.1 0.6 0.2 0.9-0.1-0.3-0.2-0.6-0.2-0.9z"/>
<path class="comet2D" d="m316.7 285.4c0.1 0.4 0.3 0.8 0.4 1.1-0.2-0.4-0.3-0.8-0.4-1.1z"/>
<path class="comet2D" d="m315.2 280.7c0.1 0.3 0.2 0.7 0.3 1-0.1-0.3-0.2-0.6-0.3-1z"/>
<path class="comet2D" d="m315.9 283.1c0.1 0.4 0.2 0.7 0.4 1.1-0.2-0.4-0.3-0.7-0.4-1.1z"/>
<path class="comet2C" d="m88 256c0-4.4-3.6-8-8-8h-72c-4.4 0-8 3.6-8 8s3.6 8 8 8h72c4.4 0 8-3.6 8-8z"/>
<path d="m321.7 216c-6.7 12.6-9.7 26.4-9.7 40v2.9 0.9c0 0.6 0 1.3 0.1 1.9 0 0.4 0 0.7 0.1 1.1 0 0.6 0.1 1.1 0.1 1.7 0 0.4 0.1 0.7 0.1 1.1 0.1 0.5 0.1 1.1 0.2 1.6 0 0.4 0.1 0.7 0.1 1.1 0.1 0.5 0.1 1 0.2 1.6 0.1 0.4 0.1 0.7 0.2 1.1 0.1 0.5 0.2 1 0.3 1.6 0.1 0.3 0.1 0.7 0.2 1 0.1 0.6 0.2 1.1 0.3 1.6 0.1 0.3 0.1 0.6 0.2 0.9l0.6 2.4c0.1 0.2 0.1 0.5 0.2 0.7 0.1 0.6 0.3 1.1 0.4 1.7 0.1 0.3 0.2 0.7 0.3 1 0.1 0.4 0.3 0.9 0.4 1.3s0.2 0.7 0.4 1.1c0.1 0.4 0.3 0.8 0.4 1.2s0.3 0.8 0.4 1.1c0.1 0.4 0.3 0.7 0.4 1.1s0.3 0.8 0.5 1.2c0.1 0.3 0.3 0.7 0.4 1 0.2 0.4 0.3 0.8 0.5 1.2 0.1 0.3 0.3 0.6 0.4 0.9 0.2 0.4 0.4 0.8 0.6 1.3l0.3 0.6c0.8 1.7 1.8 3.4 2.7 5.1l0.1 0.1c0.3 0.5 0.6 1 0.9 1.5 0.1 0.1 0.1 0.2 0.2 0.3 0.3 0.5 0.6 1 1 1.5 0.1 0.1 0.1 0.2 0.2 0.3 0.3 0.5 0.7 1 1 1.5 0.1 0.1 0.1 0.2 0.2 0.2 0.4 0.5 0.8 1 1.1 1.6v0.1c17.4 22.8 47 34 77.8 37.1-18.8-14.1-31.5-36-31.5-68.2 0-42.5 26.2-88 99.7-88 1.7 0 3.4 0.2 5.2 0.3-13.1-10.5-29.3-17.3-46.9-18.9h-0.5c-1.1-0.1-2.3-0.2-3.4-0.2h-0.5c-1.2-0.2-2.4-0.2-3.6-0.2-2.3 0-4.5 0-6.7 0.1-27 0.8-48 6.8-63.9 15.9-14.7 8.4-25 19.6-31.7 32z" fill="#B68052"/>
</svg>
