<?xml version="1.0" encoding="UTF-8"?>
<svg viewBox="0 0 512 512" xmlns="http://www.w3.org/2000/svg">
<style>.cometA{fill:#FFF294;}.cometB{fill:#FFF;}.cometC{fill:#FF9300;}.cometD{fill:#FFCF00;}.cometE{fill:#D49E6C;}.cometF{fill:#B68052;}</style>
<path class="cometA" d="m403.3 206.6l-84.1-84.1c-2.4 4.3-3.5 9.1-3.4 13.9l84.1 84.1c-0.1-4.8 1-9.6 3.4-13.9z"/>
<path class="cometA" d="m428.5 191.8l-84.1-84.1c-4.8-0.1-9.6 1.1-13.9 3.4l84.1 84.1c4.3-2.3 9.1-3.4 13.9-3.4z"/>
<path class="cometB" d="m399.8 220.5l32.4 32.4c-0.3-9.4 1.8-18.3 7.6-24.1 4.9-4.9 11.5-6.9 18.7-6.9l-30-30c-4.8-0.1-9.6 1.1-13.9 3.4l11.1 11.1c3.1 3.1 3.1 8.2 0 11.3-1.6 1.6-3.6 2.3-5.7 2.3s-4.1-0.8-5.7-2.3l-11.1-11.1c-2.3 4.3-3.4 9.1-3.4 13.9z"/>
<path class="cometA" d="m220.5 399.8l-84.1-84.1c-4.8-0.1-9.6 1.1-13.9 3.4l84.1 84.1c4.3-2.3 9.1-3.4 13.9-3.4z"/>
<path class="cometA" d="m195.3 414.6l-84.1-84.1c-2.4 4.3-3.5 9.1-3.4 13.9l84.1 84.1c-0.1-4.8 1-9.6 3.4-13.9z"/>
<path class="cometB" d="m206.6 403.3l11.1 11.1c3.1 3.1 3.1 8.2 0 11.3-1.6 1.6-3.6 2.3-5.7 2.3s-4.1-0.8-5.7-2.3l-11.1-11.1c-2.4 4.3-3.5 9.1-3.4 13.9l32.4 32.4c-0.3-9.4 1.8-18.3 7.6-24.1 4.9-4.9 11.5-6.9 18.7-6.9l-30-30c-4.8-0.1-9.6 1-13.9 3.4z"/>
<path class="cometA" d="m229.7 298.4l147.3 147.3c-2.8-10.7-4-21.6-2.9-31.6l-8.5-8.5c-1.6 1.6-3.6 2.3-5.7 2.3s-4.1-0.8-5.7-2.3l-123.3-123.3-9 9c-1.6 1.6-2.3 3.8-2 5.9 3.1-1.9 7.1-1.5 9.8 1.2z"/>
<path class="cometA" d="m405.7 365.7l8.5 8.5c10-1.1 20.9 0.1 31.6 2.9l-147.4-147.4c-2.6-2.6-3-6.6-1.2-9.7-2.1-0.3-4.3 0.4-5.9 2l-9 9 123.4 123.4c3.1 3.1 3.1 8.1 0 11.3z"/>
<path class="cometA" d="m346.7 335.4c4.3-2.4 9.1-3.5 13.9-3.4l-142.3-142.4c-3.1-3.1-3.1-8.2 0-11.3l-12.7-12.7c-1.6 1.6-3.6 2.3-5.7 2.3s-4.1-0.8-5.7-2.3l-13.9-13.9c-4.8-0.1-9.6 1.1-13.9 3.4l180.3 180.3z"/>
<path class="cometA" d="M331.9 360.6c-0.1-4.8 1.1-9.6 3.4-13.9L155.2 166.5c-2.4 4.3-3.5 9.1-3.4 13.9L331.9 360.6z"/>
<path class="cometB" d="m414.1 374.1l-8.5-8.5c-1.6 1.6-3.6 2.3-5.7 2.3s-4.1-0.8-5.7-2.3l-33.7-33.7c-4.8-0.1-9.6 1.1-13.9 3.4l27 27c3.1 3.1 3.1 8.2 0 11.3-1.6 1.6-3.6 2.3-5.7 2.3s-4.1-0.8-5.7-2.3l-27-27c-2.4 4.3-3.5 9.1-3.4 13.9l33.7 33.7c3.1 3.1 3.1 8.2 0 11.3l8.5 8.5c1.2-10.8 5-20.5 12.2-27.8 7.4-7.1 17.1-10.9 27.9-12.1z"/>
<path class="cometC" d="m58.3 69.7c1.6 1.5 3.7 2.3 5.7 2.3s4.1-0.8 5.7-2.3c3.1-3.1 3.1-8.2 0-11.3l-56-56c-3.1-3.1-8.2-3.1-11.3 0s-3.1 8.2 0 11.3l55.9 56z"/>
<path class="cometD" d="m335.4 346.7l27 27c1.6 1.6 3.6 2.3 5.7 2.3s4.1-0.8 5.7-2.3c3.1-3.1 3.1-8.2 0-11.3l-27-27-180.3-180.2-72.9-72.9c-3.1-3.1-8.2-3.1-11.3 0s-3.1 8.2 0 11.3l72.8 72.8 180.3 180.3z"/>
<path class="cometC" d="m200 168c2 0 4.1-0.8 5.7-2.3 3.1-3.1 3.1-8.2 0-11.3l-16-16c-3.1-3.1-8.2-3.1-11.3 0s-3.1 8.2 0 11.3l2.1 2.1 13.9 13.9c1.5 1.5 3.6 2.3 5.6 2.3z"/>
<path class="cometD" d="m218.3 189.6l142.3 142.3 33.7 33.7c1.6 1.6 3.6 2.3 5.7 2.3s4.1-0.8 5.7-2.3c3.1-3.1 3.1-8.2 0-11.3l-123.4-123.4-52.6-52.6c-3.1-3.1-8.2-3.1-11.3 0-3.2 3.2-3.2 8.2-0.1 11.3z"/>
<path class="cometC" d="m274.4 205.7c1.6 1.6 3.6 2.3 5.7 2.3s4.1-0.8 5.7-2.3c3.1-3.1 3.1-8.2 0-11.3l-8-8c-3.1-3.1-8.2-3.1-11.3 0s-3.1 8.2 0 11.3l7.9 8z"/>
<path class="cometD" d="m298.4 229.7l147.3 147.3c18.6 4.9 36.5 14.6 47.5 25.7 0.7 0.7 1.5 1.5 2.2 2.3-0.4-1-1-1.9-1.8-2.7l-183.9-183.9c-3.1-3.1-8.2-3.1-11.3 0-0.5 0.5-0.9 1-1.2 1.6-1.9 3-1.5 7 1.2 9.7z"/>
<path class="cometC" d="m200 288c2 0 4.1-0.8 5.7-2.3 3.1-3.1 3.1-8.2 0-11.3l-8-8c-3.1-3.1-8.2-3.1-11.3 0s-3.1 8.2 0 11.3l8 8c1.5 1.5 3.6 2.3 5.6 2.3z"/>
<path class="cometD" d="m402.7 493.3c-11.1-11.1-20.8-28.9-25.7-47.5l-147.3-147.4c-2.6-2.6-6.6-3-9.7-1.2-0.6 0.3-1.1 0.7-1.6 1.2-3.1 3.1-3.1 8.2 0 11.3l184 184c0.8 0.8 1.7 1.4 2.7 1.8-0.2-0.1-0.3-0.3-0.5-0.4-0.7-0.7-1.3-1.2-1.9-1.8z"/>
<path class="cometC" d="m85.7 114.3c-3.1-3.1-8.2-3.1-11.3 0s-3.1 8.2 0 11.3l16 16c1.6 1.6 3.6 2.3 5.7 2.3s4.1-0.8 5.7-2.3c3.1-3.1 3.1-8.2 0-11.3l-16.1-16z"/>
<path class="cometD" d="m360 408c2 0 4.1-0.8 5.7-2.3 3.1-3.1 3.1-8.2 0-11.3l-33.7-33.7-180.3-180.3-26.1-26.1c-3.1-3.1-8.2-3.1-11.3 0s-3.1 8.2 0 11.3l116.6 116.6 123.4 123.4c1.6 1.6 3.7 2.4 5.7 2.4z"/>
<path class="cometC" d="m246.4 49.7c1.6 1.6 3.6 2.3 5.7 2.3s4.1-0.8 5.7-2.3c3.1-3.1 3.1-8.2 0-11.3l-36.1-36.1c-3.1-3.1-8.2-3.1-11.3 0s-3.1 8.2 0 11.3l36 36.1z"/>
<path class="cometD" d="m319.2 122.5l84.1 84.1 11.1 11.1c1.6 1.6 3.6 2.3 5.7 2.3s4.1-0.8 5.7-2.3c3.1-3.1 3.1-8.2 0-11.3l-11.1-11.1-84.1-84.1-48.8-48.8c-3.1-3.1-8.2-3.1-11.3 0s-3.1 8.2 0 11.3l48.7 48.8z"/>
<path class="cometC" d="m310.3 73.6c1.6 1.6 3.6 2.3 5.7 2.3s4.1-0.8 5.7-2.3c3.1-3.1 3.1-8.2 0-11.3l-40-40c-3.1-3.1-8.2-3.1-11.3 0s-3.1 8.2 0 11.3l39.9 40z"/>
<path class="cometD" d="m458.5 221.9c14.1-0.1 30.2 7.6 39.1 16.5l-151.9-152c-3.1-3.1-8.2-3.1-11.3 0s-3.1 8.2 0 11.3l10.1 10.1 84.1 84.1 29.9 30z"/>
<path class="cometC" d="m276 116c2 0 4.1-0.8 5.7-2.3 3.1-3.1 3.1-8.2 0-11.3l-36-36c-3.1-3.1-8.2-3.1-11.3 0s-3.1 8.2 0 11.3l36 36c1.5 1.5 3.6 2.3 5.6 2.3z"/>
<path class="cometD" d="m432.3 252.9l-32.4-32.4-84.1-84.1-10.1-10.1c-3.1-3.1-8.2-3.1-11.3 0s-3.1 8.2 0 11.3l148 148c0.5 0.5 1 0.9 1.5 1.2-6.4-8.1-11.2-21.4-11.6-33.9z"/>
<path class="cometC" d="m44 260c2 0 4.1-0.8 5.7-2.3 3.1-3.1 3.1-8.2 0-11.3l-36-36c-3.1-3.1-8.2-3.1-11.3 0s-3.1 8.2 0 11.3l36 36c1.5 1.5 3.6 2.3 5.6 2.3z"/>
<path class="cometD" d="m206.3 425.7c1.6 1.6 3.6 2.3 5.7 2.3s4.1-0.8 5.7-2.3c3.1-3.1 3.1-8.2 0-11.3l-11.1-11.1-84.1-84.1-48.8-48.8c-3.1-3.1-8.2-3.1-11.3 0s-3.1 8.2 0 11.3l48.8 48.8 84.1 84.1 11 11.1z"/>
<path class="cometC" d="m62.3 230.3c-3.1 3.1-3.1 8.2 0 11.3l40 40c1.6 1.6 3.6 2.3 5.7 2.3s4.1-0.8 5.7-2.3c3.1-3.1 3.1-8.2 0-11.3l-40-40c-3.2-3.1-8.2-3.1-11.4 0z"/>
<path class="cometD" d="m250.5 429.9c14.1-0.1 30.2 7.6 39.1 16.5l-151.9-152c-3.1-3.1-8.2-3.1-11.3 0s-3.1 8.2 0 11.3l10.1 10.1 84.1 84.1 29.9 30z"/>
<path class="cometC" d="m37.7 274.3c-3.1-3.1-8.2-3.1-11.3 0s-3.1 8.2 0 11.3l36 36c1.6 1.6 3.6 2.3 5.7 2.3s4.1-0.8 5.7-2.3c3.1-3.1 3.1-8.2 0-11.3l-36.1-36z"/>
<path class="cometD" d="m224.3 460.9l-32.4-32.4-84.1-84.1-10.1-10.1c-3.1-3.1-8.2-3.1-11.3 0s-3.1 8.2 0 11.3l148 148c0.5 0.5 1 0.9 1.5 1.2-6.4-8.1-11.2-21.4-11.6-33.9z"/>
<path class="cometE" d="m495.4 405c-0.7-0.8-1.4-1.5-2.2-2.3 2.9 2.9 5.4 6 7.6 9.3-9.7-7-20.9-11-32.4-11.8-16.3-1.2-33.1 3.9-46.4 15.6-24.3 21.3-28.8 57.1-12.1 83.7-1.9-1.4-3.7-2.8-5.4-4.4 0.2 0.1 0.3 0.3 0.5 0.4 12.2 11 27.6 16.5 43 16.5 16.4 0 32.8-6.2 45.3-18.7 24.2-24.2 24.9-63.2 2.1-88.3z"/>
<path class="cometF" d="m445.7 377c-10.7-2.8-21.6-4-31.6-2.9-10.8 1.2-20.5 5-27.8 12.2-7.3 7.3-11.1 17-12.2 27.8-1.1 10 0.1 20.9 2.9 31.6 4.9 18.6 14.6 36.5 25.7 47.5 0.6 0.6 1.2 1.2 1.8 1.7 1.7 1.6 3.6 3 5.4 4.4-16.7-26.6-12.2-62.4 12.1-83.7 13.3-11.7 30.1-16.8 46.4-15.6 11.5 0.8 22.7 4.9 32.4 11.9-2.2-3.3-4.7-6.4-7.6-9.3-11-10.9-28.9-20.7-47.5-25.6z"/>
<path class="cometE" d="m497.8 246.2c-9.1-4.8-19.7-6.7-29.4-4.3-19.4 4.8-30.3 25.4-23.4 44.2 0.5 1.2 1 2.5 1.6 3.8-0.1-0.1-0.2-0.1-0.2-0.2 6.8 6.8 16.2 10.3 25.7 10.3s18.8-3.4 25.7-10.2c13.2-13.2 13.7-36 1.4-49.8 3.1 3.5 5.3 7.6 6.7 11.9-2.6-2.3-5.3-4.2-8.1-5.7z"/>
<path class="cometE" d="m497.7 238.3c0.5 0.5 0.9 1 1.4 1.5-0.5-0.5-1-1-1.4-1.5z"/>
<path class="cometF" d="m458.5 221.9c-7.2 0-13.8 2.1-18.7 6.9-5.8 5.8-8 14.7-7.6 24.2 0.4 12.5 5.2 25.8 11.6 33.9 0.8 1 1.6 2 2.5 2.8 0.1 0.1 0.2 0.1 0.2 0.2-0.6-1.3-1.1-2.5-1.6-3.8-7-18.7 3.9-39.4 23.4-44.2 9.7-2.4 20.3-0.5 29.4 4.3 2.9 1.5 5.5 3.4 8 5.5-1.5-4.3-3.7-8.4-6.7-11.9-0.4-0.5-0.9-1-1.4-1.5-8.8-8.8-25-16.5-39.1-16.4z"/>
<path class="cometE" d="m297.8 459.7c-2.5-2.1-5.1-4-8-5.5-9.1-4.8-19.7-6.7-29.4-4.3-19.4 4.8-30.3 25.4-23.4 44.2 0.5 1.2 1 2.5 1.6 3.8-0.1-0.1-0.2-0.1-0.2-0.2 6.8 6.8 16.2 10.3 25.7 10.3 9.4 0 18.8-3.4 25.7-10.2 13.2-13.2 13.7-36 1.4-49.8 2.9 3.3 5.1 7.4 6.6 11.7z"/>
<path class="cometE" d="m291 447.8c-0.4-0.5-0.9-1-1.4-1.4 0.5 0.4 1 0.9 1.4 1.4z"/>
<path class="cometF" d="m237 494.1c-7-18.7 3.9-39.4 23.4-44.2 9.7-2.4 20.3-0.5 29.4 4.3 2.9 1.5 5.5 3.4 8 5.5-1.5-4.3-3.7-8.4-6.7-11.9-0.4-0.5-0.9-1-1.4-1.5-8.9-8.9-25-16.6-39.1-16.5-7.2 0-13.8 2.1-18.7 6.9-5.8 5.8-8 14.7-7.6 24.1 0.4 12.5 5.2 25.8 11.6 33.9 0.8 1 1.6 2 2.5 2.8 0.1 0.1 0.2 0.1 0.2 0.2-0.6-1.1-1.2-2.4-1.6-3.6z"/>
</svg>
