<?xml version="1.0" encoding="UTF-8"?>
<svg enable-background="new 0 0 512 512" version="1.1" viewBox="0 0 512 512" xml:space="preserve" xmlns="http://www.w3.org/2000/svg">
<polygon points="512 245.56 371.07 208.06 442.55 82.405 310.18 143.14 283.14 1.508 221.27 132.05 108.36 40.717 145.95 179.98 0 181.69 119.45 264.51 8.756 358.46 154.17 346.09 130.53 488.31 233.88 386.54 308.35 510.49 321.27 366.93 459 414.62 375.45 296.45" fill="#EB874B"/>
<polygon points="421.16 249.26 330.24 225.07 376.35 144 290.96 183.18 273.51 91.811 233.6 176.03 160.75 117.11 185 206.96 90.839 208.06 167.9 261.49 96.488 322.1 190.3 314.12 175.05 405.88 241.73 340.22 289.77 420.19 298.11 327.57 386.97 358.34 333.06 282.1" fill="#FFC850"/>
<polygon points="357.16 251.87 301.47 237.06 329.72 187.4 277.41 211.4 266.72 155.43 242.28 207.02 197.66 170.93 212.51 225.96 154.84 226.63 202.04 259.36 158.3 296.49 215.76 291.6 206.42 347.8 247.26 307.58 276.68 356.57 281.79 299.84 336.22 318.68 303.2 271.98" fill="#FFDC64"/>
<polygon points="296.26 254.36 274.1 248.46 285.34 228.7 264.52 238.25 260.27 215.98 250.54 236.51 232.78 222.14 238.69 244.05 215.74 244.31 234.53 257.34 217.12 272.11 239.99 270.17 236.27 292.53 252.52 276.53 264.23 296.02 266.26 273.44 287.92 280.94 274.78 262.36" fill="#FFF082"/>
</svg>
