<?xml version="1.0" encoding="UTF-8"?>
<svg viewBox="0 0 501.8 501.8" xmlns="http://www.w3.org/2000/svg">
<style>.galaxyA{fill:none;}.galaxyB{fill:#5C546A;}</style>
<path class="galaxyA" d="m294.5 367.7c-0.7 0.6-1.3 1.1-2 1.7 0.7-0.6 1.3-1.2 2-1.7z"/>
<path class="galaxyA" d="m300.4 362.6c-0.6 0.5-1.2 1-1.7 1.5 0.6-0.5 1.1-1 1.7-1.5z"/>
<path class="galaxyA" d="m288.3 372.9c-0.6 0.5-1.2 1-1.7 1.5 0.6-0.6 1.2-1.1 1.7-1.5z"/>
<path class="galaxyA" d="m249.2 402.6c-0.5 0.4-1.1 0.7-1.6 1.1 0.5-0.4 1-0.7 1.6-1.1z"/>
<path class="galaxyA" d="m313.9 350.5c-0.6 0.5-1.2 1.1-1.8 1.6 0.6-0.5 1.2-1.1 1.8-1.6z"/>
<path class="galaxyA" d="m262.7 393c-0.6 0.4-1.1 0.8-1.7 1.3 0.5-0.5 1.1-0.9 1.7-1.3z"/>
<path class="galaxyA" d="m268.9 388.3c-0.6 0.5-1.3 1-1.9 1.5 0.6-0.5 1.2-1 1.9-1.5z"/>
<path class="galaxyA" d="m442.6 175.6l-1.5 3.6 1.5-3.6z"/>
<path class="galaxyA" d="m437.6 54.4c0.1 0.1 0.2 0.1 0.2 0.2 0-0.1-0.1-0.2-0.2-0.2z"/>
<path class="galaxyA" d="m439.7 56.1c0.7 0.6 1.4 1.3 2 1.9-0.6-0.6-1.3-1.3-2-1.9z"/>
<path class="galaxyA" d="m243.3 406.6c-0.6 0.4-1.3 0.8-1.9 1.3 0.6-0.4 1.2-0.8 1.9-1.3z"/>
<path class="galaxyA" d="m325.8 339.2c-0.6 0.6-1.2 1.1-1.8 1.7 0.6-0.6 1.2-1.2 1.8-1.7z"/>
<path class="galaxyA" d="m319.9 344.8c-0.7 0.6-1.3 1.3-2 1.9 0.7-0.7 1.4-1.3 2-1.9z"/>
<path class="galaxyA" d="m274.8 383.8c-0.6 0.4-1.1 0.9-1.7 1.3 0.6-0.5 1.1-0.9 1.7-1.3z"/>
<path class="galaxyA" d="m43.2 362.5c-0.1 0.3-0.1 0.5-0.2 0.8 0.1-0.3 0.2-0.6 0.2-0.8z"/>
<path class="galaxyA" d="m42.3 366.5c0 0.1-0.1 0.3-0.1 0.4 0.1-0.1 0.1-0.2 0.1-0.4z"/>
<path class="galaxyA" d="m47.4 347.3v-0.1 0.1z"/>
<path class="galaxyA" d="m44.3 358.4c-0.1 0.3-0.2 0.7-0.3 1 0.1-0.4 0.2-0.7 0.3-1z"/>
<path class="galaxyA" d="m45.3 354.4c-0.1 0.3-0.2 0.7-0.3 1 0.1-0.4 0.2-0.7 0.3-1z"/>
<path class="galaxyA" d="m48.8 343.2c-0.4 1.2-0.8 2.4-1.2 3.5 0.4-1.1 0.8-2.3 1.2-3.5z"/>
<path class="galaxyA" d="m237.1 410.7c-0.5 0.4-1.1 0.7-1.6 1.1 0.5-0.4 1.1-0.8 1.6-1.1z"/>
<path class="galaxyA" d="m448.8 159.1c14.8-43.8 13.6-80.4-7-101.1 20.6 20.7 21.8 57.3 7 101.1z"/>
<path class="galaxyB" d="m477.7 22c-56.7-56.7-205.1-0.2-331.5 126.2 155.5-122 240.2-116.1 274.6-103 6.3 2.2 11.9 5.2 16.8 9.2 0.1 0.1 0.2 0.1 0.2 0.2l1.8 1.5c0.7 0.6 1.4 1.3 2 1.9 20.7 20.7 21.9 57.3 7 101.1-1.8 5.4-3.9 10.9-6.2 16.4l-1.5 3.6c-20.6 48.4-58.5 103.3-109.6 154.3l-5.7 5.7c-0.6 0.6-1.2 1.1-1.8 1.7-1.4 1.3-2.7 2.6-4.1 3.9-0.7 0.6-1.3 1.3-2 1.9-1.4 1.3-2.7 2.6-4.1 3.8-0.6 0.5-1.2 1.1-1.8 1.6-3.9 3.6-7.8 7.1-11.7 10.5-0.6 0.5-1.2 1-1.7 1.5l-4.2 3.6c-0.7 0.6-1.3 1.1-2 1.7-1.4 1.2-2.8 2.3-4.2 3.5-0.6 0.5-1.2 1-1.7 1.5-3.9 3.2-7.9 6.4-11.8 9.4-0.6 0.4-1.1 0.9-1.7 1.3-1.4 1.1-2.8 2.2-4.3 3.3-0.6 0.5-1.3 1-1.9 1.5-1.4 1.1-2.8 2.1-4.2 3.2-0.6 0.4-1.1 0.8-1.7 1.3-3.9 2.9-7.9 5.7-11.8 8.4-0.5 0.4-1.1 0.7-1.6 1.1-1.4 1-2.9 2-4.3 2.9-0.6 0.4-1.3 0.8-1.9 1.3-1.4 0.9-2.8 1.9-4.3 2.8-0.5 0.4-1.1 0.7-1.6 1.1-1.9 1.2-3.9 2.5-5.8 3.7 94.9-57.2 214.7-151 258.4-267.5 18.1-54.2 16.1-99.9-10.1-126.1z"/>
<path class="galaxyB" d="m42.2 367c0-0.1 0.1-0.3 0.1-0.4 0.2-1.1 0.5-2.2 0.7-3.3 0.1-0.3 0.1-0.5 0.2-0.8 0.2-1 0.5-2.1 0.8-3.1 0.1-0.3 0.2-0.7 0.3-1 0.3-1 0.5-2 0.8-3 0.1-0.3 0.2-0.6 0.3-1 0.7-2.3 1.4-4.7 2.1-7.1 0.1-0.2 0.1-0.3 0.2-0.5 0.4-1.2 0.7-2.4 1.2-3.5 17.8-53 59-116.5 117.5-175 39.7-39.7 81.8-71.5 121.3-93.4-252 136.9-323.8 348.7-267.7 404.9 47.5 47.5 159.2 15.5 268.5-70.3-185 94.5-232.6 54.1-245 14.4-5.6-15.5-5.9-34.9-1.3-56.9z"/>
<path d="m237.1 410.7c1.4-0.9 2.8-1.8 4.3-2.8 0.6-0.4 1.3-0.8 1.9-1.3 1.4-1 2.9-1.9 4.3-2.9 0.5-0.4 1.1-0.7 1.6-1.1 3.9-2.7 7.9-5.5 11.8-8.4 0.6-0.4 1.1-0.8 1.7-1.3 1.4-1 2.8-2.1 4.2-3.2 0.6-0.5 1.3-1 1.9-1.5 1.4-1.1 2.8-2.2 4.3-3.3 0.6-0.4 1.1-0.9 1.7-1.3 3.9-3.1 7.9-6.2 11.8-9.4l1.8-1.5c1.4-1.2 2.8-2.3 4.2-3.5 0.7-0.6 1.3-1.1 2-1.7l4.2-3.6c0.6-0.5 1.2-1 1.7-1.5 3.9-3.4 7.8-6.9 11.7-10.5 0.6-0.5 1.2-1.1 1.8-1.6 1.4-1.3 2.7-2.5 4.1-3.8 0.7-0.6 1.3-1.2 2-1.9 1.4-1.3 2.7-2.6 4.1-3.9 0.6-0.6 1.2-1.1 1.8-1.7l5.7-5.7c51.1-51 89-106 109.6-154.3l1.5-3.6c2.3-5.6 4.4-11.1 6.2-16.4 14.8-43.8 13.6-80.4-7-101.1-0.7-0.7-1.3-1.3-2-1.9l-1.8-1.5c-0.1-0.1-0.2-0.1-0.2-0.2-4.9-4-10.6-7-16.8-9.2-31.9-11.1-80.3 0.4-133.3 29.7-39.5 21.9-81.6 53.6-121.3 93.4-58.8 58.5-100.1 122-117.8 175-0.4 1.2-0.8 2.4-1.2 3.5-0.1 0.2-0.1 0.3-0.2 0.5v0.1c-0.8 2.4-1.4 4.8-2.1 7.1-0.1 0.3-0.2 0.7-0.3 1-0.3 1-0.5 2-0.8 3-0.1 0.3-0.2 0.7-0.3 1-0.3 1-0.5 2.1-0.8 3.1-0.1 0.3-0.1 0.5-0.2 0.8-0.3 1.1-0.5 2.2-0.7 3.3 0 0.1-0.1 0.3-0.1 0.4-4.6 22-4.4 41.4 1.3 56.9 2.8 7.6 6.9 14.3 12.5 19.9 31.4 31.4 99.5 17.8 173.7-28.3 1.9-1.2 3.9-2.4 5.8-3.7 0.6-0.4 1.2-0.8 1.7-1.1zm-145.1-2.9c-32.4-32.4 11.6-128.9 98.2-215.5s183.1-130.7 215.5-98.3-11.6 128.9-98.2 215.5-183.1 130.6-215.5 98.3z" fill="#74749B"/>
<path d="m405.7 94c-32.4-32.4-128.9 11.6-215.5 98.2s-130.6 183.2-98.2 215.6 128.9-11.6 215.5-98.2c86.6-86.7 130.6-183.2 98.2-215.6zm-267.4 267.5c-20.4-20.4 12.6-86.4 73.7-147.4s127.1-94.1 147.4-73.7c20.4 20.4-12.6 86.4-73.7 147.4-61 61-127 94-147.4 73.7z" fill="#FFB293"/>
<path d="m359.4 140.3c-20.4-20.4-86.4 12.6-147.4 73.7s-94.1 127.1-73.7 147.4c20.4 20.4 86.4-12.6 147.4-73.7 61.1-61 94.1-127 73.7-147.4zm-95.8 125.3c-32.6 32.6-65.6 52.4-73.7 44.2-8.1-8.1-0.4-53.2 32.2-85.7 32.6-32.6 77.6-40.4 85.7-32.2 8.2 8.2-11.6 41.2-44.2 73.7z" fill="#FFF2AA"/>
<path d="m222.1 224.1c-32.6 32.6-40.4 77.6-32.2 85.7 8.1 8.1 41.1-11.7 73.7-44.2 32.6-32.6 52.4-65.6 44.2-73.7-8.1-8.1-53.1-0.3-85.7 32.2z" fill="#FFF"/>
</svg>
