<?xml version="1.0" encoding="UTF-8"?>
<svg viewBox="0 0 480 480" xmlns="http://www.w3.org/2000/svg">
<style>.jupiterA{fill:#FFD042;}.jupiterB{fill:#FF9300;}.jupiterC{fill:#FF7400;}.jupiterD{fill:#FFEDB9;}.jupiterE{fill:#D55A00;}</style>
<path class="jupiterA" d="m412.7 73.3c0.8 0.8 1.6 1.6 2.4 2.5-0.9-0.8-1.6-1.7-2.4-2.5z"/>
<path class="jupiterA" d="m423 84.8c1.5 1.7 2.9 3.4 4.3 5.2-1.4-1.8-2.8-3.5-4.3-5.2z"/>
<path class="jupiterA" d="m415.6 76.5c1.5 1.6 3 3.2 4.4 4.8-1.4-1.6-2.9-3.2-4.4-4.8z"/>
<path class="jupiterA" d="m382.1 46.6c0.8 0.6 1.5 1.1 2.3 1.7-0.8-0.6-1.5-1.1-2.3-1.7z"/>
<path class="jupiterA" d="m404.6 65.4c0.8 0.8 1.6 1.5 2.4 2.3-0.8-0.8-1.6-1.6-2.4-2.3z"/>
<path class="jupiterA" d="m386.1 49.6c1.2 0.9 2.4 1.9 3.6 2.8-1.2-0.9-2.4-1.9-3.6-2.8z"/>
<path class="jupiterA" d="m427.6 90.4c0.7 0.9 1.5 1.9 2.2 2.8-0.7-0.9-1.4-1.9-2.2-2.8z"/>
<path class="jupiterA" d="m391.1 53.5c1.7 1.4 3.3 2.7 5 4.2-1.7-1.4-3.3-2.8-5-4.2z"/>
<path class="jupiterA" d="m399.6 60.8c1.6 1.4 3.1 2.8 4.7 4.3-1.5-1.5-3.1-2.9-4.7-4.3z"/>
<path class="jupiterA" d="m396.2 57.8l2.4 2.1c-0.9-0.8-1.6-1.4-2.4-2.1z"/>
<path class="jupiterA" d="m420.3 81.7c0.8 0.9 1.5 1.8 2.3 2.7-0.7-1-1.5-1.9-2.3-2.7z"/>
<path class="jupiterA" d="m279.8 476.7c-3.8 0.6-7.6 1.2-11.5 1.6 3.8-0.4 7.7-1 11.5-1.6z"/>
<path class="jupiterA" d="m265.3 478.7c-0.9 0.1-1.7 0.2-2.6 0.2 0.9-0.1 1.8-0.1 2.6-0.2z"/>
<path class="jupiterA" d="m285.1 475.7c-1.3 0.2-2.6 0.5-3.9 0.7 1.4-0.2 2.7-0.4 3.9-0.7z"/>
<path class="jupiterA" d="m259.6 479.2c-0.8 0.1-1.6 0.1-2.5 0.2 0.9-0.1 1.7-0.1 2.5-0.2z"/>
<path class="jupiterA" d="m253.8 479.6c-0.8 0-1.5 0.1-2.3 0.1 0.7 0 1.5-0.1 2.3-0.1z"/>
<path class="jupiterA" d="m290.5 474.6c-1.4 0.3-2.7 0.6-4.1 0.8 1.4-0.2 2.8-0.5 4.1-0.8z"/>
<path class="jupiterA" d="m479.1 219.7c0.1 0.8 0.1 1.5 0.2 2.3 0-0.7-0.1-1.5-0.2-2.3z"/>
<path class="jupiterA" d="m479.6 227c0 0.6 0.1 1.2 0.1 1.9 0-0.7 0-1.3-0.1-1.9z"/>
<path class="jupiterA" d="m479.9 232.7v1.7-1.7z"/>
<path class="jupiterA" d="m478.6 213.8c0.1 1 0.2 2 0.3 2.9-0.1-0.9-0.2-1.9-0.3-2.9z"/>
<path class="jupiterA" d="m363.3 34c0.7 0.4 1.4 0.8 2.1 1.3-0.8-0.4-1.4-0.8-2.1-1.3z"/>
<path class="jupiterA" d="m299.5 7.4c0.5 0.1 0.9 0.2 1.4 0.4-0.5-0.1-0.9-0.2-1.4-0.4z"/>
<path class="jupiterA" d="m293.4 6c0.4 0.1 0.8 0.2 1.3 0.3-0.5-0.1-0.9-0.2-1.3-0.3z"/>
<path class="jupiterA" d="m310.8 10.6c0.5 0.2 1 0.3 1.5 0.5-0.5-0.2-1-0.3-1.5-0.5z"/>
<path class="jupiterA" d="m288 4.8l1.2 0.3-1.2-0.3z"/>
<path class="jupiterA" d="m377.5 43.3c1 0.7 2 1.4 2.9 2.1-0.9-0.7-1.9-1.4-2.9-2.1z"/>
<path class="jupiterA" d="m316 12.3c0.4 0.1 0.8 0.3 1.3 0.4-0.4-0.1-0.8-0.3-1.3-0.4z"/>
<path class="jupiterA" d="m264.4 1.2c0.3 0 0.5 0.1 0.8 0.1-0.3 0-0.6-0.1-0.8-0.1z"/>
<path class="jupiterA" d="m252.3 0.3h0.4-0.4z"/>
<path class="jupiterA" d="m276.3 2.7c0.3 0.1 0.7 0.1 1 0.2-0.4-0.1-0.7-0.1-1-0.2z"/>
<path class="jupiterA" d="m281.7 3.6c0.4 0.1 0.9 0.1 1.3 0.2-0.5 0-0.9-0.1-1.3-0.2z"/>
<path class="jupiterA" d="m304.8 8.9c0.4 0.1 0.8 0.2 1.3 0.4-0.4-0.2-0.9-0.3-1.3-0.4z"/>
<path class="jupiterA" d="m321.8 14.3c0.6 0.2 1.1 0.4 1.6 0.6-0.5-0.2-1-0.4-1.6-0.6z"/>
<path class="jupiterA" d="m348.2 25.7l2.4 1.2c-0.9-0.4-1.6-0.8-2.4-1.2z"/>
<path class="jupiterA" d="m353.3 28.4c0.7 0.4 1.3 0.7 2 1.1-0.6-0.4-1.3-0.7-2-1.1z"/>
<path class="jupiterA" d="m372.9 40.1c0.7 0.5 1.4 1 2.2 1.5-0.8-0.5-1.5-1-2.2-1.5z"/>
<path class="jupiterA" d="m368.1 37c0.9 0.6 1.9 1.2 2.8 1.8-0.9-0.6-1.9-1.2-2.8-1.8z"/>
<path class="jupiterA" d="m358.3 31.1c0.9 0.5 1.7 1 2.6 1.5-0.9-0.5-1.7-1-2.6-1.5z"/>
<path class="jupiterA" d="m327 16.3c0.4 0.2 0.8 0.3 1.3 0.5-0.4-0.2-0.9-0.4-1.3-0.5z"/>
<path class="jupiterA" d="m343.1 23.2c0.6 0.3 1.3 0.6 1.9 0.9-0.6-0.3-1.3-0.6-1.9-0.9z"/>
<path class="jupiterA" d="m332.6 18.5c0.6 0.2 1.2 0.5 1.8 0.8-0.6-0.3-1.2-0.5-1.8-0.8z"/>
<path class="jupiterA" d="m337.7 20.7c0.7 0.3 1.3 0.6 2 0.9-0.7-0.3-1.3-0.6-2-0.9z"/>
<path class="jupiterA" d="m412.4 73c-1.5-1.5-3-3.1-4.5-4.6 1.5 1.6 3 3.1 4.5 4.6z"/>
<path class="jupiterA" d="m437.3 103.3c1.1 1.7 2.3 3.3 3.4 5-2-3-4-6-6.1-8.9 0.9 1.3 1.8 2.6 2.7 3.9-0.1 0 0 0 0 0z"/>
<path class="jupiterA" d="m240 325.7c-32.8 0-64.1-2.2-92.7-6.2 2 12.1 4.9 23.9 8.7 35.4-58.3-7.2-106.6-21.7-135.4-40.3l-0.1-0.1-2.7-1.8c-0.1-0.1-0.2-0.2-0.4-0.2-0.9-0.6-1.8-1.3-2.7-1.9-0.1-0.1-0.2-0.1-0.2-0.2-0.8-0.6-1.5-1.1-2.2-1.7-0.2-0.2-0.4-0.3-0.6-0.5-0.8-0.6-1.6-1.3-2.3-1.9 7.5 26.1 19.3 50.4 34.6 72.1 12 5.3 25.7 10.1 40.8 14.3 5.3 1.5 10.8 2.9 16.4 4.2 3.1 0.7 6.3 1.4 9.5 2.1v-0.1c-0.1-0.1-0.2-0.3-0.3-0.7-0.5-1.1-1.6-3.5-2.6-6.3-0.3-0.8-0.6-1.7-0.9-2.6s-0.6-1.8-0.9-2.8c-0.2-0.8-0.5-1.7-0.7-2.6-0.6-2.5-1-5-1-7.2v-1.3l0.3-2.1c0.2-0.6 0.4-1.2 0.7-1.7 0.1-0.2 0.3-0.5 0.4-0.7 1.1-1.6 2.9-2.5 5.7-2.4 0.6 0 1.1 0 1.7 0.1h0.5c0.4 0 0.8 0.1 1.2 0.1 0.2 0 0.4 0 0.7 0.1 0.4 0 0.7 0.1 1.1 0.1 0.3 0 0.5 0.1 0.8 0.1s0.6 0.1 1 0.1c0.3 0 0.5 0.1 0.8 0.1 0.3 0.1 0.6 0.1 0.9 0.2 0.3 0 0.6 0.1 0.8 0.2 0.3 0.1 0.6 0.1 0.9 0.2s0.6 0.1 0.9 0.2 0.6 0.1 0.9 0.2 0.6 0.1 0.9 0.2 0.6 0.1 0.9 0.2 0.6 0.2 0.9 0.2c0.3 0.1 0.6 0.2 0.9 0.2 0.3 0.1 0.6 0.2 0.9 0.3s0.6 0.2 0.9 0.3 0.6 0.2 0.9 0.3 0.6 0.2 0.9 0.3 0.6 0.2 0.9 0.3 0.6 0.2 0.9 0.3 0.6 0.2 0.9 0.3 0.6 0.2 0.9 0.3 0.6 0.2 0.9 0.3 0.6 0.2 1 0.3c0.3 0.1 0.6 0.2 0.9 0.3s0.7 0.2 1 0.4c0.3 0.1 0.6 0.2 0.9 0.3s0.7 0.3 1 0.4 0.6 0.2 0.8 0.3c0.3 0.1 0.7 0.3 1 0.4s0.6 0.2 0.8 0.3c0.4 0.1 0.7 0.3 1.1 0.4 0.3 0.1 0.5 0.2 0.8 0.3 0.4 0.2 0.7 0.3 1.1 0.5 0.3 0.1 0.5 0.2 0.8 0.3 0.4 0.2 0.8 0.3 1.2 0.5 0.2 0.1 0.5 0.2 0.7 0.3 0.4 0.2 0.8 0.4 1.2 0.5 0.2 0.1 0.4 0.2 0.7 0.3 0.4 0.2 0.9 0.4 1.3 0.6l0.6 0.3c0.5 0.2 0.9 0.4 1.4 0.7 0.2 0.1 0.3 0.1 0.5 0.2 0.5 0.2 1 0.5 1.5 0.7 0.1 0.1 0.2 0.1 0.4 0.2 0.6 0.3 1.1 0.5 1.7 0.8 0.1 0 0.1 0.1 0.2 0.1 4.2 2 8.4 4.1 12.7 6.2-5.7-11-10.6-22.5-14.5-34.4 26.1 3.3 54.4 5.1 83.9 5.1 26.9 0 52.9-1.5 77.1-4.2l31.3-4.4c55.3-9.3 99.1-25.4 122.2-45.1-7.5 26.1-19.3 50.4-34.6 72.1-45.5 20.1-116.4 34.3-196 33.1-24.1-0.4-47.6-11.3-69.7-22.1 10.5 20.4 23.8 39.2 39.5 55.7h0.1l0.1 0.1c9.8 0.4 19.9 0.6 30 0.6 55.5 0 106.7-6.3 148.1-16.9-27.9 21.9-60.8 37.8-96.8 45.7 107.9-23.6 188.7-119.7 188.7-234.6 0 8-0.4 15.9-1.2 23.8-29.9 35.7-125.4 61.9-238.8 61.9z"/>
<path class="jupiterA" d="m246.8 0.1h-1.3 0.1 1.2z"/>
<path class="jupiterA" d="m432.7 96.9c0.1 0.1 0.1 0.2 0.2 0.3 0.4 0.6 0.9 1.1 1.3 1.7l-4.2-5.7c0.9 1.2 1.8 2.4 2.7 3.6v0.1z"/>
<path class="jupiterA" d="m259 0.8c-0.3 0-0.6 0-0.9-0.1h0.5c0.2 0 0.3 0 0.4 0.1z"/>
<path class="jupiterA" d="m444.9 115c1.6 2.7 3.2 5.4 4.8 8.2-44.2 23.8-121.6 39.7-209.7 39.7-22.1 0-43.5-1-63.9-2.9-10.3 17.8-18.4 37-23.9 57.3h0.1c8.3 1.1 16.9 2 25.6 2.8 45.6 3.1 75.5 22.4 103.7 27.5 7.5 1.4 13-6.9 8.7-13.3l-8.6-12.7c85.2-5 155.6-24.9 187.8-51.7 4.1 13.5 7.1 27.5 8.8 41.8-4.4-37.7-17.6-72.7-37.4-103 1.3 2 2.6 4.1 3.9 6.2l0.1 0.1zm-192.9 109c-6.6 0-12-3.6-12-8s5.4-8 12-8 12 3.6 12 8-5.4 8-12 8z"/>
<path class="jupiterA" d="m271.1 2c-0.4-0.1-0.9-0.1-1.3-0.2 0.4 0 0.8 0.1 1.2 0.1 0 0.1 0.1 0.1 0.1 0.1z"/>
<path class="jupiterA" d="m245.7 479.9c0.6 0 1.3 0 1.9-0.1-0.6 0.1-1.2 0.1-1.9 0.1z"/>
<path class="jupiterB" d="m193.6 475.5c-1.4-0.3-2.8-0.6-4.1-0.8 1.3 0.2 2.7 0.5 4.1 0.8z"/>
<path class="jupiterB" d="m234.3 479.9c-0.6 0-1.3 0-1.9-0.1 0.6 0.1 1.2 0.1 1.9 0.1z"/>
<path class="jupiterB" d="m198.7 476.5c-1.3-0.2-2.6-0.5-3.9-0.7 1.3 0.2 2.6 0.4 3.9 0.7z"/>
<path class="jupiterB" d="m211.8 478.3c-3.9-0.5-7.7-1-11.5-1.6 3.7 0.6 7.6 1.2 11.5 1.6z"/>
<path class="jupiterB" d="m222.9 479.4c-0.8-0.1-1.6-0.1-2.5-0.2 0.8 0.1 1.6 0.1 2.5 0.2z"/>
<path class="jupiterB" d="m217.3 478.9c-0.9-0.1-1.7-0.2-2.6-0.2 0.8 0.1 1.7 0.1 2.6 0.2z"/>
<path class="jupiterB" d="m228.5 479.7c-0.8 0-1.5-0.1-2.3-0.1 0.8 0 1.6 0.1 2.3 0.1z"/>
<path class="jupiterB" d="m109.3 441.2c-3.8-2.4-7.4-5-11.1-7.6l-1.2-0.9c-1.7-1.3-3.5-2.6-5.2-3.9 1.9 0.5 3.9 1 5.9 1.5 0.3 0.1 0.6 0.1 0.9 0.2 2 0.5 4.1 1 6.2 1.4 30.9 6.9 66.6 11.5 104.9 13.1-15.6-16.5-29-35.2-39.5-55.7-4.2-2.1-8.4-4.1-12.5-6.1-0.1 0-0.1-0.1-0.2-0.1-0.6-0.3-1.1-0.5-1.7-0.8-0.1-0.1-0.2-0.1-0.4-0.2-0.5-0.2-1-0.5-1.5-0.7-0.2-0.1-0.3-0.1-0.5-0.2-0.5-0.2-0.9-0.4-1.4-0.7l-0.6-0.3c-0.4-0.2-0.9-0.4-1.3-0.6-0.2-0.1-0.4-0.2-0.7-0.3-0.4-0.2-0.8-0.4-1.2-0.5-0.2-0.1-0.5-0.2-0.7-0.3-0.4-0.2-0.8-0.3-1.2-0.5-0.3-0.1-0.5-0.2-0.8-0.3-0.4-0.2-0.7-0.3-1.1-0.5-0.3-0.1-0.5-0.2-0.8-0.3-0.4-0.2-0.7-0.3-1.1-0.4-0.3-0.1-0.6-0.2-0.8-0.3-0.3-0.1-0.7-0.3-1-0.4s-0.6-0.2-0.8-0.3c-0.3-0.1-0.7-0.3-1-0.4s-0.6-0.2-0.9-0.3-0.7-0.2-1-0.4c-0.3-0.1-0.6-0.2-0.9-0.3s-0.6-0.2-1-0.3c-0.3-0.1-0.6-0.2-0.9-0.3s-0.6-0.2-0.9-0.3-0.6-0.2-0.9-0.3-0.6-0.2-0.9-0.3-0.6-0.2-0.9-0.3-0.6-0.2-0.9-0.3-0.6-0.2-0.9-0.3-0.6-0.2-0.9-0.3-0.6-0.2-0.9-0.3-0.6-0.2-0.9-0.2c-0.3-0.1-0.6-0.2-0.9-0.2-0.3-0.1-0.6-0.1-0.9-0.2s-0.6-0.1-0.9-0.2-0.6-0.1-0.9-0.2-0.6-0.1-0.9-0.2-0.6-0.1-0.9-0.2-0.6-0.1-0.8-0.2c-0.3-0.1-0.6-0.1-0.9-0.2-0.3 0-0.5-0.1-0.8-0.1s-0.6-0.1-1-0.1c-0.3 0-0.5-0.1-0.8-0.1-0.4 0-0.7-0.1-1.1-0.1-0.2 0-0.4 0-0.7-0.1-0.4 0-0.8-0.1-1.2-0.1h-0.5c-0.6 0-1.1-0.1-1.7-0.1-2.8-0.1-4.6 0.9-5.7 2.4-0.2 0.2-0.3 0.4-0.4 0.7-0.3 0.5-0.5 1.1-0.6 1.7-0.2 0.7-0.3 1.4-0.3 2.1v1.3c0 2.2 0.4 4.7 1 7.2 0.2 0.9 0.4 1.7 0.7 2.6s0.6 1.9 0.9 2.8 0.6 1.8 0.9 2.6c1.1 2.9 2.1 5.2 2.6 6.3 0.1 0.3 0.3 0.6 0.3 0.7v0.1c-3.2-0.7-6.4-1.4-9.5-2.1-5.6-1.3-11.1-2.7-16.4-4.2-15.2-4.2-28.9-9-40.8-14.3-15.3-21.7-27.1-46-34.6-72.1 0.7 0.6 1.5 1.3 2.3 1.9 0.2 0.2 0.4 0.3 0.6 0.5 0.7 0.6 1.4 1.1 2.2 1.7 0.1 0.1 0.2 0.1 0.2 0.2 0.9 0.6 1.8 1.3 2.7 1.9 0.1 0.1 0.2 0.2 0.4 0.3l2.7 1.8 0.1 0.1c28.8 18.6 77.1 33.1 135.4 40.3-3.8-11.4-6.7-23.2-8.7-35.4-61.5-8.5-110.8-25.3-136.5-46.4-0.1-0.1-0.2-0.1-0.3-0.2-0.8-0.6-1.5-1.3-2.2-1.9-0.1-0.1-0.2-0.2-0.4-0.3-0.8-0.7-1.5-1.4-2.3-2.1l-0.3-0.3-1.8-1.8c-0.2-0.2-0.3-0.4-0.5-0.6-0.6-0.7-1.3-1.4-1.9-2.1-0.6-8.1-1-16-1-24 0 114.9 80.8 211 188.7 234.5-28.5-6.2-55.2-17.6-78.9-32.9-0.2-0.2-0.3-0.3-0.5-0.4zm42.7-49.2c9.7 5.7 16.5 12.5 16 24s-46.5-12-48-24 19.8-7.2 32 0z"/>
<path class="jupiterB" d="m254.4 0.4c1 0.1 1.9 0.1 2.9 0.2-1 0-1.9-0.1-2.9-0.2z"/>
<path class="jupiterB" d="m240 0h4.3-4.3z"/>
<path class="jupiterB" d="m222.6 0.6c1.1-0.1 2.3-0.2 3.4-0.2-1.1 0.1-2.3 0.1-3.4 0.2z"/>
<path class="jupiterB" d="m240 0h-4.2 0.6 3.6z"/>
<path class="jupiterB" d="m444.9 115h0.1c-1.3-2.1-2.6-4.2-3.9-6.2-0.1-0.2-0.2-0.3-0.3-0.5-1.1-1.7-2.2-3.4-3.4-5 2.5 3.8 5 7.7 7.5 11.7z"/>
<path class="jupiterB" d="m347.3 25.3c0.1 0.1 0.2 0.1 0.3 0.2l2.4 1.2c0.6 0.3 1.2 0.6 1.7 0.9 0.4 0.2 0.8 0.4 1.2 0.7 1 0.5 1.9 1 2.9 1.6 0.1 0.1 0.2 0.1 0.3 0.2 0.6 0.3 1.1 0.6 1.7 0.9l0.6 0.3c4.9 2.8 9.7 5.7 14.4 8.9 0.1 0 0.1 0.1 0.2 0.1-6.8 0.3-13.6 0.9-20.2 1.8-4.9 0.9-10 1.7-15.1 2.5-55.5 10.9-104.2 40.9-138.9 82.9 13.4 0.8 27.1 1.2 41.1 1.2 17.4 0 34.3-0.6 50.7-1.8 3.1-0.2 6.2-0.5 9.3-0.7l29.2-3.2c40.8-5.4 76.3-14.5 103.5-25.9-0.9-1.2-1.8-2.4-2.7-3.6l-0.1-0.1c-0.7-0.9-1.5-1.9-2.2-2.8-0.1-0.1-0.2-0.3-0.3-0.4-1.4-1.8-2.8-3.5-4.3-5.2l-0.4-0.4c-0.8-0.9-1.5-1.8-2.3-2.7-0.1-0.1-0.2-0.2-0.3-0.4-1.4-1.6-2.9-3.2-4.4-4.8-0.2-0.2-0.4-0.4-0.6-0.7-0.8-0.8-1.6-1.7-2.4-2.5l-0.3-0.3c-1.5-1.5-3-3.1-4.5-4.6-0.3-0.3-0.6-0.6-0.9-0.8-0.8-0.8-1.6-1.5-2.4-2.3l-0.3-0.3c-1.5-1.4-3.1-2.9-4.7-4.3-0.4-0.3-0.7-0.7-1.1-1l-2.4-2.1-0.1-0.1c-1.6-1.4-3.3-2.8-5-4.2-0.5-0.4-0.9-0.7-1.4-1.1-1.2-0.9-2.4-1.9-3.6-2.8-0.6-0.4-1.2-0.9-1.7-1.3-0.7-0.6-1.5-1.1-2.3-1.7-0.5-0.4-1.1-0.8-1.7-1.2-1-0.7-2-1.4-2.9-2.1-0.8-0.6-1.7-1.2-2.5-1.7-0.7-0.5-1.4-1-2.2-1.5-0.7-0.4-1.3-0.9-2-1.3-0.9-0.6-1.9-1.2-2.8-1.8s-1.8-1.2-2.8-1.7c-0.7-0.4-1.4-0.8-2.1-1.3-0.8-0.5-1.6-0.9-2.4-1.4-0.9-0.5-1.7-1-2.6-1.5-1-0.6-2-1.1-3-1.7-0.7-0.4-1.3-0.7-2-1.1-0.9-0.5-1.9-1-2.8-1.5l-2.4-1.2c-1.1-0.5-2.1-1.1-3.2-1.6-0.6-0.3-1.3-0.6-1.9-0.9-1.1-0.5-2.3-1.1-3.4-1.6-0.7-0.3-1.3-0.6-2-0.9-1.1-0.5-2.2-1-3.4-1.5-0.6-0.3-1.2-0.5-1.8-0.7-1.4-0.6-2.9-1.2-4.3-1.8-0.4-0.2-0.8-0.3-1.3-0.5-1.2-0.5-2.4-0.9-3.6-1.4-0.5-0.2-1.1-0.4-1.6-0.6-1.5-0.5-3-1.1-4.5-1.6-0.4-0.1-0.8-0.3-1.3-0.4-1.2-0.4-2.5-0.8-3.8-1.2-0.5-0.2-1-0.3-1.5-0.5-1.6-0.5-3.1-0.9-4.7-1.4-0.4-0.1-0.8-0.2-1.3-0.4-1.3-0.4-2.6-0.7-4-1.1-0.5-0.1-0.9-0.2-1.4-0.4-1.6-0.4-3.2-0.8-4.9-1.2-0.4-0.1-0.8-0.2-1.3-0.3l-4.2-0.9c-0.4-0.1-0.8-0.2-1.2-0.2-1.7-0.3-3.3-0.7-5-1-0.4-0.1-0.9-0.1-1.3-0.2-1.5-0.3-2.9-0.5-4.4-0.7-0.3-0.1-0.7-0.1-1-0.2-1.7-0.3-3.4-0.5-5.2-0.7 28 3.8 53.7 11.9 77.1 23.6z"/>
<path class="jupiterB" d="m437.2 103.3c-0.9-1.3-1.8-2.6-2.7-3.8-0.1-0.1-0.2-0.3-0.3-0.4-0.4-0.6-0.8-1.2-1.3-1.7 1.5 1.8 2.9 3.8 4.3 5.9z"/>
<path class="jupiterB" d="m252.9 0.3h-0.2-0.4c-0.7 0-1.4-0.1-2.2-0.1 0.9 0.1 1.9 0.1 2.8 0.1z"/>
<path class="jupiterB" d="m261.7 1c-0.9-0.1-1.7-0.2-2.6-0.2h-0.4c0.9 0 2 0.1 3 0.2z"/>
<path class="jupiterB" d="m271 2c-0.4-0.1-0.8-0.1-1.2-0.1-0.9-0.1-1.9-0.2-2.8-0.3 1.3 0.1 2.7 0.2 4 0.4z"/>
<path class="jupiterB" d="m266.2 1.4c-0.4 0-0.7-0.1-1.1-0.1-0.2 0-0.5-0.1-0.7-0.1-0.5-0.1-1-0.1-1.5-0.1 1 0.1 2.2 0.2 3.3 0.3z"/>
<path class="jupiterB" d="m248.6 0.2c-0.6 0-1.2 0-1.8-0.1h-1.2c1 0 2 0 3 0.1z"/>
<path class="jupiterB" d="m234.5 0.1h-0.1-1.2c-0.6 0-1.2 0-1.8 0.1 1.1-0.1 2.1-0.1 3.1-0.1z"/>
<path class="jupiterB" d="m230.2 0.2c-0.7 0-1.5 0.1-2.2 0.1h-0.9c1 0 2.1-0.1 3.1-0.1z"/>
<path class="jupiterC" d="m240 0h-3.6 3.6z"/>
<path class="jupiterC" d="m355.9 29.9c-1-0.5-1.9-1.1-2.9-1.6 1 0.5 2 1 2.9 1.6z"/>
<path class="jupiterC" d="m373.1 40.3c-0.1 0-0.1-0.1-0.2-0.1-4.7-3.1-9.5-6.1-14.4-8.9l-0.6-0.3c-0.5-0.3-1.1-0.6-1.7-0.9 4.9 2.7 9.6 5.6 14.3 8.6-5.7 1.2-11.7 2.4-17.7 3.4 6.7-0.9 13.4-1.5 20.3-1.8z"/>
<path class="jupiterC" d="m347.7 25.5c-0.1-0.1-0.2-0.1-0.3-0.2 0 0.1 0.2 0.2 0.3 0.2z"/>
<path class="jupiterC" d="m351.8 27.6c-0.6-0.3-1.2-0.6-1.7-0.9 0.5 0.3 1.1 0.6 1.7 0.9z"/>
<path class="jupiterC" d="m52.6 99.1c0.9 0.4 1.9 0.7 2.8 1.1 0.5 0.2 1.1 0.4 1.6 0.6 0.9 0.3 1.8 0.7 2.7 1 0.6 0.2 1.1 0.4 1.7 0.6 1 0.3 1.9 0.7 2.9 1 0.5 0.2 1 0.3 1.5 0.5 1.4 0.5 2.8 1 4.3 1.4 0.6 0.2 1.2 0.4 1.9 0.6 0.9 0.3 1.8 0.6 2.7 0.8 0.8 0.2 1.5 0.5 2.3 0.7s1.5 0.5 2.3 0.7 1.7 0.5 2.5 0.7l2.1 0.6c0.9 0.3 1.9 0.5 2.8 0.8 0.5 0.1 1 0.3 1.4 0.4 3.7 1 7.6 2 11.5 2.9 0.3 0.1 0.7 0.2 1 0.2 1.3 0.3 2.6 0.6 3.9 0.9 0.3 0.1 0.6 0.1 0.9 0.2l4.2 0.9c26.8 5.7 57 9.7 89.3 11.6 34.7-42 83.3-72 138.9-82.9-30 4.4-63 6.9-97.7 6.9-47.9 0-92.5-4.7-130.4-12.8 15.9-10.3 33.1-18.8 51.3-25.2-2.2 0.8-4.3 1.5-6.4 2.3-1.2 0.5-2.4 1-3.7 1.4-3.1 1.3-6.2 2.6-9.3 4-1 0.5-2.1 0.9-3.1 1.4-3.8 1.8-7.6 3.7-11.3 5.7-0.2 0.1-0.4 0.2-0.5 0.3-4.1 2.2-8.2 4.6-12.1 7l-0.9 0.6c-3.5 2.2-6.9 4.5-10.3 6.8-0.7 0.5-1.4 1-2.2 1.5-3.1 2.2-6.1 4.4-9 6.8-0.6 0.5-1.3 1-1.9 1.5-10.7 8.6-20.7 18.1-29.8 28.4-0.3 0.4-0.7 0.8-1 1.2-2.7 3.1-5.3 6.2-7.8 9.4-0.4 0.5-0.8 1-1.1 1.4-1 1.3-1.9 2.5-2.9 3.8 1.3 0.5 2.6 1.1 3.9 1.6 0.1 0.4 0.5 0.6 1 0.7z"/>
<path class="jupiterC" d="m181.5 7.2c-0.4 0.1-0.7 0.2-1.1 0.3-4.4 1.1-8.8 2.4-13.2 3.8-1 0.3-2 0.7-3 1-0.1 0-0.2 0.1-0.3 0.1 6.1-2 12.3-3.9 18.6-5.4-0.3 0.1-0.7 0.1-1 0.2z"/>
<path class="jupiterD" d="m449.6 123.2c-1.5-2.8-3.1-5.5-4.8-8.2-2.4-4-4.9-7.9-7.6-11.7-1.4-2-2.8-4-4.3-6-0.1-0.1-0.1-0.2-0.2-0.3-27.1 11.5-62.7 20.5-103.5 25.9l-29.2 3.2c-3.1 0.3-6.2 0.5-9.3 0.7-16.4 1.2-33.3 1.8-50.7 1.8-14 0-27.8-0.4-41.1-1.2-8.4 10.2-16 21.1-22.7 32.6-0.2 0-0.4 0-0.7-0.1 0.2 0 0.4 0 0.6 0.1 20.4 1.9 41.8 2.9 63.9 2.9 88.1 0 165.5-15.9 209.6-39.7z"/>
<path class="jupiterD" d="m49.3 132.1c-0.5-0.2-0.9-0.4-1.4-0.6 0.5 0.2 0.9 0.4 1.4 0.6z"/>
<path class="jupiterD" d="m43.8 129.7c-0.1 0-0.1-0.1-0.2-0.1 0 0.1 0.1 0.1 0.2 0.1z"/>
<path class="jupiterD" d="m39.5 127.8l-1.2-0.6 1.2 0.6z"/>
<path class="jupiterD" d="m133.4 154.6c-0.5-0.1-1.1-0.2-1.6-0.3 0.5 0.1 1 0.2 1.6 0.3z"/>
<path class="jupiterD" d="m53.9 133.9c-0.5-0.2-0.9-0.4-1.4-0.6 0.5 0.3 1 0.5 1.4 0.6z"/>
<path class="jupiterD" d="m126.3 153.4c-0.7-0.1-1.5-0.3-2.2-0.4 0.7 0.1 1.4 0.2 2.2 0.4z"/>
<path class="jupiterD" d="m120 152.2c-0.7-0.1-1.5-0.3-2.2-0.4 0.8 0.1 1.5 0.3 2.2 0.4z"/>
<path class="jupiterD" d="m30.4 123.2h0.1-0.1z"/>
<path class="jupiterD" d="m106.2 149.4c-0.7-0.1-1.3-0.3-2-0.4 0.7 0.1 1.4 0.2 2 0.4z"/>
<path class="jupiterD" d="m93.4 146.4c-0.3-0.1-0.6-0.2-0.9-0.2 0.3 0 0.6 0.1 0.9 0.2z"/>
<path class="jupiterD" d="m100.3 148c-0.7-0.2-1.3-0.3-2-0.5 0.7 0.2 1.4 0.4 2 0.5z"/>
<path class="jupiterD" d="m112.8 150.8c-0.4-0.1-0.8-0.2-1.3-0.3 0.5 0.1 0.9 0.2 1.3 0.3z"/>
<path class="jupiterD" d="m87.4 144.8c-0.6-0.2-1.2-0.3-1.8-0.5 0.6 0.2 1.2 0.3 1.8 0.5z"/>
<path class="jupiterD" d="m140.9 155.8c-0.8-0.1-1.6-0.2-2.4-0.4 0.8 0.1 1.6 0.2 2.4 0.4z"/>
<path class="jupiterD" d="m58.8 135.8c-0.1 0-0.2-0.1-0.3-0.1 0.1 0 0.2 0 0.3 0.1z"/>
<path class="jupiterD" d="m64.8 137.9c-0.5-0.2-1-0.4-1.6-0.5 0.6 0.2 1.1 0.4 1.6 0.5z"/>
<path class="jupiterD" d="m69.9 139.6c-0.5-0.2-1.1-0.3-1.6-0.5 0.6 0.2 1.1 0.4 1.6 0.5z"/>
<path class="jupiterD" d="m81.9 143.3c-0.6-0.2-1.2-0.3-1.8-0.5 0.6 0.1 1.2 0.3 1.8 0.5z"/>
<path class="jupiterD" d="m75.4 141.3c-0.2-0.1-0.4-0.1-0.6-0.2 0.2 0.1 0.4 0.2 0.6 0.2z"/>
<path class="jupiterD" d="m35.4 125.8l-1.2-0.6 1.2 0.6z"/>
<path class="jupiterD" d="m37.8 110.8c0.4-0.6 0.8-1.2 1.1-1.8 2.7-4.1 5.4-8.1 8.3-12 1.3 0.6 2.7 1.1 4 1.6-1.3-0.5-2.7-1.1-3.9-1.6h-0.1c-6.2 8.3-11.8 17.1-16.9 26.2 2.4-4.2 4.9-8.4 7.5-12.4z"/>
<path class="jupiterD" d="m162.8 158.6c-0.8-0.1-1.7-0.2-2.5-0.3 0.8 0.1 1.6 0.2 2.5 0.3z"/>
<path class="jupiterD" d="m147.4 156.7l-2.4-0.3c0.9 0.1 1.7 0.2 2.4 0.3z"/>
<path class="jupiterD" d="m169.6 159.4c-0.8-0.1-1.7-0.2-2.5-0.3 0.8 0.1 1.7 0.2 2.5 0.3z"/>
<path class="jupiterD" d="m155 157.7c-0.6-0.1-1.2-0.2-1.9-0.2 0.6 0 1.3 0.1 1.9 0.2z"/>
<path class="jupiterD" d="m105.3 114.9c-0.3-0.1-0.6-0.1-0.9-0.2 0.3 0 0.6 0.1 0.9 0.2z"/>
<path class="jupiterD" d="m64.3 103.5c-1-0.3-2-0.7-2.9-1 0.9 0.3 1.9 0.6 2.9 1z"/>
<path class="jupiterD" d="m70 105.4c-1.4-0.5-2.9-0.9-4.3-1.4 1.5 0.4 2.9 0.9 4.3 1.4z"/>
<path class="jupiterD" d="m59.7 101.8c-0.9-0.3-1.8-0.7-2.7-1 0.9 0.4 1.8 0.7 2.7 1z"/>
<path class="jupiterD" d="m88 110.7c-0.5-0.1-1-0.3-1.4-0.4 0.4 0.1 0.9 0.2 1.4 0.4z"/>
<path class="jupiterD" d="m55.4 100.2c-0.9-0.4-1.9-0.7-2.8-1.1 0.9 0.4 1.8 0.8 2.8 1.1z"/>
<path class="jupiterD" d="m100.5 113.8c-0.3-0.1-0.7-0.2-1-0.2 0.3 0 0.6 0.1 1 0.2z"/>
<path class="jupiterD" d="m74.5 106.8c-0.9-0.3-1.8-0.6-2.6-0.8 0.9 0.3 1.7 0.5 2.6 0.8z"/>
<path class="jupiterD" d="m79.1 108.2c-0.8-0.2-1.5-0.4-2.3-0.7 0.8 0.2 1.6 0.5 2.3 0.7z"/>
<path class="jupiterD" d="m83.7 109.5l-2.1-0.6c0.8 0.2 1.4 0.4 2.1 0.6z"/>
<path class="jupiterD" d="m109.5 115.8z"/>
<path class="jupiterE" d="m182.5 7c-6.3 1.6-12.5 3.4-18.6 5.4-1 0.3-2 0.7-3.1 1-18.2 6.4-35.4 14.9-51.3 25.2 38 8.1 82.6 12.8 130.5 12.8 34.7 0 67.7-2.5 97.7-6.9 5.1-0.8 10.2-1.6 15.1-2.4 6-1.1 11.9-2.2 17.7-3.4-4.6-3-9.4-5.9-14.3-8.6-0.1-0.1-0.2-0.1-0.3-0.2-1-0.5-1.9-1.1-2.9-1.6l-1.2-0.6c-0.6-0.3-1.2-0.6-1.7-0.9l-2.4-1.2c-0.1-0.1-0.2-0.1-0.3-0.2-23.5-11.8-49.1-19.8-76.2-23.3h-0.1c-1.3-0.2-2.7-0.3-4-0.5-0.3 0-0.5-0.1-0.8-0.1-1.1-0.1-2.2-0.2-3.4-0.3-0.4 0-0.8-0.1-1.2-0.1l-3-0.3h-0.5c-0.3 0-0.6 0-0.9-0.1-0.9-0.1-1.9-0.1-2.9-0.2-0.5 0-1-0.1-1.5-0.1-0.9 0-1.9-0.1-2.8-0.1-0.5 0-1 0-1.5-0.1-1 0-2-0.1-3-0.1h-0.1-1.2c-1.4-0.1-2.9-0.1-4.3-0.1h-3.6-0.6-1.2c-1 0-2 0-3 0.1-0.4 0-0.9 0-1.3 0.1-1 0-2.1 0.1-3.1 0.1-0.4 0-0.7 0-1.1 0.1-1.2 0.1-2.3 0.1-3.4 0.2h-0.6c-13.6 1.1-26.8 3.2-39.6 6.4z"/>
<path class="jupiterB" d="m281.7 221.7l8.6 12.7c4.3 6.3-1.2 14.6-8.7 13.3-28.2-5-58-24.4-103.7-27.5-8.7-0.8-17.3-1.7-25.6-2.8-4.9 18-7.7 36.9-8.2 56.3h0.1c29.7 4 62 6.1 95.8 6.1 105.4 0 196.4-21.1 239.6-51.8 0.2 4 0.4 8 0.4 12 0-1.8 0-3.7-0.1-5.5v-1.7c0-1.3-0.1-2.6-0.1-3.9 0-0.6-0.1-1.2-0.1-1.9-0.1-1.7-0.2-3.3-0.3-5-0.1-0.8-0.1-1.5-0.2-2.3l-0.3-3c-0.1-1-0.2-2-0.3-2.9-0.1-0.7-0.2-1.3-0.2-2-1.7-14.4-4.6-28.3-8.8-41.8-32.2 26.8-102.6 46.7-187.9 51.7z"/>
<path class="jupiterB" d="m0.6 223.8l0.3-3.9c0.4-5.2 1-10.5 1.8-15.6v-0.2c0.8-5.5 1.9-10.8 3-16.2 0.2-0.8 0.4-1.7 0.6-2.5 1.2-5.2 2.6-10.4 4.1-15.5 26.2 21.8 77.7 39 141.9 47.4 5.5-20.3 13.6-39.5 23.9-57.3-0.2 0-0.4 0-0.6-0.1-2-0.2-3.9-0.4-5.9-0.6-0.8-0.1-1.7-0.2-2.5-0.3-1.4-0.2-2.9-0.3-4.3-0.5-0.8-0.1-1.7-0.2-2.5-0.3-1.8-0.2-3.5-0.4-5.3-0.6-0.6-0.1-1.2-0.2-1.9-0.2-1.9-0.2-3.8-0.5-5.7-0.8l-2.4-0.3c-1.4-0.2-2.8-0.4-4.2-0.6-0.8-0.1-1.6-0.2-2.4-0.4-1.7-0.3-3.4-0.5-5.1-0.8-0.5-0.1-1.1-0.2-1.6-0.3-1.8-0.3-3.7-0.6-5.5-0.9-0.7-0.1-1.5-0.3-2.2-0.4-1.4-0.2-2.7-0.5-4-0.8-0.7-0.1-1.5-0.3-2.2-0.4-1.7-0.3-3.4-0.7-5-1-0.4-0.1-0.8-0.2-1.3-0.3-1.8-0.4-3.6-0.8-5.3-1.1-0.7-0.1-1.3-0.3-2-0.4-1.3-0.3-2.6-0.6-3.9-0.9-0.7-0.2-1.3-0.3-2-0.5-1.7-0.4-3.3-0.8-4.9-1.2-0.3-0.1-0.6-0.2-0.9-0.2-1.7-0.4-3.4-0.9-5.1-1.3-0.6-0.2-1.2-0.3-1.8-0.5-1.3-0.3-2.5-0.7-3.7-1-0.6-0.2-1.2-0.3-1.8-0.5-1.6-0.5-3.2-0.9-4.8-1.4-0.2-0.1-0.4-0.1-0.6-0.2-1.6-0.5-3.3-1-4.9-1.5-0.5-0.2-1.1-0.3-1.6-0.5-1.2-0.4-2.4-0.8-3.5-1.2-0.5-0.2-1-0.4-1.6-0.5-1.5-0.5-3-1.1-4.5-1.6-0.1 0-0.2-0.1-0.3-0.1-1.5-0.6-3-1.1-4.5-1.7-0.5-0.2-0.9-0.4-1.4-0.6-1.1-0.4-2.2-0.9-3.2-1.3-0.5-0.2-0.9-0.4-1.4-0.6l-4.2-1.8c-0.1 0-0.1-0.1-0.2-0.1-1.4-0.6-2.7-1.2-4.1-1.9l-1.2-0.6c-1-0.5-2-0.9-2.9-1.4l-1.2-0.6c-1.3-0.6-2.5-1.3-3.7-1.9h-0.1c5.1-9.1 10.7-17.9 16.9-26.2h0.1c1-1.3 1.9-2.6 2.9-3.8 0.4-0.5 0.8-1 1.1-1.4 2.5-3.2 5.1-6.4 7.8-9.4 0.3-0.4 0.7-0.8 1-1.2 9.1-10.3 19.1-19.8 29.8-28.4 0.6-0.5 1.2-1 1.9-1.5 3-2.3 6-4.6 9-6.8 0.7-0.5 1.4-1 2.2-1.5 3.4-2.4 6.8-4.6 10.3-6.8l0.9-0.6c4-2.4 8-4.8 12.1-7 0.2-0.1 0.4-0.2 0.5-0.3 3.7-2 7.5-3.9 11.3-5.7 1-0.5 2.1-0.9 3.1-1.4 3.1-1.4 6.2-2.7 9.3-4 1.2-0.5 2.4-1 3.7-1.4 2.1-0.8 4.3-1.6 6.5-2.3 1-0.4 2-0.7 3.1-1 0.1 0 0.2-0.1 0.3-0.1 1-0.3 2-0.7 3-1 4.3-1.4 8.7-2.7 13.2-3.8 0.4-0.1 0.7-0.2 1.1-0.2 0.3-0.1 0.7-0.2 1-0.2 12.8-3.2 26-5.3 39.5-6.3-0.2 0-0.5 0-0.7 0.1-1.7 0.1-3.5 0.3-5.2 0.5-0.4 0-0.9 0.1-1.3 0.1-1.7 0.2-3.5 0.4-5.2 0.6-0.2 0-0.5 0.1-0.7 0.1-1.5 0.2-3.1 0.4-4.6 0.6-0.4 0.1-0.9 0.1-1.3 0.2-1.6 0.3-3.3 0.5-4.9 0.8l-1.5 0.3c-1.4 0.3-2.7 0.5-4.1 0.8-0.4 0.1-0.8 0.1-1.1 0.2-1.6 0.3-3.1 0.7-4.6 1-0.6 0.1-1.2 0.3-1.8 0.4-1.5 0.3-3 0.7-4.4 1.1-0.6 0.1-1.1 0.3-1.7 0.5-1.1 0.3-2.1 0.6-3.2 0.9-0.6 0.2-1.3 0.4-1.9 0.5-1.4 0.4-2.7 0.8-4.1 1.2-0.7 0.2-1.5 0.5-2.2 0.7-0.9 0.3-1.8 0.6-2.6 0.9-1.2 0.4-2.4 0.8-3.5 1.2-0.8 0.3-1.5 0.5-2.3 0.8-0.9 0.3-1.7 0.6-2.6 0.9-0.7 0.2-1.3 0.5-2 0.7-1.4 0.6-2.9 1.1-4.3 1.7-0.5 0.2-0.9 0.4-1.4 0.6-1.9 0.8-3.8 1.6-5.8 2.5-0.1 0-0.1 0.1-0.2 0.1-1.1 0.5-2.1 1-3.2 1.4-0.1 0-0.2 0.1-0.3 0.1l-6.3 3h-0.1c-70.7 35-121.5 104.3-131.1 186.3-0.1 0.7-0.2 1.3-0.2 2-0.1 1-0.2 1.9-0.3 2.9l-0.3 3c-0.1 0.8-0.1 1.5-0.2 2.3-0.1 1.7-0.2 3.3-0.3 5 0 0.6-0.1 1.2-0.1 1.9-0.1 1.3-0.1 2.6-0.1 3.9v1.7c-0.2 1.8-0.2 3.7-0.2 5.5 0-5.5 0.2-10.9 0.6-16.2z"/>
<path class="jupiterC" d="m240 279.8c-33.8 0-66.1-2.2-95.8-6.1-0.1 2.1-0.2 4.2-0.2 6.3 0 13.5 1.2 26.6 3.4 39.5-61.5-8.5-110.9-25.3-136.6-46.4 25.6 21.1 75 37.9 136.5 46.4 28.7 4 60 6.2 92.8 6.2 113.4 0 208.9-26.2 238.8-62 0.8-7.8 1.2-15.7 1.2-23.8 0-4-0.2-8-0.4-11.9-43.3 30.7-134.3 51.8-239.7 51.8z"/>
<path class="jupiterC" d="m1.2 263.8v-0.2c-0.4-3.8-0.7-7.7-0.9-11.6-0.2-4-0.3-8-0.3-12 0 8 0.4 15.9 1.2 23.8z"/>
<path class="jupiterC" d="m3 265.9c-0.6-0.7-1.3-1.4-1.9-2.1 0.7 0.7 1.3 1.4 1.9 2.1z"/>
<path class="jupiterC" d="m7.9 270.7c-0.8-0.7-1.5-1.4-2.3-2.1 0.8 0.7 1.5 1.4 2.3 2.1z"/>
<path class="jupiterC" d="m5.3 268.2l-1.8-1.8 1.8 1.8z"/>
<path class="jupiterC" d="m10.5 272.9c-0.8-0.6-1.5-1.3-2.2-1.9 0.7 0.6 1.4 1.3 2.2 1.9z"/>
<path class="jupiterD" d="m436 378.4c15.3-21.7 27.1-45.9 34.6-72.1-23.1 19.8-66.9 35.9-122.2 45.1l-31.3 4.4c-24.2 2.7-50.2 4.2-77.1 4.2-29.5 0-57.8-1.8-84-5 3.9 11.9 8.8 23.4 14.5 34.4-4.3-2.1-8.5-4.2-12.7-6.2 4.1 2 8.3 4 12.5 6.1 22.1 10.8 45.6 21.7 69.7 22.1 79.7 1.2 150.6-12.9 196-33z"/>
<path class="jupiterD" d="m143.8 376.9c-0.4-0.2-0.7-0.3-1.1-0.4 0.4 0.1 0.7 0.3 1.1 0.4z"/>
<path class="jupiterD" d="m141.9 376.1c-0.3-0.1-0.7-0.3-1-0.4 0.3 0.1 0.6 0.3 1 0.4z"/>
<path class="jupiterD" d="m138.1 374.6c-0.3-0.1-0.7-0.2-1-0.4 0.4 0.2 0.7 0.3 1 0.4z"/>
<path class="jupiterD" d="m145.7 377.7c-0.4-0.2-0.7-0.3-1.1-0.5 0.3 0.2 0.7 0.4 1.1 0.5z"/>
<path class="jupiterD" d="m140 375.4c-0.3-0.1-0.7-0.3-1-0.4 0.3 0.1 0.7 0.2 1 0.4z"/>
<path class="jupiterD" d="m147.6 378.6c-0.4-0.2-0.8-0.3-1.2-0.5 0.4 0.1 0.8 0.3 1.2 0.5z"/>
<path class="jupiterD" d="m151.5 380.3c-0.4-0.2-0.9-0.4-1.3-0.6 0.5 0.2 0.9 0.4 1.3 0.6z"/>
<path class="jupiterD" d="m149.6 379.4c-0.4-0.2-0.8-0.4-1.2-0.5 0.3 0.2 0.8 0.3 1.2 0.5z"/>
<path class="jupiterD" d="m125.3 370.6c-0.3-0.1-0.6-0.1-0.9-0.2 0.3 0 0.6 0.1 0.9 0.2z"/>
<path class="jupiterD" d="m123.6 370.1c-0.3-0.1-0.6-0.1-0.9-0.2 0.2 0.1 0.6 0.2 0.9 0.2z"/>
<path class="jupiterD" d="m127.1 371c-0.3-0.1-0.6-0.2-0.9-0.2 0.3 0.1 0.6 0.1 0.9 0.2z"/>
<path class="jupiterD" d="m153.5 381.2c-0.5-0.2-0.9-0.4-1.4-0.7 0.5 0.3 1 0.5 1.4 0.7z"/>
<path class="jupiterD" d="m128.9 371.5c-0.3-0.1-0.6-0.2-0.9-0.3 0.3 0.2 0.6 0.2 0.9 0.3z"/>
<path class="jupiterD" d="m134.4 373.3c-0.3-0.1-0.6-0.2-0.9-0.3 0.3 0.1 0.6 0.2 0.9 0.3z"/>
<path class="jupiterD" d="m136.3 373.9c-0.3-0.1-0.6-0.2-1-0.3 0.3 0.1 0.6 0.2 1 0.3z"/>
<path class="jupiterD" d="m130.7 372.1c-0.3-0.1-0.6-0.2-0.9-0.3 0.3 0.1 0.6 0.2 0.9 0.3z"/>
<path class="jupiterD" d="m132.6 372.7c-0.3-0.1-0.6-0.2-0.9-0.3 0.3 0.1 0.6 0.2 0.9 0.3z"/>
<path class="jupiterD" d="m105.8 371c1.1-1.6 2.9-2.5 5.7-2.4 0.6 0 1.1 0 1.7 0.1-0.6 0-1.1-0.1-1.7-0.1-2.8-0.1-4.6 0.9-5.7 2.4z"/>
<path class="jupiterD" d="m106 386.5c0.3 0.9 0.6 1.9 0.9 2.8-0.4-0.9-0.7-1.9-0.9-2.8z"/>
<path class="jupiterD" d="m14.4 310.3c0.1 0.1 0.2 0.1 0.2 0.2l-0.2-0.2z"/>
<path class="jupiterD" d="m17.3 312.4c0.1 0.1 0.2 0.2 0.4 0.3-0.1-0.1-0.2-0.2-0.4-0.3z"/>
<path class="jupiterD" d="m110.4 398.2c0.1 0.3 0.3 0.6 0.3 0.7-0.1-0.2-0.2-0.4-0.3-0.7z"/>
<path class="jupiterD" d="m11.6 308.2c0.2 0.2 0.4 0.3 0.6 0.5-0.2-0.2-0.4-0.4-0.6-0.5z"/>
<path class="jupiterD" d="m9.4 306.3c7.5 26.1 19.3 50.4 34.6 72.1 12 5.3 25.7 10.1 40.8 14.3-15.2-4.2-28.9-9-40.8-14.3-15.3-21.7-27.1-46-34.6-72.1z"/>
<path class="jupiterD" d="m20.4 314.5l0.1 0.1c0-0.1-0.1-0.1-0.1-0.1z"/>
<path class="jupiterD" d="m121.8 369.8c-0.3-0.1-0.6-0.1-0.9-0.2 0.3 0 0.6 0.1 0.9 0.2z"/>
<path class="jupiterD" d="m105.3 383.9c0.2 0.9 0.4 1.7 0.7 2.6-0.3-0.9-0.5-1.7-0.7-2.6z"/>
<path class="jupiterD" d="m155.5 382.2c-0.5-0.2-1-0.5-1.5-0.7 0.5 0.2 1 0.4 1.5 0.7z"/>
<path class="jupiterD" d="m120 369.4c-0.3-0.1-0.6-0.1-0.9-0.2 0.3 0.1 0.6 0.2 0.9 0.2z"/>
<path class="jupiterD" d="m157.6 383.1c-0.6-0.3-1.1-0.5-1.7-0.8 0.5 0.3 1.1 0.6 1.7 0.8z"/>
<path class="jupiterD" d="m118.3 369.2c-0.3 0-0.6-0.1-1-0.1 0.3 0 0.7 0 1 0.1z"/>
<path class="jupiterD" d="m116.6 368.9c-0.4 0-0.7-0.1-1.1-0.1 0.4 0.1 0.7 0.1 1.1 0.1z"/>
<path class="jupiterD" d="m105.4 371.7c-0.3 0.5-0.5 1.1-0.6 1.7 0.1-0.6 0.3-1.2 0.6-1.7z"/>
<path class="jupiterD" d="m114.8 368.8c-0.4 0-0.8-0.1-1.2-0.1 0.4 0 0.8 0 1.2 0.1z"/>
<path class="jupiterC" d="m251.5 479.7c0.8 0 1.5-0.1 2.3-0.1 1.1-0.1 2.2-0.1 3.4-0.2 0.8-0.1 1.6-0.1 2.5-0.2 1.1-0.1 2.1-0.2 3.2-0.3 0.9-0.1 1.7-0.2 2.6-0.2 1-0.1 2-0.2 2.9-0.3 3.9-0.5 7.7-1 11.5-1.6 0.5-0.1 1-0.2 1.5-0.2 1.3-0.2 2.6-0.5 3.9-0.7 0.4-0.1 0.9-0.2 1.3-0.2 1.4-0.3 2.7-0.6 4.1-0.8 0.3-0.1 0.5-0.1 0.8-0.2 35.9-7.8 68.8-23.7 96.8-45.7-41.4 10.6-92.6 16.9-148.1 16.9-10.2 0-20.2-0.2-30-0.6 12.3 12.9 25.9 24.5 40.7 34.5-3.8-0.1-7.3 0.2-10.9 0.2 1.9 0 3.8 0 5.7-0.1 0.6 0 1.3 0 1.9-0.1 1.3 0 2.6 0 3.9-0.1z"/>
<path class="jupiterC" d="m221.2 479.2c-1.1-0.1-2.1-0.1-3.2-0.2-6-0.5-11.9-1.3-17.8-2.3-1-0.2-1.9-0.3-2.9-0.5-12.5-2.2-24.6-5.4-36.3-9.5-0.4-0.1-0.8-0.2-1.1-0.4-5.9-2.1-11.7-4.4-17.4-7-0.4-0.2-0.7-0.3-1.1-0.5-11-5-21.6-10.7-31.6-17.2 23.7 15.4 50.4 26.7 78.9 32.9 0.3 0.1 0.5 0.1 0.8 0.2 1.4 0.3 2.7 0.6 4.1 0.8 0.4 0.1 0.8 0.2 1.3 0.2 1.3 0.2 2.6 0.5 3.9 0.7 0.5 0.1 1 0.2 1.5 0.2 3.8 0.6 7.7 1.2 11.5 1.6 1 0.1 1.9 0.2 2.9 0.3 0.9 0.1 1.7 0.2 2.6 0.2 1 0.1 2.1 0.2 3.1 0.3 0.8 0.1 1.6 0.1 2.5 0.2 1.1 0.1 2.2 0.2 3.4 0.2 0.8 0 1.5 0.1 2.3 0.1 1.3 0.1 2.5 0.1 3.8 0.1 0.6 0 1.3 0 1.9 0.1 1.9 0 3.8 0.1 5.7 0.1-6.3 0.2-12.6-0.1-18.8-0.6z"/>
<path class="jupiterC" d="m98.7 430.5c-0.3-0.1-0.6-0.1-0.9-0.2 0.3 0 0.6 0.1 0.9 0.2z"/>
<path class="jupiterC" d="m104.9 431.9z"/>
<polygon class="jupiterC" points="91.9 428.8 91.9 428.8"/>
<path class="jupiterC" d="m98.3 433.6c3.6 2.7 7.3 5.2 11.1 7.6-3.8-2.4-7.5-5-11.1-7.6z"/>
<path class="jupiterC" d="m91.9 428.8c1.7 1.3 3.4 2.6 5.2 3.9-1.8-1.3-3.5-2.6-5.2-3.9z"/>
<path class="jupiterC" d="m144.1 273.7c0.5-19.4 3.4-38.3 8.2-56.3h-0.1c-64.2-8.4-115.6-25.6-141.9-47.4-1.5 5.1-2.9 10.3-4.1 15.5-0.2 0.8-0.4 1.7-0.6 2.5-1.2 5.3-2.2 10.7-3 16.2v0.2c-0.8 5.1-1.3 10.4-1.8 15.6l-0.3 3.9c-0.3 5.2-0.5 10.6-0.5 16.1 0-4 0.3-8 0.4-11.9 29.3 20.8 80.7 37.2 143.7 45.6z"/>
<path class="jupiterE" d="m1.2 263.6v0.2c0.6 0.7 1.2 1.4 1.9 2.1 0.2 0.2 0.3 0.4 0.5 0.6l1.8 1.8 0.3 0.3c0.7 0.7 1.5 1.4 2.3 2.1 0.1 0.1 0.2 0.2 0.4 0.3 0.7 0.6 1.5 1.3 2.2 1.9 0.1 0.1 0.2 0.2 0.3 0.2 25.7 21.1 75 37.8 136.6 46.4-2.3-12.9-3.5-26-3.5-39.5 0-2.1 0.1-4.2 0.2-6.3h-0.1c-63-8.4-114.3-24.8-143.6-45.6-0.2 3.9-0.5 7.9-0.5 11.9s0.1 8 0.3 12c0.2 3.9 0.5 7.7 0.9 11.6z"/>
<path class="jupiterA" d="m176.2 160c6.7-11.5 14.3-22.4 22.7-32.6-32.3-1.9-62.5-5.9-89.3-11.6l-4.2-0.9c-0.3-0.1-0.6-0.1-0.9-0.2-1.3-0.3-2.6-0.6-3.9-0.9-0.3-0.1-0.7-0.2-1-0.2-3.9-0.9-7.7-1.9-11.5-2.9-0.5-0.1-1-0.3-1.4-0.4-0.9-0.3-1.9-0.5-2.8-0.8l-2.1-0.6c-0.9-0.2-1.7-0.5-2.5-0.7s-1.5-0.4-2.3-0.7c-0.8-0.2-1.5-0.5-2.3-0.7-0.9-0.3-1.8-0.6-2.6-0.8-0.6-0.2-1.2-0.4-1.9-0.6-1.4-0.5-2.9-0.9-4.3-1.4-0.5-0.2-1-0.3-1.5-0.5-1-0.3-2-0.7-2.9-1-0.6-0.2-1.1-0.4-1.7-0.6-0.9-0.3-1.8-0.7-2.7-1-0.5-0.2-1.1-0.4-1.6-0.6-0.9-0.4-1.9-0.7-2.8-1.1-0.4-0.2-0.9-0.3-1.3-0.5-1.4-0.5-2.7-1.1-4-1.6-2.9 3.9-5.6 7.9-8.3 12-0.4 0.6-0.8 1.2-1.1 1.8-2.6 4.1-5.1 8.2-7.4 12.4h0.1c1.2 0.7 2.5 1.3 3.7 1.9l1.2 0.6c1 0.5 1.9 1 2.9 1.4l1.2 0.6c1.3 0.6 2.7 1.3 4.1 1.9 0.1 0 0.1 0.1 0.2 0.1l4.2 1.8c0.5 0.2 0.9 0.4 1.4 0.6 1.1 0.4 2.1 0.9 3.2 1.3 0.5 0.2 0.9 0.4 1.4 0.6 1.5 0.6 3 1.2 4.5 1.7 0.1 0 0.2 0.1 0.3 0.1 1.5 0.5 3 1.1 4.5 1.6 0.5 0.2 1 0.4 1.6 0.5 1.2 0.4 2.3 0.8 3.5 1.2 0.5 0.2 1.1 0.4 1.6 0.5 1.6 0.5 3.2 1 4.9 1.5 0.2 0.1 0.4 0.1 0.6 0.2 1.6 0.5 3.2 1 4.8 1.4 0.6 0.2 1.2 0.3 1.8 0.5 1.2 0.4 2.5 0.7 3.7 1 0.6 0.2 1.2 0.3 1.8 0.5 1.7 0.5 3.4 0.9 5.1 1.3 0.3 0.1 0.6 0.2 0.9 0.2 1.6 0.4 3.3 0.8 4.9 1.2 0.7 0.2 1.3 0.3 2 0.5 1.3 0.3 2.6 0.6 3.9 0.9 0.7 0.2 1.3 0.3 2 0.4 1.8 0.4 3.5 0.8 5.3 1.1 0.4 0.1 0.8 0.2 1.3 0.3 1.7 0.3 3.4 0.7 5 1 0.7 0.1 1.5 0.3 2.2 0.4 1.3 0.3 2.7 0.5 4 0.8 0.7 0.1 1.5 0.3 2.2 0.4 1.8 0.3 3.6 0.6 5.5 0.9 0.5 0.1 1.1 0.2 1.6 0.3 1.7 0.3 3.4 0.6 5.1 0.8 0.8 0.1 1.6 0.2 2.4 0.4 1.4 0.2 2.8 0.4 4.2 0.6l2.4 0.3c1.9 0.3 3.8 0.5 5.7 0.8 0.6 0.1 1.2 0.2 1.9 0.2 1.7 0.2 3.5 0.4 5.3 0.6 0.8 0.1 1.7 0.2 2.5 0.3 1.4 0.2 2.9 0.3 4.3 0.5 0.8 0.1 1.7 0.2 2.5 0.3 2 0.2 3.9 0.4 5.9 0.6-0.2 0.1 0 0.1 0.3 0.1z"/>
<path class="jupiterE" d="m250.7 479.5c-14.8-9.9-28.5-21.5-40.7-34.5l-0.1-0.1h-0.1c-38.3-1.6-74-6.2-104.9-13.1-2.1-0.5-4.1-0.9-6.2-1.4-0.3-0.1-0.6-0.1-0.9-0.2-2-0.5-3.9-1-5.9-1.5 1.7 1.3 3.4 2.6 5.2 3.9l1.2 0.9c3.6 2.6 7.3 5.2 11.1 7.6 0.2 0.1 0.3 0.2 0.5 0.3 10 6.5 20.6 12.3 31.6 17.2 0.4 0.2 0.7 0.3 1.1 0.5 5.7 2.5 11.5 4.9 17.4 7 0.4 0.1 0.8 0.3 1.1 0.4 11.7 4.1 23.9 7.3 36.3 9.5 1 0.2 1.9 0.4 2.9 0.5 5.9 1 11.8 1.7 17.8 2.3 1 0.1 2.1 0.2 3.2 0.2 6.1 0.7 12.4 1 18.7 1 3.6 0 7.1-0.3 10.7-0.5z"/>
<path class="jupiterA" d="m168 416c0.5-11.5-6.3-18.3-16-24-12.2-7.2-33.5-12-32 0s47.5 35.5 48 24z"/>
<ellipse class="jupiterB" cx="252" cy="216" rx="12" ry="8"/>
</svg>
