<?xml version="1.0" encoding="UTF-8"?>
<svg enable-background="new 0 0 480 480" version="1.1" viewBox="0 0 480 480" xml:space="preserve" xmlns="http://www.w3.org/2000/svg">
<style>.luneA{fill:#FFEDB9;}.luneB{fill:#FFD586;}.luneC{fill:#E7B27E;}</style>
	<path d="m258.09 0.676c1.073 0.08 2.141 0.181 3.21 0.275-1.069-0.094-2.137-0.195-3.21-0.275z" class="luneA"/>
	<path d="m246.08 0.077c0.765 0.019 1.525 0.058 2.288 0.084-0.763-0.026-1.523-0.065-2.288-0.084z" class="luneA"/>
	<path d="m252.11 0.303c0.956 0.048 1.907 0.116 2.86 0.175-0.953-0.058-1.903-0.127-2.86-0.175z" class="luneA"/>
	<path d="m0.146 247.97c-0.022-0.667-0.054-1.333-0.07-2.001 0.016 0.669 0.048 1.333 0.07 2.001z" class="luneA"/>
	<path d="m1.438 266.28c-0.095-0.869-0.191-1.738-0.276-2.609 0.085 0.872 0.182 1.74 0.276 2.609z" class="luneA"/>
	<path d="m303.56 8.525c38.557 10.583 73.23 30.554 101.44 57.281-9.513-1.147-19.176-1.806-28.998-1.806-11.109 0-22.036 0.772-32.743 2.233 0.449 0.587 0.89 1.186 1.311 1.809 9.12 13.473 8.019 30.146-2.46 37.24s-26.368 1.922-35.488-11.551c-3.803-5.618-5.822-11.79-6.132-17.594-18.17 6.019-35.374 14.151-51.329 24.104 4.281 5.44 6.841 12.298 6.841 19.759 0 17.673-14.327 32-32 32-9.635 0-18.268-4.264-24.135-11.001-39.631 42.803-63.865 100.07-63.865 163 0 68.614 28.84 130.45 75.002 174.19-77.915-9.391-144.34-56.085-180.87-121.71 40.975 73.665 119.59 123.51 209.87 123.51 132.55 0 240-107.45 240-240 0-110.54-74.741-203.61-176.44-231.48zm-117.24 177.8c3.039-2.961 8.32-2.961 11.359 0 1.438 1.52 2.32 3.598 2.32 5.68 0 2.078-0.883 4.16-2.32 5.68-1.523 1.438-3.602 2.32-5.68 2.32s-4.164-0.883-5.68-2.32c-1.445-1.52-2.32-3.602-2.32-5.68 1e-3 -2.16 0.876-4.16 2.321-5.68zm-4.64 203.36c-1.523 1.438-3.602 2.32-5.68 2.32s-4.164-0.883-5.68-2.32c-1.445-1.52-2.32-3.602-2.32-5.68 0-2.082 0.875-4.16 2.32-5.68 3.039-2.961 8.32-2.961 11.359 0 1.438 1.52 2.32 3.598 2.32 5.68 1e-3 2.079-0.882 4.161-2.319 5.68zm2.32-89.679c0-24.3 19.699-44 44-44 24.3 0 44 19.699 44 44s-19.699 44-44 44-44-19.699-44-44zm84.277 138.91c-19.656 5.263-38.845-2.626-42.861-17.622s8.663-31.419 28.319-36.683c19.656-5.263 38.845 2.626 42.861 17.622s-8.663 31.419-28.319 36.683zm57.403-145.23c-1.523 1.438-3.602 2.32-5.68 2.32s-4.164-0.883-5.68-2.32c-1.445-1.52-2.32-3.602-2.32-5.68 0-2.082 0.875-4.16 2.32-5.68 3.039-2.961 8.32-2.961 11.359 0 1.438 1.52 2.32 3.598 2.32 5.68 1e-3 2.078-0.882 4.16-2.319 5.68zm-13.68-77.68c-13.255 0-24-10.745-24-24s10.745-24 24-24 24 10.745 24 24-10.745 24-24 24zm66.398-69.68c2.797-2.883 8.242-2.961 11.281 0 1.438 1.52 2.32 3.598 2.32 5.68 0 2.078-0.883 4.16-2.32 5.68-1.523 1.438-3.602 2.32-5.68 2.32-2.164 0-4.164-0.883-5.68-2.32-1.445-1.52-2.32-3.602-2.32-5.68 1e-3 -2.16 0.876-4.16 2.399-5.68zm5.458 206.25c-8.994 8.994-21.755 10.817-28.5 4.071-6.746-6.746-4.923-19.506 4.071-28.5 8.995-8.994 21.755-10.817 28.5-4.072s4.923 19.506-4.071 28.501zm4.433-84.937c-12.304-2.028-20.085-16.971-17.381-33.376s14.871-28.059 27.174-26.031 20.085 16.971 17.381 33.376-14.871 28.059-27.174 26.031z" class="luneA"/>
	<path d="m0.435 254.29c-0.047-0.793-0.101-1.583-0.14-2.378 0.039 0.795 0.094 1.585 0.14 2.378z" class="luneA"/>
	<path d="m298.14 7.107c1.735 0.432 3.462 0.883 5.182 1.353-1.72-0.469-3.447-0.921-5.182-1.353z" class="luneA"/>
	<path d="m287.05 4.624c1.539 0.306 3.071 0.631 4.599 0.967-1.529-0.336-3.061-0.662-4.599-0.967z" class="luneA"/>
	<path d="m264.01 1.192c1.172 0.117 2.338 0.254 3.506 0.387-1.167-0.133-2.333-0.27-3.506-0.387z" class="luneA"/>
	<path d="m0.866 260.34c-0.071-0.843-0.146-1.684-0.208-2.529 0.062 0.845 0.138 1.687 0.208 2.529z" class="luneA"/>
	<path d="m292.64 5.805c1.633 0.366 3.259 0.75 4.879 1.149-1.62-0.398-3.245-0.783-4.879-1.149z" class="luneA"/>
	<path d="m269.87 1.849c1.265 0.157 2.523 0.334 3.782 0.511-1.259-0.177-2.517-0.354-3.782-0.511z" class="luneA"/>
	<path d="m275.66 2.642c1.355 0.202 2.703 0.423 4.05 0.648-1.347-0.225-2.695-0.446-4.05-0.648z" class="luneA"/>
	<path d="m281.39 3.568c1.446 0.252 2.885 0.522 4.322 0.8-1.437-0.277-2.876-0.548-4.322-0.8z" class="luneA"/>
	<path d="m3.982 283.7c-0.167-0.907-0.327-1.817-0.484-2.728 0.157 0.911 0.317 1.82 0.484 2.728z" class="luneA"/>
	<path d="m2.149 272.15c-0.119-0.886-0.236-1.772-0.345-2.66 0.11 0.888 0.227 1.774 0.345 2.66z" class="luneA"/>
	<path d="m14.108 321.23c-1.555-4.322-2.983-8.704-4.293-13.136 1.31 4.433 2.739 8.814 4.293 13.136z" class="luneA"/>
	<path d="m17.864 330.98c-0.519-1.265-1.035-2.533-1.533-3.809 0.498 1.277 1.014 2.544 1.533 3.809z" class="luneA"/>
	<path d="m20.031 336.09c-0.549-1.254-1.093-2.512-1.621-3.777 0.528 1.265 1.072 2.522 1.621 3.777z" class="luneA"/>
	<path d="m15.854 325.92c-0.506-1.318-1.009-2.638-1.492-3.967 0.483 1.329 0.987 2.648 1.492 3.967z" class="luneA"/>
	<path d="m5.1 289.4c-0.192-0.919-0.375-1.841-0.557-2.764 0.182 0.923 0.364 1.845 0.557 2.764z" class="luneA"/>
	<path d="m7.731 300.63c-0.249-0.956-0.482-1.918-0.72-2.879 0.238 0.961 0.471 1.923 0.72 2.879z" class="luneA"/>
	<path d="m6.349 295.04c-0.219-0.931-0.424-1.867-0.632-2.802 0.208 0.935 0.414 1.871 0.632 2.802z" class="luneA"/>
	<path d="m2.998 277.95c-0.143-0.898-0.281-1.799-0.414-2.7 0.133 0.902 0.271 1.801 0.414 2.7z" class="luneA"/>
	<path d="m9.242 306.16c-0.29-1.011-0.56-2.031-0.837-3.047 0.276 1.017 0.547 2.036 0.837 3.047z" class="luneA"/>
	<path d="m24.746 346.22c-0.636-1.286-1.262-2.579-1.876-3.878 0.613 1.3 1.24 2.592 1.876 3.878z" class="luneA"/>
	<path d="m29.933 356.13c-0.771-1.391-1.526-2.791-2.269-4.198 0.743 1.407 1.499 2.807 2.269 4.198z" class="luneA"/>
	<path d="m27.283 351.21c-0.696-1.327-1.378-2.663-2.05-4.004 0.672 1.342 1.355 2.677 2.05 4.004z" class="luneA"/>
	<path d="m22.327 341.18c-0.588-1.263-1.168-2.53-1.735-3.804 0.566 1.275 1.147 2.541 1.735 3.804z" class="luneA"/>
	<path d="m211 478.19c-46.162-43.74-75.002-105.58-75.002-174.19 0-62.933 24.234-120.2 63.865-163 5.867 6.736 14.5 11 24.135 11 17.673 0 32-14.327 32-32 0-7.461-2.56-14.319-6.841-19.761 15.954-9.953 33.158-18.085 51.329-24.104 0.31 5.804 2.329 11.977 6.132 17.594 9.12 13.473 25.009 18.645 35.488 11.551s11.581-23.766 2.46-37.24c-0.422-0.623-0.862-1.222-1.311-1.809 10.707-1.459 21.634-2.231 32.743-2.231 9.822 0 19.485 0.659 28.998 1.806-28.207-26.727-62.88-46.698-101.44-57.281-0.079-0.022-0.158-0.043-0.237-0.064-1.72-0.47-3.447-0.921-5.182-1.353-0.209-0.052-0.418-0.102-0.627-0.153-1.62-0.399-3.246-0.783-4.879-1.149-0.328-0.073-0.658-0.143-0.986-0.215-1.528-0.336-3.06-0.66-4.599-0.967-0.444-0.088-0.89-0.17-1.334-0.256-1.437-0.278-2.876-0.548-4.322-0.8-0.558-0.097-1.12-0.185-1.679-0.278-1.347-0.225-2.696-0.446-4.05-0.648-0.669-0.1-1.342-0.187-2.013-0.282-1.259-0.177-2.517-0.354-3.782-0.511-0.783-0.097-1.57-0.179-2.355-0.269-1.167-0.134-2.333-0.271-3.506-0.387-0.901-0.09-1.807-0.161-2.71-0.241-1.069-0.094-2.137-0.195-3.21-0.275-1.036-0.077-2.079-0.134-3.119-0.198-0.953-0.059-1.904-0.127-2.86-0.175-1.244-0.062-2.494-0.099-3.743-0.142-0.763-0.026-1.523-0.065-2.288-0.084-2.021-0.051-4.047-0.078-6.08-0.078-132.55 0-240 107.45-240 240 0 1.997 0.027 3.988 0.076 5.973 0.016 0.669 0.049 1.334 0.07 2.001 0.043 1.314 0.086 2.628 0.15 3.937 0.039 0.795 0.093 1.585 0.14 2.378 0.069 1.176 0.137 2.351 0.223 3.522 0.062 0.845 0.137 1.686 0.208 2.529 0.093 1.112 0.187 2.223 0.296 3.33 0.085 0.872 0.181 1.74 0.276 2.609 0.117 1.071 0.236 2.141 0.367 3.208 0.109 0.889 0.226 1.775 0.345 2.66 0.139 1.037 0.282 2.072 0.434 3.105 0.133 0.902 0.271 1.802 0.414 2.7 0.16 1.009 0.327 2.015 0.5 3.02 0.157 0.911 0.316 1.821 0.484 2.728 0.18 0.98 0.37 1.957 0.562 2.932 0.182 0.923 0.364 1.845 0.557 2.764 0.198 0.948 0.408 1.893 0.617 2.837 0.208 0.935 0.414 1.871 0.632 2.802 0.213 0.907 0.439 1.81 0.662 2.713 0.237 0.96 0.471 1.923 0.72 2.879 0.217 0.833 0.448 1.659 0.673 2.489 0.277 1.017 0.547 2.036 0.837 3.047 0.185 0.646 0.384 1.286 0.574 1.929 1.31 4.433 2.738 8.814 4.293 13.136 0.086 0.239 0.167 0.481 0.254 0.72 0.483 1.329 0.986 2.649 1.492 3.967 0.16 0.418 0.315 0.839 0.477 1.255 0.498 1.276 1.014 2.544 1.533 3.809 0.183 0.445 0.361 0.893 0.546 1.336 0.528 1.266 1.072 2.523 1.621 3.777 0.187 0.427 0.371 0.856 0.561 1.282 0.567 1.274 1.147 2.542 1.735 3.804 0.181 0.388 0.36 0.776 0.543 1.163 0.614 1.299 1.24 2.592 1.876 3.878 0.162 0.328 0.324 0.655 0.488 0.981 0.672 1.342 1.354 2.677 2.05 4.004 0.126 0.241 0.254 0.481 0.381 0.722 0.744 1.407 1.498 2.808 2.269 4.198 0.067 0.12 0.134 0.239 0.201 0.359 36.522 65.626 102.95 112.32 180.86 121.71zm98.078-421.7c9.987-6.761 24.821-2.287 34.093 9.802-14.663 2.007-28.895 5.336-42.589 9.867-0.433-8.116 2.386-15.533 8.496-19.669zm-106.76-22.17c2.961-2.961 8.32-2.961 11.359 0 1.438 1.52 2.32 3.598 2.32 5.68 0 2.078-0.883 4.16-2.32 5.68-1.523 1.437-3.601 2.32-5.679 2.32s-4.164-0.883-5.68-2.32c-1.445-1.52-2.32-3.52-2.32-5.68s0.875-4.242 2.32-5.68zm-10.278 84.033c0.829-16.363 13.949-29.482 30.312-30.312 0.545-0.027 1.094-0.041 1.646-0.041 10.219 0 19.213 4.878 25.072 12.335-18.131 11.324-34.64 24.989-49.102 40.593-4.9-5.622-7.97-12.884-7.97-20.928 0-0.552 0.014-1.101 0.042-1.647zm-87.841-18.152c9.404-9.404 23.699-10.357 31.927-2.128 8.229 8.229 7.276 22.523-2.128 31.927s-23.699 10.357-31.927 2.128-7.276-22.523 2.128-31.927zm15.799 187.7c0 2.078-0.883 4.16-2.32 5.68-1.523 1.438-3.602 2.32-5.68 2.32s-4.164-0.883-5.68-2.32c-1.445-1.52-2.32-3.602-2.32-5.68 0-2.082 0.875-4.16 2.32-5.68 2.961-2.961 8.398-2.961 11.359 0 1.438 1.52 2.321 3.598 2.321 5.68zm-72-63.9c0-17.673 12.536-32 28-32s28 14.327 28 32-12.536 32-28 32-28-14.327-28-32zm29.087 101.09c9.373-9.373 27.101-6.84 39.598 5.657s15.03 30.225 5.657 39.598-27.101 6.84-39.598-5.657-15.03-30.226-5.657-39.598z" class="luneB"/>
	<ellipse cx="76" cy="224" rx="28" ry="32" class="luneC"/>
		<ellipse transform="matrix(.7071 .7071 -.7071 .7071 275.08 31.334)" cx="99.714" cy="347.71" rx="32" ry="24" class="luneC"/>
		<ellipse transform="matrix(-.7071 -.7071 .7071 -.7071 393.76 843.82)" cx="371.64" cy="340.36" rx="17.274" ry="23.032" class="luneB"/>
	<path d="m192 200c2.078 0 4.156-0.883 5.68-2.32 1.438-1.52 2.32-3.602 2.32-5.68 0-2.082-0.883-4.16-2.32-5.68-3.039-2.961-8.32-2.961-11.359 0-1.445 1.52-2.32 3.52-2.32 5.68 0 2.078 0.875 4.16 2.32 5.68 1.515 1.437 3.601 2.32 5.679 2.32z" class="luneB"/>
	<path d="m106.32 282.22c-1.445 1.52-2.32 3.598-2.32 5.68 0 2.078 0.875 4.16 2.32 5.68 1.516 1.438 3.602 2.32 5.68 2.32s4.156-0.883 5.68-2.32c1.438-1.52 2.32-3.602 2.32-5.68 0-2.082-0.883-4.16-2.32-5.68-2.961-2.961-8.399-2.961-11.36 0z" class="luneC"/>
	<path d="m314.32 282.32c-1.445 1.52-2.32 3.598-2.32 5.68 0 2.078 0.875 4.16 2.32 5.68 1.516 1.438 3.602 2.32 5.68 2.32s4.156-0.883 5.68-2.32c1.438-1.52 2.32-3.602 2.32-5.68 0-2.082-0.883-4.16-2.32-5.68-3.039-2.961-8.321-2.961-11.36 0z" class="luneB"/>
	<path d="m384 160c2.078 0 4.156-0.883 5.68-2.32 1.438-1.52 2.32-3.602 2.32-5.68 0-2.082-0.883-4.16-2.32-5.68-3.039-2.961-8.484-2.883-11.281 0-1.523 1.52-2.398 3.52-2.398 5.68 0 2.078 0.875 4.16 2.32 5.68 1.515 1.437 3.515 2.32 5.679 2.32z" class="luneB"/>
	<path d="m208 48c2.078 0 4.156-0.883 5.68-2.32 1.438-1.52 2.32-3.602 2.32-5.68 0-2.082-0.883-4.16-2.32-5.68-3.039-2.961-8.398-2.961-11.359 0-1.446 1.438-2.321 3.52-2.321 5.68s0.875 4.16 2.32 5.68c1.516 1.437 3.602 2.32 5.68 2.32z" class="luneC"/>
	<path d="m170.32 378.32c-1.445 1.52-2.32 3.598-2.32 5.68 0 2.078 0.875 4.16 2.32 5.68 1.516 1.438 3.602 2.32 5.68 2.32s4.156-0.883 5.68-2.32c1.438-1.52 2.32-3.602 2.32-5.68 0-2.082-0.883-4.16-2.32-5.68-3.039-2.961-8.321-2.961-11.36 0z" class="luneB"/>
	<circle cx="228" cy="300" r="44" class="luneB"/>
	<circle cx="312" cy="192" r="24" class="luneB"/>
		<ellipse transform="matrix(-.2587 -.966 .966 -.2587 -69.224 770.39)" cx="261.01" cy="411.76" rx="28.109" ry="36.844" class="luneB"/>
		<ellipse transform="matrix(.1627 -.9867 .9867 .1627 94.467 587.18)" cx="393.19" cy="237.93" rx="30.104" ry="22.578" class="luneB"/>
	<path d="m199.97 140.93c14.461-15.604 30.97-29.269 49.102-40.593-5.859-7.457-14.853-12.335-25.072-12.335-0.552 0-1.101 0.014-1.647 0.042-16.363 0.829-29.482 13.949-30.312 30.312-0.027 0.545-0.041 1.094-0.041 1.646 0 8.043 3.07 15.306 7.97 20.928z" class="luneC"/>
		<ellipse transform="matrix(.7071 .7071 -.7071 .7071 116.27 -50.505)" cx="119.1" cy="115.1" rx="21.071" ry="24.081" class="luneC"/>
	<path d="m300.58 76.159c13.694-4.531 27.926-7.86 42.589-9.867-9.272-12.089-24.106-16.563-34.093-9.802-6.11 4.136-8.929 11.553-8.496 19.669z" class="luneC"/>
</svg>
