<?xml version="1.0" encoding="UTF-8"?>
<svg viewBox="0 0 480 480" xmlns="http://www.w3.org/2000/svg">
<style>.marsA{fill:#FF4F19;}.marsB{fill:#DB3F3D;}.marsC{fill:#A03939;}</style>
<path class="marsA" d="m24.7 346.2c-0.6-1.3-1.3-2.6-1.9-3.9 0.7 1.3 1.3 2.6 1.9 3.9z"/>
<path class="marsA" d="m22.3 341.2c-0.6-1.3-1.2-2.5-1.7-3.8 0.6 1.3 1.1 2.5 1.7 3.8z"/>
<path class="marsA" d="m20 336.1c-0.5-1.3-1.1-2.5-1.6-3.8 0.5 1.3 1.1 2.5 1.6 3.8z"/>
<path class="marsA" d="m17.9 331c-0.5-1.3-1-2.5-1.5-3.8 0.4 1.2 0.9 2.5 1.5 3.8z"/>
<path class="marsA" d="m303.6 8.5c38.6 10.6 73.2 30.6 101.4 57.3-9.5-1.1-19.2-1.8-29-1.8-124.3 0-226.5 94.4-238.8 215.5v0.1c31.7 5.5 67.1 8.4 102.8 8.4 41.9 0 82.8-3.9 118.4-11.3 14-2.9 27.2-6.4 39.1-10.3 4.2-1.4 8.7 0.9 10.1 5.1s-0.9 8.7-5.1 10.1c-7.8 2.6-16.1 4.9-24.7 7.1-0.1 0.1-0.1 0.2-0.3 0.3l-15.7 11.7 16.3 4.5c3.5 1 5.9 4.2 5.9 7.8s-2.5 6.8-6.1 7.7c-40.3 10-88 15.3-137.9 15.3-3.5 0-6.6-2.3-7.7-5.7s0.3-7 3.2-9c2.6-1.7 2.5-4.2 2.3-5.3-0.2-1-0.8-3.5-3.8-4.3l-43.8-9.7c-0.1 0-0.1-0.1-0.2-0.1-18.6-1.4-36.8-3.5-53.9-6.4-0.1 2.8-0.2 5.6-0.2 8.3 0 54.2 18 104.2 48.3 144.3 18.6-8.5 37.7-17 56-16.3 28.8 1.3 43.5-6.9 43.7-7 3.8-2.1 8.7-0.8 10.9 3s0.9 8.7-2.9 10.9c-0.7 0.4-18.3 10.5-52.4 9.1-13.4-0.7-29.3 6.1-44.9 13.2 5.1 5.9 10.6 11.6 16.3 17-12.9-1.5-25.4-4.1-37.6-7.6h-0.1l-6-1.8c-1.2-0.4-2.5-0.8-3.7-1.2-0.5-0.2-0.9-0.3-1.4-0.5-5.4-1.8-10.7-3.8-15.9-6h0.2c-49.5-20.9-90.5-58-116.4-104.6 41.1 73.9 119.7 123.7 210 123.7 132.5 0 240-107.5 240-240 0-110.5-74.7-203.6-176.4-231.5zm-31.6 223.5h-1c-11.4 0-18.5 3.6-26.6 7.7-8.6 4.4-18.2 9.3-32.9 9.3-3.9 0-8.1-0.3-12.8-1.1-4.4-0.7-7.3-4.9-6.6-9.2 0.7-4.4 4.8-7.4 9.2-6.6 17.2 2.9 25.8-1.5 35.8-6.6 8.9-4.6 18.7-9.9 35-9.5 4.4 0.1 7.9 3.7 7.9 8.1-0.1 4.4-3.6 7.9-8 7.9zm62.3-11.1c-7.2 9.1-24.7 10.8-29.9 11-0.1 0.1-0.3 0.1-0.4 0.1-4.2 0-7.7-3.3-8-7.6-0.2-4.4 3.1-8.2 7.5-8.4 7.7-0.4 16.5-2.8 18.2-5 2.7-3.5 7.8-4.1 11.2-1.3 3.5 2.7 4.1 7.8 1.4 11.2zm-128.6 112.7c-1.5 1.5-3.6 2.4-5.7 2.4s-4.2-0.9-5.7-2.3c-1.4-1.5-2.3-3.6-2.3-5.7s0.9-4.2 2.3-5.7c3-3 8.3-3 11.4 0 1.5 1.5 2.3 3.6 2.3 5.7s-0.8 4.2-2.3 5.6zm104 40c-1.5 1.5-3.6 2.4-5.7 2.4s-4.2-0.9-5.7-2.3c-1.4-1.5-2.3-3.6-2.3-5.7s0.9-4.2 2.3-5.7c3-3 8.3-3 11.4 0 1.5 1.5 2.3 3.6 2.3 5.7s-0.8 4.2-2.3 5.6zm64-176.1c-1.5 1.5-3.6 2.4-5.7 2.4s-4.2-0.9-5.7-2.3c-1.4-1.5-2.3-3.6-2.3-5.7s0.9-4.2 2.3-5.7c3-3 8.3-3 11.4 0 1.5 1.5 2.3 3.6 2.3 5.7s-0.8 4.2-2.3 5.6zm32 32.1c-1.5 1.5-3.6 2.4-5.7 2.4s-4.2-0.9-5.7-2.3c-1.4-1.5-2.3-3.6-2.3-5.7s0.9-4.2 2.3-5.7c3-3 8.3-3 11.4 0 1.5 1.5 2.3 3.6 2.3 5.7s-0.8 4.2-2.3 5.6zm-35.9-99.1c-0.6 0.1-1.2 0.2-1.8 0.2-3.6 0-6.9-2.5-7.8-6.2-1-4.3 1.7-8.6 6-9.6 24.8-5.7 46.3-12.7 64.4-20.7 3.3 4.3 6.5 8.8 9.5 13.3-19.6 9.1-43.2 16.8-70.3 23z"/>
<path class="marsA" d="m27.3 351.2c-0.7-1.3-1.4-2.7-2-4 0.6 1.3 1.3 2.7 2 4z"/>
<path class="marsA" d="m29.9 356.1c-0.8-1.4-1.5-2.8-2.3-4.2 0.8 1.4 1.6 2.8 2.3 4.2z"/>
<path class="marsA" d="m3 278c-0.1-0.9-0.3-1.8-0.4-2.7 0.1 0.9 0.3 1.8 0.4 2.7z"/>
<path class="marsA" d="m275.7 2.6c1.4 0.2 2.7 0.4 4.1 0.6-1.4-0.1-2.8-0.4-4.1-0.6z"/>
<path class="marsA" d="m281.4 3.6c1.4 0.3 2.9 0.5 4.3 0.8-1.4-0.3-2.9-0.6-4.3-0.8z"/>
<path class="marsA" d="m0.4 254.3c0-0.8-0.1-1.6-0.1-2.4 0 0.8 0.1 1.6 0.1 2.4z"/>
<path class="marsA" d="m0.1 248c0-0.7-0.1-1.3-0.1-2 0.1 0.6 0.1 1.3 0.1 2z"/>
<path class="marsA" d="m269.9 1.8c1.3 0.2 2.5 0.3 3.8 0.5-1.3-0.1-2.6-0.3-3.8-0.5z"/>
<path class="marsA" d="m246.1 0.1c0.8 0 1.5 0.1 2.3 0.1-0.8-0.1-1.6-0.1-2.3-0.1z"/>
<path class="marsA" d="m252.1 0.3c1 0 1.9 0.1 2.9 0.2-1-0.1-1.9-0.1-2.9-0.2z"/>
<path class="marsA" d="m287.1 4.6c1.5 0.3 3.1 0.6 4.6 1-1.6-0.3-3.1-0.7-4.6-1z"/>
<path class="marsA" d="m292.6 5.8c1.6 0.4 3.3 0.8 4.9 1.1-1.6-0.3-3.2-0.7-4.9-1.1z"/>
<path class="marsA" d="m298.1 7.1c1.7 0.4 3.5 0.9 5.2 1.4-1.7-0.5-3.4-1-5.2-1.4z"/>
<path class="marsA" d="m2.1 272.1l-0.3-2.7c0.1 1 0.2 1.9 0.3 2.7z"/>
<path class="marsA" d="m1.4 266.3c-0.1-0.9-0.2-1.7-0.3-2.6 0.1 0.8 0.2 1.7 0.3 2.6z"/>
<path class="marsA" d="m0.9 260.3c-0.1-0.8-0.1-1.7-0.2-2.5 0 0.9 0.1 1.7 0.2 2.5z"/>
<path class="marsA" d="m258.1 0.7c1.1 0.1 2.1 0.2 3.2 0.3-1.1-0.1-2.1-0.2-3.2-0.3z"/>
<path class="marsA" d="m7.7 300.6c-0.2-1-0.5-1.9-0.7-2.9 0.2 1 0.5 2 0.7 2.9z"/>
<path class="marsA" d="m15.9 325.9c-0.5-1.3-1-2.6-1.5-4 0.4 1.4 0.9 2.7 1.5 4z"/>
<path class="marsA" d="m9.2 306.2c-0.3-1-0.6-2-0.8-3 0.3 0.9 0.6 2 0.8 3z"/>
<path class="marsA" d="m6.3 295c-0.2-0.9-0.4-1.9-0.6-2.8 0.2 1 0.4 1.9 0.6 2.8z"/>
<path class="marsA" d="m14.1 321.2c-1.6-4.3-3-8.7-4.3-13.1 1.3 4.4 2.8 8.8 4.3 13.1z"/>
<path class="marsA" d="m5.1 289.4c-0.2-0.9-0.4-1.8-0.6-2.8 0.2 1 0.4 1.9 0.6 2.8z"/>
<path class="marsA" d="m4 283.7c-0.2-0.9-0.3-1.8-0.5-2.7 0.2 0.9 0.3 1.8 0.5 2.7z"/>
<path class="marsA" d="m264 1.2c1.2 0.1 2.3 0.3 3.5 0.4-1.2-0.2-2.3-0.3-3.5-0.4z"/>
<path class="marsB" d="m146.5 461h-0.2c5.2 2.2 10.5 4.2 15.9 6 0.5 0.2 0.9 0.3 1.4 0.5 1.2 0.4 2.5 0.8 3.7 1.2l6 1.8h0.1c12.2 3.5 24.7 6.1 37.6 7.6-5.7-5.4-11.1-11.1-16.3-17-1.5 0.7-2.9 1.3-4.4 2-5.7 2.6-11.3 5.2-16.8 7.4-0.8-0.2-1.5-0.4-2.3-0.7-2.7-0.8-5.4-1.7-8-2.6-1.7-0.6-3.4-1.1-5.1-1.7-1.9-0.7-3.7-1.4-5.5-2.1l-6-2.4c9.3 0.2 23.4-6.1 37.2-12.4 0.2-0.1 0.4-0.2 0.7-0.3 3.3 4.4 6.7 8.7 10.3 12.9 15.7-7.1 31.5-13.9 44.9-13.2 34.1 1.5 51.6-8.6 52.4-9.1 3.8-2.2 5.1-7.1 2.9-10.9s-7.1-5.1-10.9-3c-0.1 0.1-14.9 8.2-43.7 7-18.3-0.7-37.4 7.9-56 16.3-30.4-40.1-48.4-90.1-48.4-144.3 0-2.8 0.1-5.6 0.2-8.3 17.1 2.9 35.3 5 53.9 6.4 0.1 0 0.1 0.1 0.2 0.1l43.8 9.7c3 0.8 3.7 3.3 3.8 4.3 0.2 1 0.3 3.5-2.3 5.3-2.9 2-4.2 5.6-3.2 9s4.1 5.5 7.6 5.5c49.9 0 97.6-5.3 137.9-15.4 3.5-0.9 6-4 6.1-7.7 0-3.6-2.4-6.8-5.9-7.8l-16.3-4.5 15.7-11.7 0.3-0.3c8.7-2.2 17-4.5 24.7-7.1 4.2-1.4 6.5-5.9 5.1-10.1s-5.9-6.5-10.1-5.1c-11.9 3.9-25.1 7.4-39.1 10.3-35.6 7.5-76.5 11.4-118.4 11.4-35.7 0-71.1-2.9-102.8-8.4-0.5 5.3-0.8 10.7-1 16-3.3-0.5-6.5-1.1-9.7-1.7-4.3-0.8-7.2-5-6.4-9.4 0.8-4.3 5-7.2 9.4-6.4 2.5 0.5 5.2 0.8 7.7 1.3 12.3-121 114.5-215.4 238.8-215.4 9.8 0 19.5 0.7 29 1.8-28.2-26.7-62.9-46.7-101.4-57.3-0.1 0-0.2 0-0.2-0.1-1.7-0.5-3.4-0.9-5.2-1.4-0.2-0.1-0.4-0.1-0.6-0.2-1.6-0.4-3.2-0.8-4.9-1.1-0.3-0.1-0.7-0.1-1-0.2-1.5-0.3-3.1-0.7-4.6-1-0.4-0.1-0.9-0.2-1.3-0.3-1.4-0.3-2.9-0.5-4.3-0.8-0.6-0.1-1.1-0.2-1.7-0.3-1.3-0.2-2.7-0.4-4-0.6-0.7-0.1-1.3-0.2-2-0.3-1.3-0.2-2.5-0.4-3.8-0.5l-2.4-0.3c-1.2-0.1-2.3-0.3-3.5-0.4-0.9-0.1-1.8-0.2-2.7-0.2-1.1-0.1-2.1-0.2-3.2-0.3-1-0.1-2.1-0.1-3.1-0.2s-1.9-0.1-2.9-0.2c-1.2-0.1-2.5-0.1-3.7-0.1-0.8 0-1.5-0.1-2.3-0.1-2.1 0.1-4.2 0.1-6.2 0.1-105 0-194.3 67.5-226.8 161.4 0.5-1.4 0.9-2.7 1.4-4 0.2 0.2 0.4 0.2 0.6 0.4 12.8 13.7 36.1 26.3 67.3 36.6 4.2 1.4 6.5 5.9 5.1 10.1-1.1 3.4-4.2 5.5-7.6 5.5-0.8 0-1.7-0.1-2.5-0.4-29.8-9.8-53.2-21.9-68.3-35.3 1.2-4.3 2.5-8.5 3.9-12.7-8.5 24.5-13.1 50.9-13.1 78.4 0 2 0 4 0.1 6 0 0.7 0 1.3 0.1 2 0 1.3 0.1 2.6 0.2 3.9 0 0.8 0.1 1.6 0.1 2.4 0.1 1.2 0.1 2.4 0.2 3.5 0.1 0.8 0.1 1.7 0.2 2.5l0.3 3.3c0.1 0.9 0.2 1.7 0.3 2.6 0.1 1.1 0.2 2.1 0.4 3.2l0.3 2.7c0.1 1 0.3 2.1 0.4 3.1 0.1 0.9 0.3 1.8 0.4 2.7 0.2 1 0.3 2 0.5 3 0.2 0.9 0.3 1.8 0.5 2.7 0.2 1 0.4 2 0.6 2.9s0.4 1.8 0.6 2.8c0.2 0.9 0.4 1.9 0.6 2.8s0.4 1.9 0.6 2.8 0.4 1.8 0.7 2.7c0.2 1 0.5 1.9 0.7 2.9 0.2 0.8 0.4 1.7 0.7 2.5 0.3 1 0.5 2 0.8 3 0.2 0.6 0.4 1.3 0.6 1.9 1.3 4.4 2.7 8.8 4.3 13.1 0.1 0.2 0.2 0.5 0.3 0.7 0.5 1.3 1 2.6 1.5 4 0.2 0.4 0.3 0.8 0.5 1.3 0.5 1.3 1 2.5 1.5 3.8 0.2 0.4 0.4 0.9 0.5 1.3 0.5 1.3 1.1 2.5 1.6 3.8 0.2 0.4 0.4 0.9 0.6 1.3 0.6 1.3 1.1 2.5 1.7 3.8 0.2 0.4 0.4 0.8 0.5 1.2 0.6 1.3 1.2 2.6 1.9 3.9 0.2 0.3 0.3 0.7 0.5 1 0.7 1.3 1.4 2.7 2.1 4 0.1 0.2 0.3 0.5 0.4 0.7 0.7 1.4 1.5 2.8 2.3 4.2 0.1 0.1 0.1 0.2 0.2 0.4 25.8 46.7 66.8 83.7 116.2 104.6zm23.8-386.7c3-3 8.3-3 11.4 0 1.5 1.5 2.3 3.6 2.3 5.7s-0.8 4.2-2.3 5.6c-1.5 1.5-3.6 2.4-5.7 2.4s-4.2-0.9-5.7-2.3c-1.4-1.5-2.3-3.6-2.3-5.7s0.9-4.2 2.3-5.7zm-65.5 31.7c6.2-9.7 17.3-13.8 24.7-9 7.5 4.7 8.5 16.5 2.3 26.2s-17.3 13.8-24.7 9-8.5-16.4-2.3-26.2zm-49.2 168.8c-2-9.2 2.1-17.8 9.1-19.4 7-1.5 14.3 4.7 16.3 13.9s-2.1 17.8-9.1 19.4c-7 1.5-14.3-4.7-16.3-13.9z"/>
<path class="marsB" d="m272.1 216c-16.3-0.5-26.1 4.9-35 9.5-10 5.1-18.6 9.5-35.8 6.6-4.4-0.8-8.5 2.2-9.2 6.6s2.2 8.5 6.6 9.2c4.7 0.8 8.9 1.1 12.8 1.1 14.7 0 24.2-4.9 32.9-9.3 8.1-4.1 15.2-7.7 26.6-7.7h1c4.4 0 7.9-3.5 8-7.9s-3.5-8-7.9-8.1z"/>
<path class="marsB" d="m332.9 209.7c-3.5-2.7-8.5-2.1-11.2 1.3-1.7 2.1-10.5 4.5-18.2 5-4.4 0.2-7.8 4-7.5 8.4 0.2 4.3 3.8 7.6 8 7.6h0.4c5.2-0.3 22.7-1.9 29.9-11 2.7-3.5 2.1-8.6-1.4-11.3z"/>
<ellipse class="marsC" transform="matrix(-.5369 .8437 -.8437 -.5369 278.56 76.32)" cx="118.3" cy="114.6" rx="20.9" ry="16"/>
<ellipse class="marsC" transform="matrix(.9774 -.2113 .2113 .9774 -55.942 20.583)" cx="68.3" cy="272.1" rx="13" ry="17"/>
<path class="marsC" d="m176 88c2.1 0 4.2-0.9 5.7-2.4 1.5-1.4 2.3-3.5 2.3-5.6s-0.8-4.2-2.3-5.7c-3-3-8.4-3-11.4 0-1.4 1.5-2.3 3.6-2.3 5.7s0.9 4.2 2.3 5.7c1.5 1.4 3.6 2.3 5.7 2.3z"/>
<path class="marsB" d="m362.3 186.2c-1.4 1.5-2.3 3.6-2.3 5.7s0.9 4.2 2.3 5.7c1.5 1.4 3.6 2.3 5.7 2.3s4.2-0.9 5.7-2.4c1.5-1.4 2.3-3.5 2.3-5.6s-0.8-4.2-2.3-5.7c-3.1-2.9-8.4-2.9-11.4 0z"/>
<path class="marsB" d="m394.3 218.3c-1.4 1.5-2.3 3.6-2.3 5.7s0.9 4.2 2.3 5.7c1.5 1.4 3.6 2.3 5.7 2.3s4.2-0.9 5.7-2.4c1.5-1.4 2.3-3.5 2.3-5.6s-0.8-4.2-2.3-5.7c-3.1-2.9-8.4-2.9-11.4 0z"/>
<path class="marsB" d="m194.3 322.3c-1.4 1.5-2.3 3.6-2.3 5.7s0.9 4.2 2.3 5.7c1.5 1.4 3.6 2.3 5.7 2.3s4.2-0.9 5.7-2.4c1.5-1.4 2.3-3.5 2.3-5.6s-0.8-4.2-2.3-5.7c-3.1-2.9-8.4-2.9-11.4 0z"/>
<path class="marsB" d="m298.3 362.3c-1.4 1.5-2.3 3.6-2.3 5.7s0.9 4.2 2.3 5.7c1.5 1.4 3.6 2.3 5.7 2.3s4.2-0.9 5.7-2.4c1.5-1.4 2.3-3.5 2.3-5.6s-0.8-4.2-2.3-5.7c-3.1-2.9-8.4-2.9-11.4 0z"/>
<path class="marsC" d="m120.1 284.6c-0.8 4.3 2 8.5 6.4 9.4 3.2 0.6 6.5 1.1 9.7 1.7 0.2-5.4 0.5-10.7 1-16v-0.1c-2.6-0.4-5.2-0.8-7.7-1.3-4.4-0.9-8.5 1.9-9.4 6.3z"/>
<path class="marsC" d="m77.5 209.5c0.8 0.3 1.7 0.4 2.5 0.4 3.4 0 6.5-2.1 7.6-5.5 1.4-4.2-0.9-8.7-5.1-10.1-31.3-10.3-54.5-22.9-67.3-36.6-0.2-0.2-0.4-0.2-0.6-0.4-0.5 1.3-1 2.7-1.4 4v0.1c-1.4 4.2-2.7 8.4-3.9 12.7 15.1 13.5 38.5 25.7 68.2 35.4z"/>
<path class="marsC" d="m184.4 448.3c-0.2 0.1-0.4 0.2-0.7 0.3-13.8 6.3-27.9 12.6-37.2 12.4l6 2.4c1.8 0.7 3.7 1.5 5.5 2.1 1.7 0.6 3.4 1.2 5.1 1.7 2.7 0.9 5.3 1.8 8 2.6 0.8 0.2 1.5 0.4 2.3 0.7 5.5-2.2 11.1-4.8 16.8-7.4 1.5-0.7 2.9-1.3 4.4-2-3.5-4.1-6.9-8.4-10.2-12.8z"/>
<path class="marsB" d="m430.6 94.2c-18.1 8-39.6 15-64.4 20.7-4.3 1-7 5.3-6 9.6 0.8 3.7 4.1 6.2 7.8 6.2 0.6 0 1.2-0.1 1.8-0.2 27.1-6.2 50.7-14 70.3-23-3-4.5-6.2-8.9-9.5-13.3z"/>
</svg>
