<?xml version="1.0" encoding="UTF-8"?>
<svg viewBox="0 0 512 512" xmlns="http://www.w3.org/2000/svg">
<style>.satellite4A{fill:#5C546A;}.satellite4B{fill:#B6B8BE;}.satellite4C{fill:#D5D9DE;}</style>
<path class="satellite4A" d="m511.6 501.6l-131.1-424.3c-3.8-12.3-13.4-22.1-25.6-26.1l-11.7-3.9c1.1 1.6 2.1 3.3 3 4.9 2.5 4.4 4.7 8.9 6.6 13.6 0.6 1.6 1.2 3.2 1.7 4.8s1.1 3.2 1.5 4.9l1.2 4.5h2.8c4.4 0 8 3.6 8 8v24h6.5l121.9 394.4c1.1 3.4 4.2 5.6 7.6 5.6 0.8 0 1.6-0.1 2.4-0.4 4.2-1.3 6.5-5.7 5.2-10z"/>
<path class="satellite4A" d="m152 80h2.8c2.8-11.8 7.6-22.8 14-32.7l-11.7 3.9c-12.2 4.1-21.8 13.8-25.6 26.1l-131.1 424.3c-1.3 4.2 1.1 8.7 5.3 10 0.8 0.2 1.6 0.4 2.4 0.4 3.4 0 6.6-2.2 7.6-5.6l121.8-394.4h6.5v-24c0-4.4 3.6-8 8-8z"/>
<path class="satellite4B" d="M154.8 128c10.2 43.4 47.6 76.2 93.2 79.7V128H154.8z"/>
<path class="satellite4B" d="m352.8 65.9c0.6 1.6 1.2 3.2 1.7 4.8-0.5-1.7-1.1-3.3-1.7-4.8z"/>
<path class="satellite4B" d="M248 80V56c0-4.4 3.6-8 8-8V0c-36.5 0-68.6 18.8-87.2 47.3 -6.4 9.9-11.2 20.9-14 32.7H248z"/>
<path d="m248 80h-96c-4.4 0-8 3.6-8 8v32c0 4.4 3.6 8 8 8h96v-48z" fill="#888693"/>
<path class="satellite4B" d="m360 80h-96v48h96c4.4 0 8-3.6 8-8v-32c0-4.4-3.6-8-8-8z"/>
<path class="satellite4A" d="m264 80v-24c0-4.4-3.6-8-8-8s-8 3.6-8 8v448c0 4.4 3.6 8 8 8s8-3.6 8-8v-424z"/>
<path class="satellite4C" d="M264 80V56c0-4.4-3.6-8-8-8V0c36.5 0 68.6 18.8 87.2 47.3 6.4 9.9 11.2 20.9 14 32.7H264z"/>
<path class="satellite4C" d="M357.2 128c-10.2 43.4-47.6 76.2-93.2 79.7V128H357.2z"/>
</svg>
