<?xml version="1.0" encoding="UTF-8"?>
<svg viewBox="0 0 512 512" xmlns="http://www.w3.org/2000/svg">
<style>.satellite3A{fill:#5C546A;}.satellite3B{fill:#888693;}.satellite3C{fill:#B6B8BE;}.satellite3D{fill:#D5D9DE;}.satellite3E{fill:#FFCF00;}.satellite3F{fill:#FF9300;}</style>
<path class="satellite3A" d="m304 328v8c0 4.4 3.6 8 8 8h32v-16h-40z"/>
<path class="satellite3A" d="m400 312v16h-40v16h32c4.4 0 8-3.6 8-8v-32c0-4.4-3.6-8-8-8h-32v16h40z"/>
<path class="satellite3A" d="m344 296h-32c-4.4 0-8 3.6-8 8v8h40v-16z"/>
<path class="satellite3B" d="m287 328h57v16h16v-16h40v-16h-40v-16h-16v16h-57c0.7 2.6 1 5.2 1 8s-0.3 5.4-1 8z"/>
<path class="satellite3A" d="m168 344h32c4.4 0 8-3.6 8-8v-8h-40v16z"/>
<path class="satellite3A" d="m208 312v-8c0-4.4-3.6-8-8-8h-32v16h40z"/>
<path class="satellite3A" d="m112 328v-16h40v-16h-32c-4.4 0-8 3.6-8 8v32c0 4.4 3.6 8 8 8h32v-16h-40z"/>
<path class="satellite3B" d="m225 312h-57v-16h-16v16h-40v16h40v16h16v-16h57c-0.7-2.6-1-5.2-1-8s0.4-5.4 1-8z"/>
<path class="satellite3A" d="m456 248v16h-40v16h32c4.4 0 8-3.6 8-8v-32c0-4.4-3.6-8-8-8h-32v16h40z"/>
<path class="satellite3A" d="m344 232h-32c-4.4 0-8 3.6-8 8v8h40v-16z"/>
<rect class="satellite3A" x="360" y="264" width="40" height="16"/>
<rect class="satellite3A" x="360" y="232" width="40" height="16"/>
<path class="satellite3A" d="m304 264v8c0 4.4 3.6 8 8 8h32v-16h-40z"/>
<polygon class="satellite3B" points="304 264 344 264 344 280 360 280 360 264 400 264 400 280 416 280 416 264 456 264 456 248 416 248 416 232 400 232 400 248 360 248 360 232 344 232 344 248 304 248 288 248 288 264"/>
<path class="satellite3A" d="m168 280h32c4.4 0 8-3.6 8-8v-8h-40v16z"/>
<rect class="satellite3A" x="112" y="264" width="40" height="16"/>
<rect class="satellite3A" x="112" y="232" width="40" height="16"/>
<path class="satellite3A" d="M56 264v-16H96V232H64c-4.4 0-8 3.6-8 8v32c0 4.4 3.6 8 8 8h32v-16H56z"/>
<path class="satellite3A" d="m208 248v-8c0-4.4-3.6-8-8-8h-32v16h40z"/>
<path class="satellite3B" d="m256 408h16c4.4 0 8-3.6 8-8v-36.7c0-4.3-1.7-8.3-4.7-11.3l-3.9-3.9c-4.6 2.5-9.8 3.9-15.4 3.9v56z"/>
<path class="satellite3A" d="m240.6 348.1l-3.9 3.9c-3 3-4.7 7-4.7 11.3v36.7c0 4.4 3.6 8 8 8h16v-56c-5.6 0-10.8-1.4-15.4-3.9z"/>
<path class="satellite3B" d="m256 288v-56c-10.7 0-20.4-4.2-27.6-11-2.7 2.8-4.4 6.7-4.4 11v16h-56v-16h-16v16h-40v-16h-16v16h-40v16h40v16h16v-16h40v16h16v-16h56v24c0 5.2 2.5 9.9 6.4 12.8 5.9-7.8 15.1-12.8 25.6-12.8z"/>
<path class="satellite3C" d="m256 288c10.5 0 19.7 5 25.6 12.8 3.9-2.9 6.4-7.6 6.4-12.8v-56c0-4.3-1.7-8.2-4.4-11-7.2 6.8-16.9 11-27.6 11v56z"/>
<path class="satellite3C" d="m224 168h-16v8c0 4.4-3.6 8-8 8h-24v16c0 8.8 7.2 16 16 16h32c-5-6.7-8-15-8-24s3-17.3 8-24z"/>
<path class="satellite3C" d="m400 184h-88c-4.4 0-8-3.6-8-8v-8h-16v-32c0-8.8-7.2-16-16-16h-16v32c22.1 0 40 17.9 40 40 0 9-3 17.3-8 24h136c8.8 0 16-7.2 16-16v-16h-40z"/>
<path class="satellite3A" d="m344 136h-32c-4.4 0-8 3.6-8 8v8h40v-16z"/>
<rect class="satellite3A" x="416" y="136" width="40" height="16"/>
<path class="satellite3A" d="m504 136h-32v16h40v16h-40v16h32c4.4 0 8-3.6 8-8v-32c0-4.4-3.6-8-8-8z"/>
<rect class="satellite3A" x="360" y="136" width="40" height="16"/>
<polygon class="satellite3A" points="416 168 416 184 440 184 456 184 456 168"/>
<rect class="satellite3A" x="360" y="168" width="40" height="16"/>
<path class="satellite3A" d="m312 184h32v-16h-40v8c0 4.4 3.6 8 8 8z"/>
<polygon class="satellite3B" points="512 168 512 152 472 152 472 136 456 136 456 152 416 152 416 136 400 136 400 152 360 152 360 136 344 136 344 152 304 152 288 152 288 168 304 168 344 168 344 184 360 184 360 168 400 168 400 184 416 184 416 168 456 168 456 184 472 184 472 168"/>
<rect class="satellite3A" x="112" y="136" width="40" height="16"/>
<path class="satellite3A" d="m208 152v-8c0-4.4-3.6-8-8-8h-32v16h40z"/>
<rect class="satellite3A" x="56" y="136" width="40" height="16"/>
<path class="satellite3A" d="M0 168v-16H40V136H8c-4.4 0-8 3.6-8 8v32c0 4.4 3.6 8 8 8h32v-16H0z"/>
<rect class="satellite3A" x="112" y="168" width="40" height="16"/>
<rect class="satellite3A" x="56" y="168" width="40" height="16"/>
<path class="satellite3A" d="m208 176v-8h-40v16h32c4.4 0 8-3.6 8-8z"/>
<path class="satellite3B" d="m208 168h16c7.3-9.7 18.9-16 32-16v-32h-16c-8.8 0-16 7.2-16 16v16h-56v-16h-16v16h-40v-16h-16v16h-40v-16h-16v16h-40v16h40v16h16v-16h40v16h16v-16h40v16h16v-16h40z"/>
<path class="satellite3A" d="m264 120v-8c0-4.4-3.6-8-8-8s-8 3.6-8 8v8h16z"/>
<path class="satellite3D" d="m256 152c-13.1 0-24.7 6.3-32 16-5 6.7-8 15-8 24s3 17.3 8 24c1.3 1.8 2.8 3.4 4.4 5 7.2 6.8 16.9 11 27.6 11s20.4-4.2 27.6-11c1.6-1.5 3.1-3.2 4.4-5 5-6.7 8-15 8-24 0-22.1-17.9-40-40-40zm-24 40c0-13.3 10.7-24 24-24s24 10.7 24 24-10.7 24-24 24-24-10.7-24-24z"/>
<path class="satellite3D" d="m256 288c-10.5 0-19.7 5-25.6 12.8-2.5 3.3-4.3 7.1-5.4 11.2-0.7 2.6-1 5.2-1 8s0.3 5.4 1 8c2.2 8.6 8 15.9 15.6 20.1 4.6 2.5 9.8 3.9 15.4 3.9s10.8-1.4 15.4-3.9c7.6-4.2 13.4-11.4 15.6-20.1 0.7-2.6 1-5.2 1-8s-0.4-5.4-1-8c-1.1-4.1-2.9-7.9-5.4-11.2-5.9-7.8-15.1-12.8-25.6-12.8zm-16 32c0-7.6 5.4-14 12.5-15.6 0.2 0 0.3-0.1 0.5-0.1 1-0.2 2-0.3 3-0.3 1.1 0 2.2 0.1 3.2 0.3 1.3 0.3 2.5 0.7 3.7 1.3 3 1.5 5.6 3.8 7.2 6.8v0.1c0.4 0.8 0.8 1.6 1 2.4 0.1 0.4 0.2 0.8 0.3 1.1 0.2 0.8 0.4 1.6 0.4 2.4 0.1 0.5 0.1 1.1 0.1 1.6 0 8.8-7.2 16-16 16-8.7 0-15.9-7.2-15.9-16z"/>
<path class="satellite3C" d="m280 192c0-13.3-10.7-24-24-24s-24 10.7-24 24 10.7 24 24 24 24-10.7 24-24zm-24 16c-8.8 0-16-7.2-16-16 0-7.6 5.4-14 12.5-15.6 0.2 0 0.3-0.1 0.5-0.1 1-0.2 2-0.3 3-0.3 1.1 0 2.2 0.1 3.2 0.3 1.3 0.3 2.5 0.7 3.7 1.3 3 1.5 5.6 3.8 7.2 6.8v0.1c0.4 0.8 0.8 1.6 1 2.4 0.1 0.4 0.2 0.8 0.3 1.1 0.3 1.3 0.5 2.6 0.5 4 0.1 8.8-7.1 16-15.9 16z"/>
<path class="satellite3E" d="m253 176.3c1-0.2 2-0.3 3-0.3-1 0-2 0.1-3 0.3z"/>
<path class="satellite3E" d="m271.1 186.8c0.1 0.4 0.2 0.8 0.3 1.1 0-0.3-0.1-0.7-0.3-1.1z"/>
<path class="satellite3E" d="m256 176c1.1 0 2.2 0.1 3.2 0.3-1-0.2-2.1-0.3-3.2-0.3z"/>
<path class="satellite3E" d="m270.1 184.4v0.1-0.1z"/>
<line class="satellite3E" x1="244.7" x2="244.7" y1="180.7" y2="180.7"/>
<path class="satellite3E" d="m240 192c0 8.8 7.2 16 16 16 4.4 0 8.4-1.8 11.3-4.7l-22.6-22.6c-2.9 2.9-4.7 6.9-4.7 11.3z"/>
<path class="satellite3E" d="m259.2 176.3c1.3 0.3 2.5 0.7 3.7 1.3-1.2-0.6-2.4-1-3.7-1.3z"/>
<path class="satellite3F" d="m256 304c1.1 0 2.2 0.1 3.2 0.3-1-0.2-2.1-0.3-3.2-0.3z"/>
<path class="satellite3F" d="m259.2 304.3c1.3 0.3 2.5 0.7 3.7 1.3-1.2-0.6-2.4-1-3.7-1.3z"/>
<path class="satellite3F" d="m253 304.3c1-0.2 2-0.3 3-0.3-1 0-2 0.1-3 0.3z"/>
<path class="satellite3F" d="m240 320c0 8.8 7.2 16 16 16 4.4 0 8.4-1.8 11.3-4.7l-22.6-22.6c-2.9 2.9-4.7 6.9-4.7 11.3z"/>
<path class="satellite3F" d="m271.1 314.8c0.1 0.4 0.2 0.8 0.3 1.1 0-0.3-0.1-0.7-0.3-1.1z"/>
<path class="satellite3F" d="m270.1 312.4v0.1-0.1z"/>
<path d="m271.1 186.8c-0.3-0.8-0.6-1.7-1-2.4v-0.1c-1.6-3-4.1-5.3-7.2-6.8-1.2-0.6-2.4-1-3.7-1.3-1-0.2-2.1-0.3-3.2-0.3-1 0-2 0.1-3 0.3-0.2 0-0.3 0.1-0.5 0.1-3 0.7-5.7 2.2-7.8 4.3l22.6 22.6c2.9-2.8 4.7-6.8 4.7-11.2 0-1.4-0.2-2.7-0.5-4-0.1-0.4-0.2-0.8-0.4-1.2z" fill="#FFEDB9"/>
<path class="satellite3E" d="m267.3 331.3c2.9-2.9 4.7-6.9 4.7-11.3 0-0.6 0-1.1-0.1-1.6-0.1-0.8-0.2-1.6-0.4-2.4-0.1-0.4-0.2-0.8-0.3-1.1-0.3-0.8-0.6-1.7-1-2.4v-0.1c-1.6-3-4.1-5.3-7.2-6.8-1.2-0.6-2.4-1-3.7-1.3-1-0.2-2.1-0.3-3.2-0.3-1 0-2 0.1-3 0.3-0.2 0-0.3 0.1-0.5 0.1-3 0.7-5.7 2.2-7.8 4.3l22.5 22.6z"/>
</svg>
