<?xml version="1.0" encoding="UTF-8"?>
<svg viewBox="0 0 512 512" xmlns="http://www.w3.org/2000/svg">
<style>.satellite1A{fill:#5C546A;}.satellite1B{fill:#888693;}.satellite1C{fill:#B6B8BE;}.satellite1D{fill:#FFCF00;}.satellite1E{fill:#FF9300;}</style>
<polygon points="256 59.3 243.3 72 256 72 268.7 72" fill="none"/>
<polygon class="satellite1A" points="232 416 232 432 256 432 280 432 280 416 256 416"/>
<path class="satellite1B" d="m240 456h16v-24h-32c-8.8 0-16 7.2-16 16v48c0 8.8 7.2 16 16 16h8v-48c0-4.4 3.6-8 8-8z"/>
<path class="satellite1C" d="m256 456h16c4.4 0 8 3.6 8 8v48h8c8.8 0 16-7.2 16-16v-48c0-8.8-7.2-16-16-16h-32v24z"/>
<rect class="satellite1A" x="88" y="280" width="72" height="48"/>
<path class="satellite1A" d="m88 392h48c13.2 0 24-10.8 24-24v-24h-72v48z"/>
<rect class="satellite1A" y="280" width="72" height="48"/>
<path class="satellite1A" d="M0 344v24c0 13.2 10.8 24 24 24h48v-48H0z"/>
<rect class="satellite1A" y="216" width="72" height="48"/>
<rect class="satellite1A" x="88" y="216" width="72" height="48"/>
<path class="satellite1A" d="M72 152H24c-13.2 0-24 10.8-24 24v24h72V152z"/>
<path class="satellite1A" d="m160 200v-24c0-13.2-10.8-24-24-24h-48v48h72z"/>
<polygon class="satellite1B" points="160 264 88 264 88 216 160 216 160 200 88 200 88 152 72 152 72 200 0 200 0 216 72 216 72 264 0 264 0 280 72 280 72 328 0 328 0 344 72 344 72 392 88 392 88 344 160 344 160 328 88 328 88 280 160 280 176 280 176 264"/>
<rect class="satellite1A" x="440" y="280" width="72" height="48"/>
<path class="satellite1A" d="m352 344v24c0 13.2 10.8 24 24 24h48v-48h-72z"/>
<path class="satellite1A" d="m440 392h48c13.2 0 24-10.8 24-24v-24h-72v48z"/>
<rect class="satellite1A" x="352" y="280" width="72" height="48"/>
<path class="satellite1A" d="m424 152h-48c-13.2 0-24 10.8-24 24v24h72v-48z"/>
<rect class="satellite1A" x="440" y="216" width="72" height="48"/>
<path class="satellite1A" d="m488 152h-48v48h72v-24c0-13.2-10.8-24-24-24z"/>
<rect class="satellite1A" x="352" y="216" width="72" height="48"/>
<polygon class="satellite1B" points="440 152 424 152 424 200 352 200 352 216 424 216 424 264 352 264 336 264 336 280 352 280 424 280 424 328 352 328 352 344 424 344 424 392 440 392 440 344 512 344 512 328 440 328 440 280 512 280 512 264 440 264 440 216 512 216 512 200 440 200"/>
<path class="satellite1A" d="m272 200v-17.2c-5.2 0.8-10.6 1.2-16 1.2s-10.8-0.4-16-1.2v17.2h32z"/>
<path class="satellite1D" d="m336 216c0-8.8-7.2-16-16-16h-64v40h16c13.3 0 24 10.7 24 24v152h16c13.2 0 24-10.8 24-24v-176z"/>
<path class="satellite1E" d="m240 240h16v-40h-64c-8.8 0-16 7.2-16 16v176c0 13.2 10.8 24 24 24h16v-152c0-13.3 10.7-24 24-24z"/>
<path class="satellite1A" d="M256 59.3L268.7 72h22.6L264 44.7v-5.8c-1.2 0.7-2.5 1.1-4 1.1h-8c-1.5 0-2.8-0.4-4-1.1v5.8L220.7 72h22.6L256 59.3z"/>
<path class="satellite1B" d="m256 72h-87.6c-4.5 0-8.8 1.9-11.8 5.2s-4.6 7.8-4.1 12.3c4.4 48.4 40.9 86.2 87.6 93.2 5.2 0.8 10.6 1.2 16 1.2v-111.9z"/>
<path class="satellite1D" d="m260 40c1.5 0 2.8-0.4 4-1.1 2.4-1.4 4-4 4-6.9v-24c0-4.4-3.6-8-8-8h-8c-4.4 0-8 3.6-8 8v24c0 3 1.6 5.5 4 6.9 1.2 0.7 2.5 1.1 4 1.1h8z"/>
<path d="m256 240h-16c-13.3 0-24 10.7-24 24v152h40v-176z" fill="#FF7400"/>
<path class="satellite1C" d="m256 72v112c5.4 0 10.8-0.4 16-1.2 46.7-7.1 83.2-44.8 87.6-93.2 0.4-4.5-1.1-9-4.1-12.3-3.1-3.4-7.4-5.3-11.9-5.3h-87.6z"/>
<path class="satellite1E" d="m272 240h-16v176h40v-152c0-13.3-10.7-24-24-24z"/>
<path class="satellite1A" d="m240 456c-4.4 0-8 3.6-8 8v48h24v-56h-16z"/>
<path class="satellite1B" d="m272 456h-16v56h24v-48c0-4.4-3.6-8-8-8z"/>
</svg>
