<?xml version="1.0" encoding="UTF-8"?>
<svg viewBox="0 107 502.7 288.7" xmlns="http://www.w3.org/2000/svg">
<style>.saturneA{fill:none;}.saturneB{fill:#B68057;}.saturneC{fill:#FFD042;}.saturneD{fill:#DBB246;}.saturneE{fill:#D49E6C;}</style>
<path class="saturneA" d="m395.4 251.4v2.9-2.9z"/>
<path class="saturneB" d="m434.6 175.6c-0.7-1.7-6-4.6-20.3-4.6-8.9 0-21.3 1.1-38.2 4.3-38.6 7.3-87.6 22.8-138 43.7s-96 44.6-128.4 66.7c-37.2 25.4-42.4 38.9-41.2 41.6 1.7 4.2 19.5 7.8 60.6-0.1-1.2-1.9-2.3-3.9-3.4-5.9 0-0.1-0.1-0.1-0.1-0.2-0.5-0.8-0.9-1.7-1.4-2.5-0.1-0.1-0.2-0.3-0.2-0.4l-1.2-2.4-0.3-0.6c-0.4-0.8-0.8-1.5-1.1-2.3-0.1-0.2-0.2-0.5-0.3-0.7-0.4-0.8-0.7-1.5-1-2.3-0.1-0.3-0.2-0.5-0.3-0.8-0.3-0.8-0.7-1.5-1-2.3 5.5-10.3 33.9-28.7 74-48.4 15.8-7.8 33.4-15.7 52.1-23.5 66.3-27.5 124.4-43.1 140-38.4 2.9 7 5.3 14.3 7 21.8 34.4-23.4 44.4-38.6 42.7-42.7z"/>
<path class="saturneC" d="m279.7 110.1c0.9 0.2 1.8 0.4 2.8 0.6-1-0.2-1.9-0.4-2.8-0.6z"/>
<path class="saturneC" d="m286.3 111.6c1 0.3 2.1 0.5 3.1 0.8-1-0.2-2-0.5-3.1-0.8z"/>
<path class="saturneC" d="m283 110.9c1 0.2 2 0.5 2.9 0.7-0.9-0.3-1.9-0.5-2.9-0.7z"/>
<path class="saturneC" d="m395.4 254.2v-2.9-2.3c-0.1-3.1-0.2-6.2-0.5-9.2-0.6-7.3-1.8-14.5-3.4-21.4 0 0 0.1 0 0.1-0.1-1.8-7.5-4.1-14.8-7-21.8-15.6-4.7-73.7 10.9-140 38.4-18.7 7.8-36.3 15.7-52.1 23.5-2.2 10.1-3.4 20.6-3.4 31.4 0 41.2 17.3 78.3 45 104.5-25.1-3-48.1-12.5-67.5-26.7 23.8 17.4 53.2 27.7 85 27.7 72 0 131.7-52.9 142.3-121.9-0.1 0-0.1 0.1-0.2 0.1 0.8-6.2 1.5-12.7 1.7-19.3z"/>
<path class="saturneC" d="m336.4 135.1c-13.9-10.2-29.7-17.9-46.8-22.6 17.1 4.7 32.8 12.4 46.7 22.6h0.1z"/>
<path class="saturneC" d="m272.8 109c0.8 0.1 1.6 0.3 2.4 0.4-0.8-0.2-1.6-0.3-2.4-0.4z"/>
<path class="saturneC" d="m269.4 108.5c0.8 0.1 1.5 0.2 2.3 0.3-0.8-0.1-1.6-0.2-2.3-0.3z"/>
<path class="saturneC" d="m265.8 108.1c0.7 0.1 1.4 0.2 2.1 0.2-0.7-0.1-1.4-0.1-2.1-0.2z"/>
<path class="saturneC" d="m262.3 107.8c0.6 0 1.3 0.1 1.9 0.2-0.6-0.1-1.3-0.2-1.9-0.2z"/>
<path class="saturneC" d="m255.1 107.4c0.5 0 0.9 0 1.3 0.1-0.4 0-0.9-0.1-1.3-0.1z"/>
<path class="saturneC" d="m258.7 107.6c0.6 0 1.1 0.1 1.7 0.1-0.6-0.1-1.1-0.1-1.7-0.1z"/>
<path class="saturneC" d="m276.3 109.5c0.9 0.2 1.7 0.3 2.6 0.5-0.9-0.2-1.8-0.3-2.6-0.5z"/>
<path class="saturneC" d="m129 327.1c-1.2-1.9-2.3-3.9-3.5-5.9 1.1 2 2.3 3.9 3.4 5.9h0.1z"/>
<path class="saturneC" d="m119.8 309.8c0.3 0.8 0.7 1.5 1 2.3-0.3-0.8-0.7-1.5-1-2.3z"/>
<path class="saturneC" d="m122.6 315.7l1.2 2.4-1.2-2.4z"/>
<path class="saturneC" d="m124 318.5c0.4 0.8 0.9 1.7 1.4 2.5-0.5-0.8-0.9-1.6-1.4-2.5z"/>
<path class="saturneC" d="m121.2 312.8c0.4 0.8 0.7 1.6 1.1 2.3-0.4-0.8-0.8-1.5-1.1-2.3z"/>
<path class="saturneC" d="m118.5 306.8c0.3 0.8 0.6 1.5 1 2.3-0.4-0.8-0.7-1.6-1-2.3z"/>
<path class="saturneD" d="m189 289.8c0-10.8 1.2-21.3 3.4-31.4-40.1 19.7-68.5 38.1-74 48.4 0.3 0.8 0.6 1.5 1 2.3 0.1 0.3 0.2 0.5 0.3 0.8 0.3 0.8 0.7 1.5 1 2.3 0.1 0.2 0.2 0.5 0.3 0.7 0.4 0.8 0.7 1.6 1.1 2.3l0.3 0.6 1.2 2.4c0.1 0.1 0.2 0.3 0.2 0.4 0.4 0.8 0.9 1.7 1.4 2.5 0 0.1 0.1 0.1 0.1 0.2 1.1 2 2.3 3.9 3.5 5.9h0.2c3.8 6.1 8 11.9 12.6 17.3h0.2c2 2.3 4 4.6 6.1 6.8h-0.1c5.8 6 12 11.5 18.8 16.4h-0.1c19.4 14.2 42.5 23.6 67.5 26.7-27.7-26.4-45-63.5-45-104.6z"/>
<path class="saturneD" d="m336.3 135.1c-13.9-10.2-29.7-17.9-46.7-22.6h-0.1c-1-0.3-2.1-0.6-3.1-0.8-0.1 0-0.2-0.1-0.4-0.1-1-0.2-1.9-0.5-2.9-0.7-0.2 0-0.4-0.1-0.6-0.1-0.9-0.2-1.8-0.4-2.8-0.6-0.3-0.1-0.5-0.1-0.8-0.2-0.9-0.2-1.7-0.3-2.6-0.5-0.3-0.1-0.7-0.1-1-0.2-0.8-0.1-1.6-0.3-2.4-0.4-0.4-0.1-0.8-0.1-1.2-0.2-0.8-0.1-1.5-0.2-2.3-0.3-0.5-0.1-0.9-0.1-1.4-0.2-0.7-0.1-1.4-0.2-2.1-0.2-0.5-0.1-1.1-0.1-1.6-0.1-0.6-0.1-1.3-0.1-1.9-0.2-0.6 0-1.2-0.1-1.9-0.1-0.6 0-1.1-0.1-1.7-0.1-0.8 0-1.5-0.1-2.3-0.1h-1.3-3.6c-72 0-131.7 52.9-142.3 121.9 33.5-20.2 71.7-39.3 110.3-55.3 40-16.6 79.9-29.8 116.7-38.9z"/>
<path class="saturneE" d="m500.4 148.2c-9.4-22.6-43.8-31.2-99.5-25-19.9 2.2-41.6 6.2-64.6 11.9-36.8 9.1-76.7 22.3-116.9 39-38.6 16-76.8 35.1-110.3 55.3-71.2 42.9-120.8 90.9-106.7 125.1 7.4 17.8 31.4 26.9 68.1 26.9 26 0 58.5-4.6 95.9-13.8h0.1c-6.7-4.9-13-10.4-18.8-16.4-27.1 6-51.1 9.1-70.2 9.1-25.1 0-41.9-5.4-46.5-16.6-13.1-31.7 75.1-98.3 197.1-148.6 78.7-32.5 152.2-50.3 198-50.3 25.1 0 41.9 5.4 46.5 16.6 8.2 19.8-23.1 53.1-77.3 87.6v2.3 2.9c-0.2 6.6-0.9 13-1.9 19.4 0.1 0 0.1-0.1 0.2-0.1 79.6-48.1 119.5-94.8 106.8-125.3z"/>
<path class="saturneE" d="m231.3 202.4c-132.3 54.6-201.4 117.3-192.8 138.2 3.1 7.4 17.3 11.7 39.2 11.7 17.9 0 39.7-2.8 64-7.9-4.6-5.4-8.8-11.2-12.6-17.3h-0.2c-41.1 8-58.9 4.3-60.6 0.1-1.1-2.7 4-16.2 41.3-41.6 32.4-22.1 78-45.8 128.4-66.7s99.4-36.4 138-43.7c17-3.2 29.3-4.3 38.3-4.3 14.4 0 19.6 2.9 20.3 4.6 1.7 4.2-8.3 19.4-42.9 42.8 0 0-0.1 0-0.1 0.1 1.7 7 2.8 14.1 3.4 21.4 51.1-33.3 75.8-62.4 70.4-75.3-3.1-7.4-17.3-11.7-39.1-11.7v-8 8c-46.8 0-119.7 18.5-195 49.6z"/>
<path class="saturneB" d="m141.9 344.4h-0.2c-24.3 5.1-46.1 7.9-64 7.9-21.8 0-36.1-4.3-39.2-11.7-8.6-20.9 60.5-83.6 192.7-138.2 75.4-31.1 148.2-49.7 194.9-49.7v-8c-45.8 0-119.3 17.8-198 50.3-121.8 50.4-210.1 116.9-197 148.7 4.6 11.3 21.4 16.6 46.5 16.6 19.1 0 43.1-3.1 70.2-9.1h0.1c-2-2.2-4-4.5-6-6.8z"/>
<line class="saturneA" x1="426.2" x2="426.2" y1="144.8" y2="144.8"/>
<path class="saturneB" d="m465.3 164.4c5.4 13-19.3 42.1-70.4 75.3 0.3 3 0.4 6.1 0.5 9.2 54.3-34.5 85.5-67.8 77.3-87.6-4.6-11.3-21.4-16.6-46.5-16.6v8c21.8 0.1 36.1 4.3 39.1 11.7z"/>
</svg>
