<?xml version="1.0" encoding="UTF-8"?>
<svg enable-background="new 0 0 480 480" version="1.1" viewBox="0 0 480 480" xml:space="preserve" xmlns="http://www.w3.org/2000/svg">
	<style>.terreA{fill:#48BBEE;}.terreB{fill:#0E94D7;}.terreC{fill:#00E389;}.terreD{fill:#0bb;}.terreE{fill:#FFEDB9;}.terreF{fill:#FFD586;}</style>
	<path d="m291.96 5.659c1.551 0.343 3.097 0.7 4.637 1.073-1.54-0.373-3.086-0.731-4.637-1.073z" class="terreA"/>
	<path d="m286.58 4.534c0.863 0.17 1.726 0.337 2.585 0.516-0.859-0.179-1.723-0.346-2.585-0.516z" class="terreA"/>
	<path d="m298.52 7.201c1.054 0.265 2.106 0.537 3.154 0.815-1.049-0.278-2.1-0.551-3.154-0.815z" class="terreA"/>
	<path d="m303.23 8.435c3.797 1.036 7.558 2.158 11.277 3.374-3.72-1.215-7.479-2.34-11.277-3.374z" class="terreA"/>
	<path d="m245.56 0.07c0.554 0.013 1.107 0.031 1.66 0.047-0.553-0.016-1.106-0.034-1.66-0.047z" class="terreA"/>
	<path d="m315.07 11.99c1.303 0.429 2.602 0.868 3.895 1.319-1.293-0.45-2.591-0.89-3.895-1.319z" class="terreA"/>
	<path d="m251.29 0.272c0.553 0.026 1.106 0.049 1.658 0.078-0.552-0.029-1.105-0.052-1.658-0.078z" class="terreA"/>
	<path d="m258.34 0.692c0.267 0.02 0.532 0.047 0.798 0.068-0.266-0.021-0.531-0.048-0.798-0.068z" class="terreA"/>
	<path d="m276.21 2.719c0.631 0.096 1.259 0.204 1.888 0.304-0.629-0.101-1.256-0.209-1.888-0.304z" class="terreA"/>
	<path d="m206.3 187.7c8.57 0 16.961 2.504 24.234 7.316l20.541 13.599c4.106 2.718 9.235 3.395 13.905 1.833l36.952-12.354 6.18-5.582c3.703-3.344 5.813-8.125 5.797-13.117-0.023-4.273-1.602-8.379-4.391-11.551l-39.044 11.585c-1.349 0.4-2.809 0.064-3.847-0.886l-26.227-24.004c-1.742-1.598-3.68-0.977-4.227-0.746-0.547 0.227-2.359 1.152-2.469 3.504l2.258 17.809c0.203 1.648-0.633 3.254-2.109 4.027-1.469 0.773-3.273 0.559-4.516-0.547l-21.773-19.305c-7.484-3.953-16.664-2.773-22.937 3.035l-6.962 17.486c-1.093 2.745-2.924 5.134-5.291 6.902l-11.052 8.253 37.273-6.578c2.564-0.452 5.142-0.679 7.705-0.679z" class="terreA"/>
	<path d="m319.17 13.384c19.196 6.712 37.28 15.794 53.904 26.892-0.019 1e-3 -0.039 2e-3 -0.058 3e-3 16.745 11.175 32.006 24.396 45.422 39.314l0.018-0.034c7.273 8.084 13.975 16.683 20.102 25.705 0.203 0.298 0.405 0.596 0.606 0.896 2.433 3.617 4.77 7.302 7.008 11.055 0.335 0.562 0.667 1.125 0.998 1.689 1.702 2.907 3.366 5.839 4.949 8.822l-0.012 0.039c13.481 25.433 22.533 53.577 26.106 83.412-0.566 0.07-1.146 0.081-1.708-0.09l-77.07-24.492 3.594 15.977c0.758 3.348 2.82 6.117 5.805 7.809 2.984 1.688 6.422 2.02 9.672 0.945l8.898-2.945c1.227-0.41 2.555-0.207 3.602 0.555 1.039 0.75 1.656 1.957 1.656 3.242v21.749c0 8.867-4.203 17.208-11.328 22.485l-22.887 18.405c-3.526 2.835-8.699 2.185-11.413-1.435l-37.037-49.383c-3.905-5.207-9.306-9.1-15.481-11.158l-14.518-4.841 60.539 78.621c5.438 4.527 12.445 6.926 19.836 6.414l11.359-0.777c1.227-0.055 2.43 0.402 3.258 1.324 0.82 0.922 1.172 2.168 0.953 3.383l-4.672 25.75c-0.156 0.84-0.57 1.609-1.195 2.195l-46.875 44.164-35.023 88.531c-0.453 1.152-1.422 2.031-2.617 2.371-4.414 1.27-8.906 1.895-13.367 1.895-8.133 0-16.18-2.082-23.476-6.176-11.227-6.293-19.289-16.566-22.703-28.934-2.703-9.797-4.016-16.324-4.016-19.957v-33.391l-5.406-2.078c-12.453-4.789-23.461-12.805-31.844-23.18l-12.375-15.328-53.172 9.492c-2.295 0.415-4.596 0.576-6.877 0.541 15.355 56.699 50.972 105.06 98.597 136.86-3.624 0.164-7.261 0.278-10.924 0.278 132.55 0 240-107.45 240-240 0-104.8-67.184-193.9-160.83-226.62z" class="terreA"/>
	<path d="m263.74 1.169c0.649 0.064 1.296 0.133 1.944 0.202-0.648-0.069-1.295-0.139-1.944-0.202z" class="terreA"/>
	<path d="m269.26 1.779c0.656 0.08 1.312 0.156 1.966 0.242-0.654-0.085-1.311-0.162-1.966-0.242z" class="terreA"/>
	<path d="m311.64 150.13l12.453-9.207c0.514-0.38 0.838-0.896 1.233-1.364l0.261-0.087c2.206-2.765 2.385-6.76 0.177-9.74-2.609-3.547-7.633-4.305-11.188-1.676l-10.328 7.641h-19.586c-4.422 0-8 3.582-8 8s3.578 8 8 8h22.219c1.713-1e-3 3.384-0.551 4.759-1.567z" class="terreA"/>
	<path d="m281.41 3.571c0.826 0.144 1.649 0.293 2.472 0.446-0.823-0.153-1.647-0.303-2.472-0.446z" class="terreA"/>
	<path d="m355.18 142.49c1.633 0 3.281-0.5 4.703-1.535 0.213-0.155 0.414-0.32 0.607-0.491 1.339-1.2 2.161-2.787 2.486-4.462l0.045-0.012c0.401-2.099-0.027-4.352-1.389-6.214l-20.477-28.086c-2.602-3.563-7.602-4.355-11.172-1.75-3.57 2.602-4.359 7.609-1.75 11.18l20.477 28.086c1.564 2.144 4.002 3.284 6.47 3.284z" class="terreA"/>
	<path d="m152.33 342.86c-3.923-0.06-7.781-0.756-11.428-2.048-4.294-1.517-8.279-3.852-11.741-6.888-0.206-0.18-0.412-0.358-0.614-0.543-0.328-0.301-0.648-0.609-0.965-0.923-0.285-0.281-0.564-0.567-0.84-0.858-0.257-0.272-0.513-0.544-0.763-0.825-0.337-0.379-0.662-0.77-0.984-1.165-0.185-0.227-0.375-0.448-0.556-0.681-0.5-0.644-0.984-1.303-1.443-1.987v-1e-3l-5.819-8.667c-8.669-12.907-11.844-28.427-9.361-43.306 0.033-0.2 0.061-0.401 0.096-0.6 0.043-0.241 0.094-0.482 0.14-0.723 0.079-0.416 0.155-0.831 0.243-1.246 0.012-0.059 0.028-0.117 0.04-0.176 0.827-3.844 2.034-7.63 3.631-11.302 0.535-1.23 1.114-2.446 1.736-3.648 7e-3 -0.014 0.014-0.029 0.021-0.043l12.258-23.644-0.18-8.246c-0.281-12.746 7.844-23.766 19.742-27.387l-10.867-3.023c-8.281-2.305-14.148-9.617-14.609-18.199l-0.578-10.691c-0.57-10.629 7.273-19.836 17.859-20.957l10.656-1.131v-18.906c0-1.254 0.586-2.438 1.594-3.191l31.805-24.004c2.172-1.637 3.953-3.66 5.297-6.02l5.476-9.551-35.555 6.977c-1.172 0.223-2.391-0.078-3.313-0.836-0.93-0.762-1.461-1.895-1.461-3.09v-10.965c0-10.938 4.883-21.148 13.406-28.02l50.094-40.402c1.281-1.035 3.07-1.176 4.508-0.352l35.07 20.199c0.938 0.539 2.023 0.668 3.078 0.387 1.039-0.293 1.906-0.977 2.422-1.926l13.389-21.807 0.016-0.027c36.315 5.125 70.007 18.384 99.191 37.861 0.02-1e-3 0.039-2e-3 0.058-3e-3 -16.623-11.098-34.708-20.18-53.904-26.892-0.071-0.025-0.141-0.05-0.211-0.074-1.293-0.451-2.592-0.89-3.895-1.319-0.187-0.062-0.375-0.121-0.562-0.182-3.719-1.215-7.48-2.338-11.277-3.374-0.516-0.141-1.031-0.281-1.548-0.419-1.049-0.278-2.1-0.55-3.154-0.815-0.64-0.16-1.282-0.314-1.923-0.469-1.54-0.373-3.086-0.73-4.637-1.073-0.931-0.206-1.861-0.414-2.797-0.609-0.859-0.179-1.723-0.346-2.585-0.516-0.899-0.177-1.799-0.351-2.702-0.518-0.823-0.152-1.646-0.302-2.472-0.446-1.099-0.191-2.202-0.371-3.306-0.548-0.63-0.101-1.257-0.208-1.888-0.304-1.657-0.251-3.321-0.481-4.989-0.698-0.654-0.085-1.31-0.162-1.966-0.242-1.188-0.145-2.379-0.281-3.573-0.408-0.647-0.069-1.295-0.138-1.944-0.202-1.53-0.151-3.063-0.287-4.601-0.409-0.267-0.021-0.531-0.048-0.798-0.068-1.793-0.136-3.593-0.246-5.397-0.342-0.552-0.029-1.105-0.052-1.658-0.078-1.354-0.063-2.712-0.115-4.072-0.155-0.553-0.017-1.106-0.034-1.66-0.047-1.847-0.042-3.698-0.07-5.556-0.07-132.55 0-240 107.45-240 240s107.45 240 240 240c3.664 0 7.3-0.114 10.924-0.276-47.626-31.797-83.243-80.164-98.598-136.86zm-39.146-254.92c2.32-3.77 7.242-4.953 11.008-2.629l12.789 7.852c2.906 1.785 4.359 5.219 3.625 8.551l-5.656 25.465c-0.828 3.73-4.141 6.266-7.805 6.266-0.578 0-1.156-0.059-1.742-0.191-4.313-0.957-7.031-5.23-6.078-9.543l4.422-19.898-7.93-4.867c-3.766-2.31-4.946-7.24-2.633-11.006z" class="terreB"/>
	<path d="m360.49 140.46c-0.193 0.171-0.394 0.336-0.607 0.491 0.213-0.155 0.416-0.319 0.607-0.491z" class="terreC"/>
	<path d="m251.08 208.62l6.506 4.307 7.4-2.474c-4.671 1.561-9.8 0.885-13.906-1.833z" class="terreC"/>
	<path d="m306.88 151.7h4e-3c1.711 0 3.377-0.549 4.753-1.566l12.453-9.207-12.453 9.207c-1.375 1.016-3.046 1.566-4.757 1.566z" class="terreC"/>
	<path d="m444.11 183.37l5.092 19.037-49.767-15.815 77.07 24.492c0.563 0.171 1.143 0.16 1.708 0.09-3.573-29.834-12.625-57.978-26.106-83.412l-7.524 24.997c-2.997 9.961-3.161 20.561-0.473 30.611z" class="terreC"/>
	<path d="m330.37 288.44l-0.877 1.315c-5.935 8.9-15.925 14.245-26.622 14.245h-93.748c-10.699 0-20.691 5.347-26.625 14.25l-15.068 22.602-8.221 1.467c-6.264 1.118-12.555 0.53-18.314-1.504 3.648 1.292 7.505 1.987 11.428 2.048 2.281 0.035 4.582-0.126 6.877-0.541l53.172-9.492 12.375 15.328c8.383 10.375 19.391 18.391 31.844 23.18l5.406 2.078v33.391c0 3.633 1.313 10.16 4.016 19.957 3.414 12.367 11.477 22.641 22.703 28.934 7.297 4.094 15.344 6.176 23.476 6.176 4.461 0 8.953-0.625 13.367-1.895 1.195-0.34 2.164-1.219 2.617-2.371l35.023-88.531 46.875-44.164c0.625-0.586 1.039-1.355 1.195-2.195l4.672-25.75c0.219-1.215-0.133-2.461-0.953-3.383-0.828-0.922-2.031-1.379-3.258-1.324l-11.359 0.777c-7.391 0.512-14.398-1.887-19.836-6.414l-34.502-5.129c-6.126-0.914-12.227 1.792-15.663 6.945z" class="terreC"/>
	<path d="m446.18 117.22c0.335 0.562 0.667 1.125 0.998 1.689-0.331-0.564-0.663-1.127-0.998-1.689z" class="terreC"/>
	<path d="m438.56 105.26c0.203 0.298 0.405 0.596 0.606 0.896-0.201-0.299-0.403-0.598-0.606-0.896z" class="terreC"/>
	<path d="m273.81 2.446c0.139 0.02 0.28 0.027 0.419 0.047 13.091 1.871 25.84 4.799 38.16 8.692 0.893 0.283 1.755 0.629 2.644 0.922 5.05 1.662 10.039 3.46 14.935 5.442 1.634 0.662 3.227 1.401 4.843 2.098 4.094 1.764 8.146 3.605 12.118 5.586 1.831 0.914 3.63 1.878 5.434 2.837 3.685 1.958 7.318 3.999 10.886 6.14 1.819 1.092 3.625 2.202 5.413 3.34 1.381 0.88 2.703 1.842 4.065 2.75-97.838 4.528-180.37 67.618-213.35 155.03l1.951-0.371 11.052-8.253c2.367-1.768 4.199-4.156 5.291-6.902l6.962-17.486c6.273-5.809 15.453-6.988 22.937-3.035l21.773 19.305c1.242 1.105 3.047 1.32 4.516 0.547 1.477-0.773 2.313-2.379 2.109-4.027l-2.258-17.809c0.109-2.352 1.922-3.277 2.469-3.504 0.547-0.23 2.484-0.852 4.227 0.746l26.227 24.004c1.038 0.95 2.498 1.286 3.847 0.886l39.044-11.585-21.525 6.387-2.03-3.61c-3.503-6.231-2.287-14.051 2.944-18.924h-4.25c-4.422 0-8-3.582-8-8s3.578-8 8-8h19.586l10.328-7.641c3.555-2.629 8.578-1.871 11.188 1.676 2.207 2.98 2.029 6.975-0.177 9.74l10.411-3.471h10.375l2.335 3.203-20.477-28.086c-2.609-3.57-1.82-8.578 1.75-11.18 3.57-2.605 8.57-1.813 11.172 1.75l20.477 28.086c1.361 1.863 1.79 4.115 1.389 6.214l15.901-4.383c8.359-2.304 15.425-7.901 19.581-15.51l19.937-36.5c-13.416-14.917-28.677-28.138-45.422-39.314-29.184-19.477-62.876-32.735-99.191-37.861l-0.017 0.027z" class="terreC"/>
	<path d="m115.81 98.949l7.93 4.867-4.422 19.898c-0.953 4.313 1.766 8.586 6.078 9.543 0.586 0.133 1.164 0.191 1.742 0.191 3.664 0 6.977-2.535 7.805-6.266l5.656-25.465c0.734-3.332-0.719-6.766-3.625-8.551l-12.789-7.852c-3.766-2.324-8.688-1.141-11.008 2.629-2.313 3.768-1.133 8.698 2.633 11.006z" class="terreD"/>
	<path d="m159.38 195.33c32.975-87.409 115.51-150.5 213.35-155.03-1.362-0.907-2.684-1.87-4.065-2.75-1.788-1.139-3.593-2.249-5.413-3.34-3.567-2.141-7.201-4.182-10.886-6.14-1.804-0.959-3.603-1.923-5.434-2.837-3.972-1.981-8.024-3.822-12.118-5.586-1.616-0.697-3.208-1.436-4.843-2.098-4.896-1.982-9.885-3.78-14.935-5.442-0.888-0.293-1.751-0.64-2.644-0.922-12.32-3.894-25.068-6.822-38.16-8.692-0.139-0.02-0.28-0.027-0.419-0.047l-13.388 21.808c-0.516 0.949-1.383 1.633-2.422 1.926-1.055 0.281-2.141 0.152-3.078-0.387l-35.07-20.199c-1.438-0.824-3.227-0.684-4.508 0.352l-50.093 40.401c-8.523 6.871-13.406 17.082-13.406 28.02v10.965c0 1.195 0.531 2.328 1.461 3.09 0.922 0.758 2.141 1.059 3.313 0.836l35.555-6.977-5.476 9.551c-1.344 2.359-3.125 4.383-5.297 6.02l-31.805 24.004c-1.008 0.754-1.594 1.938-1.594 3.191v18.906l-10.656 1.133c-10.586 1.121-18.43 10.328-17.859 20.957l0.578 10.691c0.461 8.582 6.328 15.895 14.609 18.199l10.867 3.023 13.837-2.629z" class="terreD"/>
	<path d="m107.83 294.82c-1.106-6.555-1.118-13.266-0.02-19.851-2.483 14.879 0.692 30.399 9.361 43.306-0.382-0.568-0.753-1.142-1.113-1.72-4.2-6.739-6.946-14.132-8.228-21.735z" class="terreD"/>
	<path d="m107.91 274.37c0.043-0.241 0.095-0.482 0.14-0.723-0.046 0.241-0.097 0.481-0.14 0.723z" class="terreD"/>
	<path d="m108.29 272.4c0.012-0.059 0.028-0.117 0.04-0.176-0.012 0.059-0.028 0.118-0.04 0.176z" class="terreD"/>
	<polygon points="122.99 326.94 122.99 326.94 117.17 318.28" class="terreE"/>
	<path d="m111.96 260.92c0.535-1.23 1.114-2.446 1.736-3.648-0.622 1.202-1.201 2.418-1.736 3.648z" class="terreE"/>
	<polygon points="113.72 257.23 113.72 257.23 125.98 233.59" class="terreE"/>
	<path d="m378.92 131.6l-15.901 4.383-0.045 0.013c-0.325 1.676-1.147 3.262-2.486 4.462-0.192 0.172-0.394 0.336-0.607 0.491-1.422 1.035-3.07 1.535-4.703 1.535-2.469 0-4.906-1.141-6.469-3.285l-2.336-3.203h-10.375l-10.412 3.47-0.261 0.087c-0.395 0.468-0.719 0.984-1.233 1.364l-12.453 9.207c-1.376 1.017-3.042 1.566-4.753 1.566h-17.973c-5.23 4.873-6.447 12.693-2.944 18.924l2.03 3.61 21.523-6.386c2.789 3.172 4.367 7.277 4.391 11.551 0.016 4.992-2.094 9.773-5.797 13.117l-6.18 5.582-36.952 12.354-7.4 2.474-6.506-4.307-20.541-13.599c-7.273-4.813-15.664-7.316-24.234-7.316-2.563 0-5.141 0.227-7.703 0.68l-37.273 6.578-1.951 0.371-13.838 2.629 13.901-2.641c-9.942 26.342-15.441 54.863-15.441 84.685 0 21.739 2.954 42.774 8.373 62.797-8.571-0.123-16.805-3.276-23.216-8.871 3.462 3.036 7.448 5.371 11.741 6.888 5.759 2.034 12.05 2.623 18.314 1.504l8.221-1.467 15.068-22.602c5.935-8.902 15.926-14.25 26.625-14.25h93.748c10.697 0 20.687-5.345 26.622-14.245l0.877-1.315c3.436-5.152 9.537-7.859 15.663-6.948l34.502 5.129-60.538-78.62 14.517 4.839c6.175 2.058 11.575 5.951 15.481 11.158l37.037 49.383c2.715 3.619 7.888 4.27 11.413 1.435l22.887-18.405c7.125-5.277 11.328-13.618 11.328-22.485v-21.749c0-1.285-0.617-2.492-1.656-3.242-1.047-0.762-2.375-0.965-3.602-0.555l-8.898 2.945c-3.25 1.074-6.688 0.742-9.672-0.945-2.984-1.691-5.047-4.461-5.805-7.809l-3.594-15.977 49.767 15.815-5.092-19.037c-2.688-10.05-2.524-20.649 0.474-30.611l7.524-24.997 0.012-0.039c-1.582-2.983-3.247-5.915-4.949-8.822-0.331-0.564-0.663-1.128-0.998-1.689-2.238-3.753-4.575-7.438-7.008-11.055-0.201-0.299-0.403-0.597-0.606-0.896-6.127-9.022-12.829-17.621-20.102-25.705l-0.018 0.034-19.937 36.5c-4.156 7.612-11.222 13.21-19.581 15.513z" class="terreE"/>
	<path d="m127.58 332.46c0.317 0.313 0.638 0.622 0.965 0.923-0.328-0.3-0.647-0.61-0.965-0.923z" class="terreE"/>
	<path d="m124.44 328.93c0.18 0.232 0.37 0.454 0.556 0.681-0.186-0.228-0.376-0.449-0.556-0.681z" class="terreE"/>
	<path d="m125.98 330.78c0.249 0.281 0.506 0.553 0.763 0.825-0.258-0.272-0.514-0.545-0.763-0.825z" class="terreE"/>
	<path d="m107.83 294.82c1.282 7.603 4.028 14.996 8.228 21.735-4.2-6.739-6.946-14.132-8.228-21.735z" class="terreE"/>
	<path d="m152.37 342.8c-5.419-20.023-8.373-41.058-8.373-62.797 0-29.822 5.499-58.343 15.44-84.684l-13.901 2.641c-11.898 3.621-20.023 14.641-19.742 27.387l0.18 8.246-12.258 23.644c-7e-3 0.014-0.014 0.029-0.021 0.043-0.622 1.202-1.201 2.418-1.736 3.648-1.597 3.671-2.804 7.458-3.631 11.302-0.013 0.059-0.028 0.117-0.04 0.176-0.088 0.414-0.164 0.83-0.243 1.246-0.046 0.241-0.098 0.481-0.14 0.723-0.035 0.2-0.063 0.4-0.096 0.6-1.098 6.585-1.085 13.296 0.02 19.851 1.282 7.603 4.028 14.996 8.228 21.735 0.36 0.578 0.731 1.152 1.113 1.72l5.82 8.667c0.459 0.684 0.943 1.343 1.443 1.987 0.18 0.232 0.37 0.454 0.556 0.681 0.322 0.395 0.647 0.786 0.984 1.165 0.25 0.28 0.505 0.553 0.763 0.825 0.276 0.291 0.555 0.577 0.84 0.858 0.318 0.313 0.637 0.623 0.965 0.923 0.202 0.185 0.409 0.363 0.614 0.543 6.41 5.594 14.644 8.747 23.215 8.87z" class="terreF"/>
</svg>
