<?xml version="1.0" encoding="UTF-8"?>
<svg viewBox="0 50 501.4 401.4" xmlns="http://www.w3.org/2000/svg">
<style>.usernusA{fill:none;}.usernusB{fill:#708AFF;}.usernusC{fill:#3D6EDD;}</style>
<path class="usernusA" d="m71.3 339.2c-0.5-1.1-1.1-2.1-1.6-3.2-0.2-0.3-0.3-0.6-0.5-1-0.5-1.1-1-2.1-1.4-3.2-0.2-0.4-0.3-0.7-0.5-1.1-0.5-1-0.9-2.1-1.4-3.2-0.2-0.4-0.3-0.7-0.5-1.1-0.4-1.1-0.9-2.1-1.3-3.2-0.1-0.3-0.3-0.7-0.4-1l-1.2-3.3c-0.1-0.2-0.1-0.4-0.2-0.6-1.2-3.3-2.3-6.7-3.3-10-10.9 10.6-15.8 19.5-13.3 25.8 2.6 6.3 12.3 9.2 27.5 9.2-0.6-1.1-1.1-2.2-1.7-3.3 0.1-0.2-0.1-0.5-0.2-0.8z"/>
<path class="usernusA" d="m455.5 167.2c-2.6-6.3-12.3-9.2-27.5-9.2 5.8 11.1 10.6 22.8 14.3 35 10.8-10.6 15.8-19.5 13.2-25.8z"/>
<path class="usernusB" d="m364 104c-68.1 0-128.2 34-164.3 86 7.4-3.2 14.8-6.4 22.4-9.5 70.1-28.6 136.7-46.2 187.3-51.5-26.2-34.1-63.1-59.5-105.7-71.2 32.1 8.8 61 25.5 84.5 47.7-7.9-0.9-16-1.5-24.2-1.5z"/>
<path class="usernusB" d="m90.1 369.9c-0.6-0.8-1.1-1.6-1.7-2.3 0.6 0.7 1.1 1.5 1.7 2.3z"/>
<path class="usernusB" d="m285.2 53.7c1.2 0.2 2.4 0.4 3.6 0.7-1.2-0.3-2.4-0.5-3.6-0.7z"/>
<path class="usernusB" d="m289.9 54.5c1.3 0.3 2.6 0.5 3.8 0.8-1.2-0.2-2.5-0.5-3.8-0.8z"/>
<path class="usernusB" d="m299.1 56.6c1.4 0.4 2.9 0.7 4.3 1.1-1.4-0.3-2.8-0.7-4.3-1.1z"/>
<path class="usernusB" d="m442.2 193.1c-3.7-12.2-8.5-23.9-14.3-35-38.6 0.1-112.5 19.4-193.6 52.5-20.6 8.4-40.3 17.1-58.6 25.9-7.6 21.1-11.7 43.9-11.7 67.6 0 57.2 24 108.7 62.5 145.2-55.6-6.7-104.2-36.2-136.1-78.9 0.4 0.6 0.8 1.1 1.3 1.7 36.5 47.9 94.2 78.8 159.1 78.8 110.5 0 200-89.5 200-200 0-8.1-0.5-16.1-1.4-24-1.5-11.7-3.9-23-7.2-33.8z"/>
<path class="usernusB" d="m69.8 336c0.5 1.1 1 2.2 1.6 3.2-0.6-1.1-1.1-2.1-1.6-3.2z"/>
<path class="usernusB" d="m66 327.6c0.4 1.1 0.9 2.1 1.4 3.2-0.5-1.1-0.9-2.1-1.4-3.2z"/>
<path class="usernusB" d="m64.3 323.3c0.4 1.1 0.8 2.1 1.3 3.2-0.5-1-0.9-2.1-1.3-3.2z"/>
<path class="usernusB" d="m62.7 319l1.2 3.3-1.2-3.3z"/>
<path class="usernusB" d="m87 365.5c-0.1-0.1-0.2-0.2-0.2-0.3 0 0.1 0.1 0.2 0.2 0.3z"/>
<path class="usernusB" d="m67.9 331.8c0.5 1.1 1 2.1 1.4 3.2-0.5-1-1-2.1-1.4-3.2z"/>
<path class="usernusB" d="m59.1 308.3c1 3.4 2.1 6.7 3.3 10-1.1-3.2-2.2-6.6-3.3-10z"/>
<path class="usernusB" d="m294.6 55.5c1.4 0.3 2.7 0.6 4.1 1-1.4-0.3-2.8-0.7-4.1-1z"/>
<path class="usernusB" d="m51.4 267.6c-0.1-0.7-0.1-1.4-0.2-2.1 0.1 0.7 0.2 1.4 0.2 2.1z"/>
<path class="usernusB" d="m265.8 51.3c0.9 0.1 1.8 0.2 2.7 0.2-1-0.1-1.8-0.2-2.7-0.2z"/>
<path class="usernusB" d="m50.8 257.3c0-0.6 0-1.1-0.1-1.7 0.1 0.6 0.1 1.2 0.1 1.7z"/>
<path class="usernusB" d="m260.8 50.9c0.8 0 1.6 0.1 2.4 0.1-0.8 0-1.6 0-2.4-0.1z"/>
<path class="usernusB" d="m255.8 50.8c0.6 0 1.3 0 1.9 0.1-0.7-0.1-1.3-0.1-1.9-0.1z"/>
<path class="usernusB" d="m73.4 343.3c-0.6-1.1-1.1-2.2-1.7-3.3 0.6 1.1 1.1 2.2 1.7 3.3z"/>
<path class="usernusB" d="m280.4 52.9c1.1 0.2 2.3 0.4 3.4 0.5-1.1-0.2-2.3-0.3-3.4-0.5z"/>
<path class="usernusB" d="m51.9 272.6c-0.1-0.7-0.2-1.4-0.2-2.2 0 0.7 0.1 1.5 0.2 2.2z"/>
<path class="usernusB" d="m275.6 52.2c1.1 0.1 2.1 0.3 3.1 0.4-1-0.1-2.1-0.2-3.1-0.4z"/>
<path class="usernusB" d="m270.7 51.7c1 0.1 1.9 0.2 2.9 0.3-1-0.1-1.9-0.2-2.9-0.3z"/>
<path class="usernusB" d="m51.1 262.6c0-0.7-0.1-1.3-0.1-2 0 0.7 0 1.3 0.1 2z"/>
<path class="usernusC" d="m226.5 449.2c-38.5-36.4-62.5-88-62.5-145.2 0-23.7 4.1-46.5 11.7-67.6-53.8 25.7-96 51.9-116.6 71.9 1 3.4 2.1 6.7 3.3 10 0.1 0.2 0.1 0.4 0.2 0.6l1.2 3.3c0.1 0.3 0.3 0.7 0.4 1 0.4 1.1 0.8 2.1 1.3 3.2 0.2 0.4 0.3 0.7 0.5 1.1 0.4 1.1 0.9 2.1 1.4 3.2 0.2 0.4 0.3 0.7 0.5 1.1 0.5 1.1 1 2.1 1.4 3.2 0.2 0.3 0.3 0.6 0.5 1 0.5 1.1 1 2.2 1.6 3.2 0.1 0.3 0.3 0.5 0.4 0.8 0.5 1.1 1.1 2.2 1.7 3.3h0.1c4 7.6 8.4 14.9 13.2 21.9 0.1 0.1 0.2 0.2 0.2 0.3 0.5 0.7 0.9 1.3 1.4 2 0.6 0.8 1.1 1.6 1.7 2.3 0.1 0.1 0.2 0.3 0.3 0.4 31.9 42.8 80.5 72.3 136.1 79z"/>
<path class="usernusC" d="m199.7 190c36.1-52 96.2-86 164.3-86 8.2 0 16.2 0.5 24.2 1.5-23.5-22.3-52.4-38.9-84.5-47.7-0.1 0-0.1 0-0.2-0.1-1.4-0.4-2.9-0.8-4.3-1.1-0.2 0-0.3-0.1-0.5-0.1-1.4-0.3-2.7-0.7-4.1-1-0.3-0.1-0.5-0.1-0.8-0.2-1.3-0.3-2.5-0.5-3.8-0.8-0.4-0.1-0.7-0.1-1.1-0.2-1.2-0.2-2.4-0.5-3.6-0.7-0.5-0.1-0.9-0.2-1.4-0.2-1.1-0.2-2.2-0.4-3.4-0.5-0.6-0.1-1.1-0.2-1.7-0.2-1-0.1-2.1-0.3-3.1-0.4-0.7-0.1-1.3-0.1-2-0.2-1-0.1-1.9-0.2-2.9-0.3-0.8-0.1-1.5-0.1-2.3-0.2-0.9-0.1-1.8-0.2-2.7-0.2-0.9-0.1-1.7-0.1-2.6-0.2-0.8 0-1.6-0.1-2.4-0.1-1-0.1-2.1-0.1-3.1-0.1-0.6 0-1.3-0.1-1.9-0.1-1.7 0-3.4-0.1-5.1-0.1-110.5 0-200 89.5-200 200 0 1.7 0 3.3 0.1 5 0 0.6 0 1.1 0.1 1.7 0 1.1 0.1 2.2 0.1 3.3 0 0.7 0.1 1.3 0.1 2 0.1 1 0.1 2 0.2 3 0.1 0.7 0.1 1.4 0.2 2.1 0.1 0.9 0.2 1.9 0.2 2.8 0.1 0.7 0.2 1.4 0.2 2.2 0.1 0.7 0.1 1.4 0.2 2 35.6-28.4 87.1-58.4 147.6-84.9z"/>
<path d="m499.7 149.2c-7.7-19-41.6-25.3-90.3-20.2-50.6 5.3-117.2 23-187.3 51.5-7.6 3.1-15.1 6.3-22.4 9.5-60.4 26.4-112 56.5-147.6 84.6-38.4 30.4-58.2 58.5-50.5 77.5s41.6 25.3 90.3 20.2c-0.1-0.1-0.2-0.3-0.3-0.4-0.4-0.6-0.8-1.1-1.3-1.7-0.1-0.1-0.2-0.3-0.3-0.4-0.6-0.8-1.1-1.6-1.7-2.3-0.5-0.7-1-1.3-1.4-2-0.1-0.1-0.2-0.2-0.2-0.3-4.9-7-9.3-14.3-13.2-21.9h-0.1c-15.2 0-25-2.9-27.5-9.2-2.6-6.3 2.4-15.2 13.3-25.8 20.7-20.1 62.8-46.2 116.6-71.9 18.3-8.8 38-17.5 58.6-25.9 81.1-33.1 155-52.4 193.6-52.5 15.2 0 25 2.9 27.5 9.2 2.6 6.3-2.4 15.2-13.3 25.8 3.3 10.9 5.7 22.1 7 33.7 38.4-30.3 58.3-58.5 50.5-77.5z" fill="#9DC1FF"/>
</svg>
